<?xml version="1.0" encoding="UTF-8"?>
<svg width="100px" height="120px" viewBox="0 0 100 120" version="1.1" xmlns="http://www.w3.org/2000/svg" xmlns:xlink="http://www.w3.org/1999/xlink">
    <!-- Generator: Sketch 43.2 (39069) - http://www.bohemiancoding.com/sketch -->
    <title>ceo_icn</title>
    <desc>Created with Sketch.</desc>
    <defs></defs>
    <g id="Home" stroke="none" stroke-width="1" fill="none" fill-rule="evenodd">
        <g id="VER_Partners_" transform="translate(-705.000000, -611.000000)">
            <g id="CEO" transform="translate(532.000000, 566.000000)">
                <g id="ceo_icn" transform="translate(173.000000, 45.000000)">
                    <g id="Group-7">
                        <path d="M27,69.844 C27,52.68 37.435,31 50.306,31 C63.177,31 73.612,52.68 73.612,69.844 L27,69.844" id="Fill-314-Copy" fill="#BEBEB9"></path>
                        <path d="M39.074,42.537 C39.074,51.118 32.117,58.074 23.537,58.074 C14.957,58.074 8,51.118 8,42.537 C8,33.957 14.957,27 23.537,27 C32.117,27 39.074,33.957 39.074,42.537" id="Fill-315-Copy" fill="#D0011B"></path>
                        <path d="M0,96.844 C0,79.68 10.435,58 23.306,58 C36.177,58 46.611,79.68 46.611,96.844 L0,96.844" id="Fill-316-Copy" fill="#D0011B"></path>
                        <path d="M92.074,42.537 C92.074,51.118 85.117,58.074 76.537,58.074 C67.957,58.074 61,51.118 61,42.537 C61,33.957 67.957,27 76.537,27 C85.117,27 92.074,33.957 92.074,42.537" id="Fill-317-Copy" fill="#EC5D04"></path>
                        <path d="M53,96.844 C53,79.68 63.434,58 76.305,58 C89.176,58 99.611,79.68 99.611,96.844 L53,96.844" id="Fill-318-Copy" fill="#EC5D04"></path>
                        <path d="M50.8974157,81.0152537 C58.8404812,80.3261318 65.074,73.6595714 65.074,65.537 C65.074,56.957 58.117,50 49.537,50 C40.957,50 34,56.957 34,65.537 C34,73.9605496 40.7040381,80.8181855 49.0663761,81.0670072 C36.7716173,82.3961757 27,103.23454 27,119.844 L73.612,119.844 C73.612,102.943672 63.4951405,81.6650265 50.8974157,81.0152537 Z" id="Combined-Shape" fill="#E8E8E8"></path>
                        <path d="M65.074,15.537 C65.074,24.118 58.117,31.074 49.537,31.074 C40.957,31.074 34,24.118 34,15.537 C34,6.957 40.957,0 49.537,0 C58.117,0 65.074,6.957 65.074,15.537" id="Fill-730-Copy" fill="#BEBEB9"></path>
                    </g>
                </g>
            </g>
        </g>
    </g>
</svg>