<?xml version="1.0" encoding="UTF-8"?>
<svg width="122px" height="140px" viewBox="0 0 122 140" version="1.1" xmlns="http://www.w3.org/2000/svg" xmlns:xlink="http://www.w3.org/1999/xlink">
    <!-- Generator: Sketch 43.2 (39069) - http://www.bohemiancoding.com/sketch -->
    <title>hr_icn</title>
    <desc>Created with Sketch.</desc>
    <defs></defs>
    <g id="Home" stroke="none" stroke-width="1" fill="none" fill-rule="evenodd">
        <g id="VER_Partners_" transform="translate(-693.000000, -1303.000000)">
            <g id="HR" transform="translate(532.000000, 1272.000000)">
                <g id="hr_icn" transform="translate(161.000000, 31.000000)">
                    <polygon id="Fill-321" fill="#00CAB8" points="1 99 121 99 121 94 1 94"></polygon>
                    <polygon id="Fill-322" fill="#00CAB8" points="1 111 121 111 121 106 1 106"></polygon>
                    <polygon id="Fill-323" fill="#00CAB8" points="41 15 81 15 81 0 41 0"></polygon>
                    <path d="M76.132,103 C72.751,103 70,106.668 70,111.177 C70,115.686 72.751,119.355 76.132,119.355 C79.514,119.355 82.265,115.686 82.265,111.177 C82.265,106.668 79.514,103 76.132,103 Z M76.132,121.355 C71.648,121.355 68,116.79 68,111.177 C68,105.565 71.648,101 76.132,101 C80.617,101 84.265,105.565 84.265,111.177 C84.265,116.79 80.617,121.355 76.132,121.355 L76.132,121.355 Z" id="Fill-362" fill="#0A0A08"></path>
                    <polyline id="Fill-363" fill="#0A0A08" points="61.955 139.677 60 139.256 62.91 125.729 70.412 124.296 70.412 118 72.412 118 72.412 125.951 64.587 127.444 61.955 139.677"></polyline>
                    <polyline id="Fill-364" fill="#0A0A08" points="89.455 139.677 86.823 127.444 79 125.951 79 118 81 118 81 124.296 88.5 125.729 91.41 139.256 89.455 139.677"></polyline>
                    <path d="M45.133,103 C41.751,103 39,106.668 39,111.177 C39,115.686 41.751,119.355 45.133,119.355 C48.514,119.355 51.265,115.686 51.265,111.177 C51.265,106.668 48.514,103 45.133,103 Z M45.133,121.355 C40.648,121.355 37,116.79 37,111.177 C37,105.565 40.648,101 45.133,101 C49.617,101 53.265,105.565 53.265,111.177 C53.265,116.79 49.617,121.355 45.133,121.355 L45.133,121.355 Z" id="Fill-365" fill="#0A0A08"></path>
                    <polyline id="Fill-366" fill="#0A0A08" points="31.955 139.677 30 139.256 32.911 125.729 40.412 124.296 40.412 118 42.412 118 42.412 125.951 34.588 127.444 31.955 139.677"></polyline>
                    <polyline id="Fill-367" fill="#0A0A08" points="59.455 139.677 56.823 127.444 49 125.951 49 118 51 118 51 124.296 58.5 125.729 61.41 139.256 59.455 139.677"></polyline>
                    <path d="M106.132,103 C102.751,103 100,106.668 100,111.177 C100,115.686 102.751,119.355 106.132,119.355 C109.514,119.355 112.265,115.686 112.265,111.177 C112.265,106.668 109.514,103 106.132,103 Z M106.132,121.355 C101.648,121.355 98,116.79 98,111.177 C98,105.565 101.648,101 106.132,101 C110.617,101 114.265,105.565 114.265,111.177 C114.265,116.79 110.617,121.355 106.132,121.355 L106.132,121.355 Z" id="Fill-368" fill="#0A0A08"></path>
                    <polyline id="Fill-369" fill="#0A0A08" points="91.955 139.677 90 139.256 92.911 125.729 100.412 124.296 100.412 118 102.412 118 102.412 125.951 94.587 127.444 91.955 139.677"></polyline>
                    <polyline id="Fill-370" fill="#0A0A08" points="119.454 139.677 116.823 127.444 109 125.951 109 118 111 118 111 124.296 118.499 125.729 121.41 139.256 119.454 139.677"></polyline>
                    <path d="M15.133,103 C11.751,103 9,106.668 9,111.177 C9,115.686 11.751,119.355 15.133,119.355 C18.514,119.355 21.265,115.686 21.265,111.177 C21.265,106.668 18.514,103 15.133,103 Z M15.133,121.355 C10.649,121.355 7,116.79 7,111.177 C7,105.565 10.649,101 15.133,101 C19.617,101 23.265,105.565 23.265,111.177 C23.265,116.79 19.617,121.355 15.133,121.355 L15.133,121.355 Z" id="Fill-371" fill="#0A0A08"></path>
                    <polyline id="Fill-372" fill="#0A0A08" points="1.956 139.677 0 139.256 2.912 125.729 10.413 124.296 10.413 118 12.413 118 12.413 125.951 4.588 127.444 1.956 139.677"></polyline>
                    <polyline id="Fill-373" fill="#0A0A08" points="29.455 139.677 26.824 127.444 19 125.951 19 118 21 118 21 124.296 28.5 125.729 31.41 139.256 29.455 139.677"></polyline>
                    <path d="M91.132,79 C87.75,79 85,82.668 85,87.177 C85,91.686 87.75,95.355 91.132,95.355 C94.514,95.355 97.265,91.686 97.265,87.177 C97.265,82.668 94.514,79 91.132,79 Z M91.132,97.355 C86.647,97.355 83,92.789 83,87.177 C83,81.565 86.647,77 91.132,77 C95.616,77 99.265,81.565 99.265,87.177 C99.265,92.789 95.616,97.355 91.132,97.355 L91.132,97.355 Z" id="Fill-374" fill="#0A0A08"></path>
                    <polyline id="Fill-375" fill="#0A0A08" points="79.375 103.569 79 101.604 85.85 100.296 85.85 94 87.85 94 87.85 101.95 79.375 103.569"></polyline>
                    <polyline id="Fill-376" fill="#0A0A08" points="103.475 103.569 95 101.95 95 94 97 94 97 100.296 103.85 101.604 103.475 103.569"></polyline>
                    <path d="M61.133,79 C57.751,79 55,82.668 55,87.177 C55,91.686 57.751,95.355 61.133,95.355 C64.514,95.355 67.265,91.686 67.265,87.177 C67.265,82.668 64.514,79 61.133,79 Z M61.133,97.355 C56.649,97.355 53,92.789 53,87.177 C53,81.565 56.649,77 61.133,77 C65.617,77 69.265,81.565 69.265,87.177 C69.265,92.789 65.617,97.355 61.133,97.355 L61.133,97.355 Z" id="Fill-377" fill="#0A0A08"></path>
                    <polyline id="Fill-378" fill="#0A0A08" points="48.375 103.569 48 101.604 54.85 100.296 54.85 94 56.85 94 56.85 101.95 48.375 103.569"></polyline>
                    <polyline id="Fill-379" fill="#0A0A08" points="72.474 103.569 64 101.95 64 94 66 94 66 100.296 72.849 101.604 72.474 103.569"></polyline>
                    <path d="M31.133,79 C27.751,79 25,82.668 25,87.177 C25,91.686 27.751,95.355 31.133,95.355 C34.513,95.355 37.264,91.686 37.264,87.177 C37.264,82.668 34.513,79 31.133,79 Z M31.133,97.355 C26.648,97.355 23,92.789 23,87.177 C23,81.565 26.648,77 31.133,77 C35.616,77 39.264,81.565 39.264,87.177 C39.264,92.789 35.616,97.355 31.133,97.355 L31.133,97.355 Z" id="Fill-380" fill="#0A0A08"></path>
                    <polyline id="Fill-381" fill="#0A0A08" points="18.375 103.569 18 101.604 24.85 100.296 24.85 94 26.85 94 26.85 101.95 18.375 103.569"></polyline>
                    <polyline id="Fill-382" fill="#0A0A08" points="42.474 103.569 34 101.95 34 94 36 94 36 100.296 42.849 101.604 42.474 103.569"></polyline>
                    <polygon id="Fill-383" fill="#E3E4E1" points="13 70 108.07 70 108.07 20 13 20"></polygon>
                    <path d="M12,19 L110,19 L110,11 L12,11 L12,19 Z M10,21 L112,21 L112,9 L10,9 L10,21 Z" id="Fill-384" fill="#0A0A08"></path>
                    <path d="M40,31 C37.795,31 36,32.794 36,35 C36,37.206 37.795,39 40,39 C42.206,39 44,37.206 44,35 C44,32.794 42.206,31 40,31 Z M40,41 C36.692,41 34,38.309 34,35 C34,31.691 36.692,29 40,29 C43.309,29 46,31.691 46,35 C46,38.309 43.309,41 40,41 L40,41 Z" id="Fill-385" fill="#0A0A08"></path>
                    <polyline id="Fill-386" fill="#0A0A08" points="85 60.414 75 50.414 76.414 49 86.414 59 85 60.414"></polyline>
                    <polyline id="Fill-387" fill="#0A0A08" points="76.414 60.414 75 59 85 49 86.414 50.414 76.414 60.414"></polyline>
                    <polyline id="Fill-388" fill="#0A0A08" points="71.854 35.444 67.919 30.82 63.295 34.755 62 33.231 68.146 28 73.377 34.148 71.854 35.444"></polyline>
                    <path d="M38,61 L38,59 C53.991,59 67,45.991 67,30 L69,30 C69,47.093 55.094,61 38,61" id="Fill-389" fill="#0A0A08"></path>
                    <polygon id="Fill-390" fill="#0A0A08" points="101 51 121 51 121 49 101 49"></polygon>
                    <polygon id="Fill-391" fill="#0A0A08" points="101 56 121 56 121 54 101 54"></polygon>
                    <polygon id="Fill-392" fill="#0A0A08" points="1 31 21 31 21 29 1 29"></polygon>
                    <polygon id="Fill-393" fill="#0A0A08" points="1 36 21 36 21 34 1 34"></polygon>
                    <polygon id="Fill-394" fill="#0A0A08" points="1 41 21 41 21 39 1 39"></polygon>
                    <polygon id="Fill-395" fill="#0A0A08" points="1 46 8.001 46 8.001 44 1 44"></polygon>
                    <polygon id="Fill-396" fill="#0A0A08" points="101 61 111 61 111 59 101 59"></polygon>
                    <path d="M110.332,79.166 C110.332,77.417 108.915,76 107.166,76 C105.417,76 104,77.417 104,79.166 C104,80.915 105.417,82.333 107.166,82.333 C108.915,82.333 110.332,80.915 110.332,79.166" id="Fill-398" fill="#00CAB8"></path>
                </g>
            </g>
        </g>
    </g>
</svg>