<?xml version="1.0" encoding="UTF-8"?>
<svg width="50px" height="50px" viewBox="0 0 50 50" version="1.1" xmlns="http://www.w3.org/2000/svg" xmlns:xlink="http://www.w3.org/1999/xlink">
    <!-- Generator: Sketch 43.2 (39069) - http://www.bohemiancoding.com/sketch -->
    <title>icn_partners</title>
    <desc>Created with Sketch.</desc>
    <defs></defs>
    <g id="Home" stroke="none" stroke-width="1" fill="none" fill-rule="evenodd" stroke-linejoin="round">
        <g id="VER_Partners_" transform="translate(-247.000000, -126.000000)" stroke="#000000" stroke-width="2">
            <g id="HEAD-STAT" transform="translate(-48.000000, 88.000000)">
                <g id="Group-2" transform="translate(254.000000, 39.000000)">
                    <g id="icn_partners" transform="translate(42.000000, 0.000000)">
                        <path d="M7.48387097,25.0322581 C9.76309677,25.0322581 11.6129032,23.1824516 11.6129032,20.9032258 C11.6129032,18.624 9.76309677,16.7741935 7.48387097,16.7741935 C5.20464516,16.7741935 3.35483871,18.624 3.35483871,20.9032258 C3.35483871,23.1824516 5.20464516,25.0322581 7.48387097,25.0322581 L7.48387097,25.0322581 Z" id="Stroke-381"></path>
                        <path d="M7.48387097,29.1612903 L14.7096774,29.1612903 C14.7096774,34.6590968 14.1935484,38.4516129 10.5806452,39.3806452 L10.5806452,47.7419355 L7.48387097,47.7419355 L4.38709677,47.7419355 L4.38709677,39.3806452 C0.774193548,38.4516129 0.258064516,34.6590968 0.258064516,29.1612903 L7.48387097,29.1612903 L7.48387097,29.1612903 Z" id="Stroke-382"></path>
                        <path d="M40.516129,25.0322581 C42.7953548,25.0322581 44.6451613,23.1824516 44.6451613,20.9032258 C44.6451613,18.624 42.7953548,16.7741935 40.516129,16.7741935 C38.2369032,16.7741935 36.3870968,18.624 36.3870968,20.9032258 C36.3870968,23.1824516 38.2369032,25.0322581 40.516129,25.0322581 L40.516129,25.0322581 Z" id="Stroke-383"></path>
                        <path d="M40.516129,29.1612903 L47.7419355,29.1612903 C47.7419355,34.6590968 47.2258065,38.4516129 43.6129032,39.3806452 L43.6129032,47.7419355 L40.516129,47.7419355 L37.4193548,47.7419355 L37.4193548,39.3806452 C33.8064516,38.4516129 33.2903226,34.6590968 33.2903226,29.1612903 L40.516129,29.1612903 L40.516129,29.1612903 Z" id="Stroke-384"></path>
                        <path d="M24,8.51612903 C26.2792258,8.51612903 28.1290323,6.66632258 28.1290323,4.38709677 C28.1290323,2.10787097 26.2792258,0.258064516 24,0.258064516 C21.7207742,0.258064516 19.8709677,2.10787097 19.8709677,4.38709677 C19.8709677,6.66632258 21.7207742,8.51612903 24,8.51612903 L24,8.51612903 Z" id="Stroke-385"></path>
                        <path d="M24,12.6451613 L31.2258065,12.6451613 C31.2258065,18.1429677 30.7096774,21.9354839 27.0967742,22.8645161 L27.0967742,31.2258065 L24,31.2258065 L20.9032258,31.2258065 L20.9032258,22.8645161 C17.2903226,21.9354839 16.7741935,18.1429677 16.7741935,12.6451613 L24,12.6451613 L24,12.6451613 Z" id="Stroke-386"></path>
                    </g>
                </g>
            </g>
        </g>
    </g>
</svg>