<?xml version="1.0" encoding="UTF-8"?>
<svg width="48px" height="48px" viewBox="0 0 48 48" version="1.1" xmlns="http://www.w3.org/2000/svg" xmlns:xlink="http://www.w3.org/1999/xlink">
    <!-- Generator: Sketch 43.2 (39069) - http://www.bohemiancoding.com/sketch -->
    <title>icn_cities</title>
    <desc>Created with Sketch.</desc>
    <defs></defs>
    <g id="Home" stroke="none" stroke-width="1" fill="none" fill-rule="evenodd" stroke-linecap="round" stroke-linejoin="round">
        <g id="VER_Partners_" transform="translate(-488.000000, -126.000000)" stroke="#000000" stroke-width="2">
            <g id="HEAD-STAT" transform="translate(-48.000000, 88.000000)">
                <g id="Group-4" transform="translate(505.000000, 39.000000)">
                    <g id="icn_cities" transform="translate(32.000000, 0.000000)">
                        <polygon id="Stroke-5515" points="18 14 0 14 0 46 18 46"></polygon>
                        <polygon id="Stroke-5516" points="16 14 2 14 2 6 16 6"></polygon>
                        <path d="M8,6 L8,0" id="Stroke-5517"></path>
                        <polygon id="Stroke-5518" points="46 46 32 46 32 18 46 18"></polygon>
                        <polygon id="Stroke-5519" points="44 18 34 18 34 12 44 12"></polygon>
                        <path d="M18,26 L32,26" id="Stroke-5520"></path>
                        <path d="M18,46 L32,46" id="Stroke-5521"></path>
                        <path d="M6,10 L12,10" id="Stroke-5522"></path>
                        <path d="M4,18 L14,18" id="Stroke-5523"></path>
                        <path d="M4,22 L14,22" id="Stroke-5524"></path>
                        <path d="M4,26 L14,26" id="Stroke-5525"></path>
                        <path d="M4,30 L14,30" id="Stroke-5526"></path>
                        <path d="M4,34 L14,34" id="Stroke-5527"></path>
                        <path d="M4,38 L14,38" id="Stroke-5528"></path>
                        <path d="M36,22 L42,22" id="Stroke-5529"></path>
                        <path d="M36,26 L42,26" id="Stroke-5530"></path>
                        <path d="M36,30 L42,30" id="Stroke-5531"></path>
                        <path d="M36,34 L42,34" id="Stroke-5532"></path>
                        <path d="M36,38 L42,38" id="Stroke-5533"></path>
                        <path d="M22,30 L28,30" id="Stroke-5534"></path>
                        <path d="M22,34 L28,34" id="Stroke-5535"></path>
                        <path d="M22,38 L28,38" id="Stroke-5536"></path>
                        <polygon id="Stroke-5537" points="10 42 6 42 6 46 10 46"></polygon>
                        <polygon id="Stroke-5538" points="42 46 38 46 38 42 42 42"></polygon>
                    </g>
                </g>
            </g>
        </g>
    </g>
</svg>