<?xml version="1.0" encoding="UTF-8"?>
<svg width="48px" height="48px" viewBox="0 0 48 48" version="1.1" xmlns="http://www.w3.org/2000/svg" xmlns:xlink="http://www.w3.org/1999/xlink">
    <!-- Generator: Sketch 43.2 (39069) - http://www.bohemiancoding.com/sketch -->
    <title>icn_globe</title>
    <desc>Created with Sketch.</desc>
    <defs></defs>
    <g id="Home" stroke="none" stroke-width="1" fill="none" fill-rule="evenodd" stroke-linejoin="round">
        <g id="VER_Partners_" transform="translate(-728.000000, -127.000000)" stroke="#000000" stroke-width="2">
            <g id="HEAD-STAT" transform="translate(-48.000000, 88.000000)">
                <g id="Group-5" transform="translate(753.000000, 40.000000)">
                    <g id="icn_globe" transform="translate(24.000000, 0.000000)">
                        <path d="M46,22.913 C46,35.663 35.674,46.001 22.936,46.001 C10.198,46.001 0,35.251 0,22.499 C0,10.085 9.74,0.517 22.01,0.023 C22.342,0.007 22.674,0.000999999999 23.01,0.000999999999 C35.748,0.000999999999 46,10.163 46,22.913 L46,22.913 Z" id="Stroke-5698"></path>
                        <path d="M22.0098,0.0224 C10.0098,13.0224 10.0098,29.9824 22.0098,45.9824" id="Stroke-5699"></path>
                        <path d="M24.0098,0.0224 C36.0098,13.0224 36.0098,29.9764 24.0098,45.9764" id="Stroke-5700"></path>
                        <path d="M3,33 L43.124,33" id="Stroke-5701"></path>
                        <path d="M3.8116,9 L41.9356,9" id="Stroke-5702"></path>
                        <path d="M0,21 L45.874,21" id="Stroke-5703"></path>
                    </g>
                </g>
            </g>
        </g>
    </g>
</svg>