<?xml version="1.0" encoding="UTF-8"?>
<svg width="112px" height="142px" viewBox="0 0 112 142" version="1.1" xmlns="http://www.w3.org/2000/svg" xmlns:xlink="http://www.w3.org/1999/xlink">
    <!-- Generator: Sketch 43.2 (39069) - http://www.bohemiancoding.com/sketch -->
    <title>psycho_icn</title>
    <desc>Created with Sketch.</desc>
    <defs></defs>
    <g id="Home" stroke="none" stroke-width="1" fill="none" fill-rule="evenodd">
        <g id="VER_Partners_" transform="translate(-211.000000, -1303.000000)">
            <g id="PSYCHO" transform="translate(42.000000, 1272.000000)">
                <g id="psycho_icn" transform="translate(169.000000, 31.000000)">
                    <polygon id="Fill-259" fill="#E3E4E1" points="11 81 61 81 61 31 11 31"></polygon>
                    <polygon id="Fill-260" fill="#E3E4E1" points="1 21 111 21 111 1 1 1"></polygon>
                    <polygon id="Fill-261" fill="#FFFFFF" points="6 15 90.625 15 90.625 7 6 7"></polygon>
                    <polygon id="Fill-567" fill="#0A0A08" points="71 50 100.583 50 100.583 48 71 48"></polygon>
                    <polygon id="Fill-568" fill="#0A0A08" points="71 54 100.583 54 100.583 52 71 52"></polygon>
                    <polygon id="Fill-569" fill="#0A0A08" points="71 58 100.583 58 100.583 56 71 56"></polygon>
                    <polygon id="Fill-570" fill="#0A0A08" points="71 62 86.165 62 86.165 60 71 60"></polygon>
                    <polygon id="Fill-571" fill="#0A0A08" points="71 70 100.583 70 100.583 68 71 68"></polygon>
                    <polygon id="Fill-572" fill="#0A0A08" points="71 74 100.583 74 100.583 72 71 72"></polygon>
                    <polygon id="Fill-573" fill="#0A0A08" points="71 78 100.583 78 100.583 76 71 76"></polygon>
                    <polygon id="Fill-574" fill="#0A0A08" points="71 82 86.165 82 86.165 80 71 80"></polygon>
                    <polygon id="Fill-575" fill="#0A0A08" points="11 120 100.583 120 100.583 118 11 118"></polygon>
                    <polygon id="Fill-576" fill="#0A0A08" points="11 124 100.583 124 100.583 122 11 122"></polygon>
                    <polygon id="Fill-577" fill="#0A0A08" points="11 128 100.583 128 100.583 126 11 126"></polygon>
                    <polygon id="Fill-578" fill="#0A0A08" points="11 132 49.397 132 49.397 130 11 130"></polygon>
                    <path d="M2,140 L110,140 L110,2 L2,2 L2,140 Z M0,142 L112,142 L112,0 L0,0 L0,142 Z" id="Fill-579" fill="#BEBEB9"></path>
                    <polygon id="Fill-580" fill="#BEBEB9" points="6 15 14 15 14 7 6 7"></polygon>
                    <polygon id="Fill-581" fill="#0A0A08" points="21 12 51 12 51 10 21 10"></polygon>
                    <polygon id="Fill-582" fill="#0A0A08" points="95 10 100.375 10 100.375 8 95 8"></polygon>
                    <polygon id="Fill-583" fill="#0A0A08" points="95 13 100.375 13 100.375 11 95 11"></polygon>
                    <polygon id="Fill-586" fill="#0A0A08" points="71 32 91 32 91 30 71 30"></polygon>
                    <polygon id="Fill-587" fill="#EC5D04" points="71 41 85 41 85 36 71 36"></polygon>
                    <polygon id="Fill-588" fill="#EC5D04" points="88 41 102 41 102 36 88 36"></polygon>
                    <polygon id="Fill-589" fill="#D4D4D4" points="11 111 36 111 36 91 11 91"></polygon>
                    <polygon id="Fill-590" fill="#D4D4D4" points="43 111 68 111 68 91 43 91"></polygon>
                    <polygon id="Fill-591" fill="#D4D4D4" points="76 111 101 111 101 91 76 91"></polygon>
                    <g id="Group-20" transform="translate(23.000000, 34.000000)">
                        <path d="M12.8428936,3.2769759 C8.95174468,3.2769759 5.78582979,7.39145783 5.78582979,12.4487711 C5.78582979,17.5066506 8.95174468,21.6211325 12.8428936,21.6211325 C16.7345957,21.6211325 19.9005106,17.5066506 19.9005106,12.4487711 C19.9005106,7.39145783 16.7345957,3.2769759 12.8428936,3.2769759 Z M12.8428936,22.7536627 C8.34157447,22.7536627 4.67944681,18.131241 4.67944681,12.4487711 C4.67944681,6.76686747 8.34157447,2.14444578 12.8428936,2.14444578 C17.344766,2.14444578 21.0068936,6.76686747 21.0068936,12.4487711 C21.0068936,18.131241 17.344766,22.7536627 12.8428936,22.7536627 L12.8428936,22.7536627 Z" id="Fill-367" fill="#0A0A08"></path>
                        <path d="M4.40782979,10.876253 L12.9087234,10.876253 C12.9087234,10.876253 17.1583404,10.876253 17.1583404,6.52620482 C17.1583404,6.52620482 17.1583404,10.876253 21.4090638,10.876253 L21.4090638,6.52620482 C21.4090638,6.52620482 21.4090638,2.1750241 17.1583404,2.1750241 C17.1583404,2.1750241 17.1583404,0 15.0335319,0 L10.7833617,0 C10.7833617,0 4.40782979,0.326168675 4.40782979,6.52620482 L4.40782979,10.876253" id="Fill-368" fill="#BEBEB9"></path>
                        <path d="M22.7372766,27.5233133 L2.94906383,27.5233133 C1.32046809,27.5233133 0,28.8755542 0,30.5426386 L0,47 L25.6863404,47 L25.6863404,30.5426386 C25.6863404,28.8755542 24.3658723,27.5233133 22.7372766,27.5233133" id="Fill-369" fill="#EC5D04"></path>
                        <polyline id="Fill-370" fill="#FFFFFF" points="9.03804255 27.5233133 12.8428936 43.1046627 16.6482979 27.5233133 9.03804255 27.5233133"></polyline>
                        <path d="M12.8428936,27.6173133 L17.743617,30.1258675 L17.743617,26.0255422 L7.9427234,26.0255422 L7.9427234,30.1258675 L12.8428936,27.6173133 Z M18.85,31.9588675 L12.8428936,28.8840482 L6.83634043,31.9588675 L6.83634043,24.893012 L18.85,24.893012 L18.85,31.9588675 L18.85,31.9588675 Z" id="Fill-371" fill="#0A0A08"></path>
                        <polygon id="Fill-372" fill="#0A0A08" points="8.70668085 25.4592771 9.81306383 25.4592771 9.81306383 20.9014096 8.70668085 20.9014096"></polygon>
                        <polygon id="Fill-373" fill="#0A0A08" points="15.8732766 25.4592771 16.9796596 25.4592771 16.9796596 20.9014096 15.8732766 20.9014096"></polygon>
                    </g>
                </g>
            </g>
        </g>
    </g>
</svg>