<?xml version="1.0" encoding="UTF-8"?>
<svg width="59px" height="61px" viewBox="0 0 59 61" version="1.1" xmlns="http://www.w3.org/2000/svg" xmlns:xlink="http://www.w3.org/1999/xlink">
    <!-- Generator: Sketch 43.2 (39069) - http://www.bohemiancoding.com/sketch -->
    <title>11-14_icon</title>
    <desc>Created with Sketch.</desc>
    <defs></defs>
    <g id="Home" stroke="none" stroke-width="1" fill="none" fill-rule="evenodd">
        <g id="VER_Home-02" transform="translate(-621.000000, -765.000000)">
            <g id="Choose-Package" transform="translate(39.000000, 732.000000)">
                <g id="11-14" transform="translate(549.000000, 1.000000)">
                    <g id="11-14_icon" transform="translate(33.000000, 32.000000)">
                        <path d="M35,54 C31.8771598,54 31,51.2044829 31,50 L31,38 C31,37.8145828 31.2172606,36.9391304 32,36 C31.4077814,36.0466649 31,35.4599514 31,35 L31,19 C31,19.3644612 31.0109824,18.0612476 32,17 C31.3772217,16.4036727 31,15.6857143 31,15 L31,4 C31,2.79551715 31.8776373,3.1918912e-14 35,3.1918912e-14 C36.8340437,3.1918912e-14 38.1695994,0.774831218 39,2 C38.9378902,2.27296786 39.0004421,2.41490683 39,3 C39.8241224,2.11839049 40.6826598,1.89381583 42,2 C44.474454,1.89381583 46.8375807,4.2994869 47,7 C46.8375807,7.41436673 46.8299408,7.57380502 47,8 C47.2797418,7.62873346 47.7500752,7.5752633 48,8 C51.8178619,7.5752633 54.7444336,10.5545234 55,14 C54.7444336,15.4339184 54.4206915,16.605401 54,18 C56.3373596,18.7626789 58,21.3088307 58,24 C58,25.9869835 57.3315059,27.6955982 56,29 C57.031161,30.1950851 57.5349191,31.6470429 58,33 C57.5349191,35.8293816 55.9415156,38.2433162 54,39 C53.5349368,39.2854982 53.5349368,39.2976506 54,39 C53.5349368,41.2517418 52.2447431,42.9049419 50,43 C49.8973738,45.5565757 47.9429835,46.2930057 47,46 C45.7231055,49.0603295 43.7099832,50.5152039 41,51 C40.3336104,50.5152039 39.7529755,50.4257629 39,50 C39.1360509,51.8650824 38.099885,54 35,54 L35,54 Z" id="Path" fill="#F8E81C"></path>
                        <path d="M23.1481481,54 C21.3821314,54 20.0956036,53.2251688 19.2962963,52 C19.3557811,51.7270321 19.295547,51.5850932 19.2962963,51 C18.5023874,51.8816095 17.6756623,52.1061842 16.4074074,52 C14.0243695,52.1061842 11.7488063,49.7005131 11.5925926,47 C11.7488063,46.5856333 11.7561631,46.4257089 11.5925926,46 C11.323029,46.3712665 10.8705832,46.4247367 10.6296296,46 C6.95306476,46.4247367 4.13493439,43.4454766 3.88888889,40 C4.13493439,38.5660816 4.44622078,37.394599 4.85185185,36 C2.60103279,35.2373211 1,32.6911693 1,30 C1,28.0125304 1.64372369,26.3044018 2.92592593,25 C1.93293955,23.8044288 1.44784777,22.3529571 1,21 C1.44784777,18.1701323 2.98220917,15.7561977 4.85185185,15 C5.29961447,14.7145018 5.29961447,14.7023494 4.85185185,15 C5.29961447,12.7482582 6.5420012,11.0950581 8.7037037,11 C8.80239097,8.44342425 10.6843632,7.70699433 11.5925926,8 C12.8219856,4.93967054 14.7605136,3.48479611 17.3703704,3 C18.0122378,3.48479611 18.570898,3.57423711 19.2962963,4 C19.164963,2.13491763 20.1627348,3.1918912e-14 23.1481481,3.1918912e-14 C26.1548828,3.1918912e-14 27,2.79551715 27,4 L27,16 C27,16.1854172 26.7907898,17.0603835 26.037037,18 C26.6073285,17.9533351 27,18.5395625 27,19 L27,35 C27,34.6360248 26.9889647,35.9382663 26.037037,37 C26.6367559,37.5963273 27,38.3142857 27,39 L27,50 C27,51.2044829 26.1548828,54 23.1481481,54 L23.1481481,54 Z" id="Path" fill="#46C573"></path>
                        <path d="M6.92644675,29.7633564 C4.43936104,29.7633564 2.41558442,27.7459789 2.41558442,25.2661654 L3.38181818,25.2661654 C3.38181818,27.2146591 4.97175584,28.7999479 6.92644675,28.7999479 L6.92644675,29.7633564" id="Fill-413-Copy" fill="#0A0A08"></path>
                        <path d="M11.8310494,15.3854476 C9.56957922,15.3854476 7.72987013,13.5511178 7.72987013,11.2967419 L8.6961039,11.2967419 C8.6961039,13.0202797 10.1024571,14.4220391 11.8310494,14.4220391 L11.8310494,15.3854476" id="Fill-414-Copy" fill="#0A0A08"></path>
                        <path d="M10.2140571,33.1107193 C8.04486234,33.1107193 6.28051948,31.3515353 6.28051948,29.1886832 C6.28051948,27.0258311 8.04486234,25.2661654 10.2140571,25.2661654 L10.2140571,26.2295739 C8.57774026,26.2295739 7.24675325,27.5571509 7.24675325,29.1886832 C7.24675325,30.8202155 8.57774026,32.1473108 10.2140571,32.1473108 L10.2140571,33.1107193" id="Fill-415-Copy" fill="#0A0A08"></path>
                        <path d="M21.5020831,10.7090627 C21.0324935,10.2408461 20.774026,9.61848421 20.774026,8.95710426 C20.7745091,8.29524261 21.0329766,7.6728807 21.5025662,7.20514586 C21.9716727,6.73741103 22.5953766,6.47969925 23.2591792,6.47969925 C23.9229818,6.47969925 24.5466857,6.73741103 25.0157922,7.20514586 L24.3326649,7.88627569 C23.7596883,7.31545614 22.7596364,7.31449273 22.1856935,7.88627569 C21.8987221,8.17240802 21.7402597,8.55247268 21.7402597,8.95710426 C21.7402597,9.36125414 21.898239,9.7418005 22.1852104,10.0274511 L21.5020831,10.7090627" id="Fill-416-Copy" fill="#0A0A08"></path>
                        <path d="M16.0119429,44.9683514 C14.9611636,44.9683514 13.9731896,44.5603479 13.230639,43.8194867 C12.4876052,43.0786256 12.0779221,42.0935404 12.0779221,41.0458336 C12.0779221,39.9981268 12.4876052,39.0130416 13.230639,38.2721805 L13.9137662,38.9533103 C13.3533506,39.5125689 13.0441558,40.2553569 13.0441558,41.0458336 C13.0441558,41.8363103 13.3533506,42.5790982 13.9137662,43.1383569 C14.4741818,43.6971338 15.2191481,44.0049429 16.012426,44.0049429 C16.8047377,44.0049429 17.550187,43.6971338 18.1110857,43.1378752 L18.794213,43.819005 C18.0511792,44.5598662 17.0632052,44.9683514 16.012426,44.9683514 L16.0119429,44.9683514" id="Fill-417-Copy" fill="#0A0A08"></path>
                        <path d="M12.4571688,45.6571885 L11.5948052,45.2226912 C11.622826,45.1672952 12.2948416,43.8546511 13.4441766,43.0892231 L13.9814026,43.8907789 C13.0470545,44.5121774 12.4629662,45.6456276 12.4571688,45.6571885" id="Fill-418-Copy" fill="#0A0A08"></path>
                        <path d="M21.9359221,7.52499749 C21.1474753,5.67236291 19.3425506,4.97967218 19.3246753,4.97341003 L19.6638234,4.07117794 C19.7536831,4.10441554 21.8769818,4.91994085 22.8253403,7.14878647 L21.9359221,7.52499749" id="Fill-419-Copy" fill="#0A0A08"></path>
                        <path d="M19.7073039,24.1028496 C16.3477091,24.1028496 15.4597403,21.3325684 15.4597403,19.8677058 L16.425974,19.8677058 L15.9428571,19.8677058 L16.425974,19.8662607 C16.4269403,19.9996927 16.4815325,23.1394411 19.7073039,23.1394411 C22.9519169,23.1394411 22.9891169,20.0011378 22.9891169,19.8677058 C22.9881506,19.7352371 22.9335584,16.5954887 19.7073039,16.5954887 L19.7073039,15.6320802 C23.0673818,15.6320802 23.9553506,18.4028431 23.9553506,19.8677058 C23.9553506,21.3325684 23.0673818,24.1028496 19.7073039,24.1028496" id="Fill-420-Copy" fill="#0A0A08"></path>
                        <path d="M23.316187,39.098785 C22.4030961,39.098785 21.518026,38.8059088 20.774026,38.2485769 L21.3542494,37.4783318 C22.0552519,38.0033895 22.9176156,38.2259368 23.7862597,38.1021388 C24.6529714,37.9793043 25.4206442,37.5265023 25.9472416,36.8270677 L26.7197455,37.4055945 C26.0380675,38.3107168 25.0447792,38.8969509 23.9220156,39.0559133 C23.7195896,39.0848155 23.5171636,39.098785 23.316187,39.098785" id="Fill-421-Copy" fill="#0A0A08"></path>
                        <path d="M23.2152156,18.4284928 L22.7064935,17.6091139 C23.8809506,16.8846307 25.1616935,17.107178 25.2162857,17.1168121 L25.0428468,18.0643244 L25.1293247,17.5908091 L25.0452623,18.0648061 C25.0351169,18.063361 24.0655013,17.9034352 23.2152156,18.4284928" id="Fill-422-Copy" fill="#0A0A08"></path>
                        <path d="M56.6870026,29.2816521 L55.7207688,29.2816521 C55.7207688,27.3331584 54.1308312,25.7478697 52.1766234,25.7478697 L52.1766234,24.7844612 C54.663226,24.7844612 56.6870026,26.8018386 56.6870026,29.2816521" id="Fill-424-Copy" fill="#0A0A08"></path>
                        <path d="M50.9635169,42.8425905 L49.9972831,42.8425905 C49.9972831,41.1190526 48.5909299,39.7172932 46.8623377,39.7172932 L46.8623377,38.7538847 C49.1238078,38.7538847 50.9635169,40.5882145 50.9635169,42.8425905" id="Fill-425-Copy" fill="#0A0A08"></path>
                        <path d="M48.7948052,28.775381 L48.7948052,27.8119724 C50.4311221,27.8119724 51.7625922,26.4843955 51.7625922,24.8528632 C51.7625922,23.2213308 50.4311221,21.8942356 48.7948052,21.8942356 L48.7948052,20.9308271 C50.9644831,20.9308271 52.728826,22.690011 52.728826,24.8528632 C52.728826,27.0157153 50.9644831,28.775381 48.7948052,28.775381" id="Fill-426-Copy" fill="#0A0A08"></path>
                        <path d="M35.5747948,47.8002907 C34.9109922,47.8002907 34.2872883,47.5425789 33.8181818,47.0748441 L34.5013091,46.3937143 C35.0747688,46.9645338 36.0748208,46.9654972 36.6482805,46.3937143 C36.9352519,46.107582 37.0937143,45.7275173 37.0937143,45.3228857 C37.0937143,44.9187358 36.9357351,44.5381895 36.6487636,44.2525388 L37.3318909,43.5709273 C37.8014805,44.0391439 38.0599481,44.6615058 38.0599481,45.3228857 C38.0594649,45.9847474 37.8009974,46.6066276 37.3314078,47.0748441 C36.8623013,47.5425789 36.2385974,47.8002907 35.5747948,47.8002907" id="Fill-427-Copy" fill="#0A0A08"></path>
                        <path d="M45.1791584,16.0660957 L44.4960312,15.3849659 C45.0564468,14.8257073 45.3656416,14.0829193 45.3656416,13.2924426 C45.3656416,12.5019659 45.0564468,11.7591779 44.4960312,11.1999193 C43.9356156,10.6411424 43.1906494,10.3333333 42.3973714,10.3333333 C41.6050597,10.3333333 40.8596104,10.6411424 40.2987117,11.200401 L39.6155844,10.5187895 C40.3586182,9.77792832 41.3465922,9.36992481 42.3973714,9.36992481 C43.4486338,9.36992481 44.4361247,9.77792832 45.1791584,10.5187895 C45.9221922,11.2596506 46.3318753,12.2447358 46.3318753,13.2924426 C46.3318753,14.3401494 45.9221922,15.3252346 45.1791584,16.0660957" id="Fill-428-Copy" fill="#0A0A08"></path>
                        <path d="M38.0329539,24.66259 C35.6337955,22.2694832 35.6342786,18.3763494 38.0329539,15.9846877 C39.1953331,14.8257073 40.740824,14.1869674 42.3848708,14.1869674 C44.0294007,14.1869674 45.5748916,14.8257073 46.7367877,15.9846877 L46.0536604,16.6658175 C45.0738994,15.6884396 43.7709331,15.1503759 42.3848708,15.1503759 C40.9988084,15.1503759 39.6963253,15.6884396 38.7165643,16.6658175 C36.6937539,18.6817499 36.6937539,21.9640827 38.7165643,23.9814602 L38.0329539,24.66259" id="Fill-429-Copy" fill="#0A0A08"></path>
                        <path d="M45.4670961,10.9744817 L44.9298701,10.1729258 C45.8637351,9.55152732 46.4483065,8.41759549 46.4541039,8.40651629 L47.3164675,8.84053183 C47.2884468,8.89640952 46.6164312,10.2090536 45.4670961,10.9744817" id="Fill-430-Copy" fill="#0A0A08"></path>
                        <path d="M39.3948,50.3966767 C39.3049403,50.3634391 37.1816416,49.5479138 36.2337662,47.3190682 L37.1231844,46.9428571 C37.9111481,48.7954917 39.7160727,49.4881825 39.7339481,49.4944446 L39.3948,50.3966767" id="Fill-431-Copy" fill="#0A0A08"></path>
                        <path d="M39.5155792,39.0352 C36.1555013,39.0352 35.2675325,36.2649188 35.2675325,34.8000561 C35.2675325,33.3351935 36.1555013,30.5649123 39.5155792,30.5649123 C42.875174,30.5649123 43.7631429,33.3351935 43.7631429,34.8000561 L42.7969091,34.8000561 L43.280026,34.8000561 L42.7969091,34.8015013 C42.7959429,34.6680692 42.7413506,31.5283208 39.5155792,31.5283208 C36.2709662,31.5283208 36.2337662,34.6666241 36.2337662,34.8000561 C36.2347325,34.9325248 36.2893247,38.0717915 39.5155792,38.0717915 L39.5155792,39.0352" id="Fill-432-Copy" fill="#0A0A08"></path>
                        <path d="M33.1413351,17.4188746 L32.3688312,16.8403478 C33.7751844,14.9737437 36.4419896,14.5951242 38.3150338,15.9968836 L37.7348104,16.7676104 C36.2893247,15.6847392 34.2278649,15.976652 33.1413351,17.4188746" id="Fill-433-Copy" fill="#0A0A08"></path>
                        <path d="M34.3587896,37.2148396 C34.0457299,37.2148396 33.8389558,37.1791935 33.8181818,37.1753398 L33.9916208,36.2273459 L33.9051429,36.7013429 L33.9896883,36.2273459 C33.9988675,36.2283093 34.9694494,36.3882351 35.8192519,35.8636591 L36.327974,36.6830381 C35.6095792,37.126206 34.8520519,37.2148396 34.3587896,37.2148396" id="Fill-434-Copy" fill="#0A0A08"></path>
                        <path d="M20,49.9245283 L21,50.9433962 C20.4616526,50.778231 20.5502227,51.0635406 21,51.9622642 C21.2686789,52.4129389 22.3057892,52.9811321 24,52.9811321 C26.9619,52.9811321 27,49.8199205 27,49.9245283 L27,39.7358491 C27,38.5924031 26.7664523,38.0319735 26,37.6981132 L26,36.6792453 L26,36.6792453 C26.9891143,35.8339246 27,34.5738069 27,34.6415094 L27,19.3584906 C27,18.1903365 25.5779317,18.0365216 26,18.3396226 L26,17.3207547 C26.9148936,17.062684 26.9970312,15.8894208 27,15.2830189 L27,4.0754717 C26.9990104,4.18104997 26.9435923,1.01886792 24,1.01886792 C20.3161801,1.01886792 20.2780802,4.18007953 20,4.0754717 L20,5.09433962 L20,5.09433962 C19.6190005,4.77204855 18.7545769,4.49741374 18,4.0754717 C15.8871846,4.49741374 13.5952499,5.14809444 13,8.1509434 L12,9.16981132 L12,9.16981132 C11.956952,8.58102953 9.19643741,8.6276107 9,11.2075472 L9,11.2075472 L8,11.2075472 C6.77733795,11.8106572 5.62691737,13.1377353 5,14.2641509 C5.62691737,14.8180539 5.63236022,14.9223763 5,15.2830189 L6,15.2830189 L5,15.2830189 C3.02325581,16.3333976 1.48193963,18.47322 1,21.3962264 C1.48193963,22.2724966 2.02424542,23.631114 3,24.4528302 L3,24.4528302 L3,25.4716981 C1.70460168,26.5395257 1,28.1271672 1,29.5471698 C1,32.474743 2.7169718,34.8105945 5,35.6603774 L6,35.6603774 L5,36.6792453 C4.76744186,37.381778 4.37357744,38.5448515 4,39.7358491 C4.37357744,42.880782 6.96239485,45.4194557 10,44.8301887 C10.7862444,45.4194557 11.4294904,45.3102811 12,44.8301887 L13,44.8301887 L13,45.8490566 C12.6115784,46.0206439 12.567046,46.3704879 13,46.8679245 C12.567046,49.1245995 14.5719941,51.090713 17,50.9433962 C17.9698169,51.090713 18.8668976,50.8073442 20,49.9245283 L20,49.9245283 Z M24,54 C21.9499876,54 20.5644962,53.2251688 20,51.9622642 C19.7677643,51.7270321 19.7028968,51.5850932 20,51.9622642 C18.8487249,51.8816095 17.9584055,52.1061842 17,51.9622642 C14.0262441,52.1061842 11.5756375,49.7005131 12,46.8679245 C11.5756375,46.5856333 11.5835603,46.4257089 12,45.8490566 C11.1171082,46.3712665 10.6298589,46.4247367 10,45.8490566 C6.41099282,46.4247367 3.37608319,43.4454766 3,39.7358491 C3.37608319,38.5660816 3.71131468,37.394599 4,36.6792453 C1.72418916,35.2373211 0,32.6911693 0,29.5471698 C0,28.0125304 0.693240901,26.3044018 2,24.4528302 C1.00470413,23.8044288 0.482297598,22.3529571 0,21.3962264 C0.482297598,18.1701323 2.1346868,15.7561977 4,14.2641509 C4.63035405,14.7145018 4.63035405,14.7023494 4,14.2641509 C4.63035405,12.7482582 5.96830899,11.0950581 8,11.2075472 C8.40257489,8.44342425 10.4293142,7.70699433 12,8.1509434 C12.7313692,4.93967054 14.8190146,3.48479611 18,3.05660377 C18.3208715,3.48479611 18.9225056,3.57423711 19,4.0754717 C19.5622679,2.13491763 20.6367913,3.1918912e-14 24,3.1918912e-14 C27.0898737,3.1918912e-14 28,2.79551715 28,4.0754717 L28,15.2830189 C28,16.1854172 27.7746967,17.0603835 27,17.3207547 C27.5771231,17.9533351 28,18.5395625 28,19.3584906 L28,34.6415094 C28,34.6360248 27.9881159,35.9382663 27,36.6792453 C27.6088141,37.5963273 28,38.3142857 28,39.7358491 L28,49.9245283 C28,51.2044829 27.0898737,54 24,54 L24,54 Z" id="Fill-412-Copy" fill="#0A0A08"></path>
                        <path d="M35,1 C32.0366353,1 32,4.16350733 32,4 L32,15 C32,15.3991783 32.2240936,15.9605005 33,17 L33,17 L33,17 C32.0099914,18.1591745 32,19.4206929 32,19 L32,35 C32,35.7820712 33.2808069,35.9597908 33,36 L33,37 C32.0385384,36.9445326 32,38.2070221 32,38 L32,50 C32.0009516,49.8355215 32.0542392,53 35,53 C38.4263964,53 38.4630317,49.8364927 38,50 L38,49 L39,49 C39.0967742,49.2440938 39.9284423,49.518928 41,50 C42.685127,49.518928 44.8889523,48.8677748 46,46 L46,45 L46,45 C46.4642687,45.4318611 49.1186602,45.3857316 50,43 L50,43 L50,42 C51.4447616,42.2003735 52.5509563,40.8723317 53,39 C52.5509563,39.1907928 52.5457227,39.0863946 53,39 L52,39 L53,38 C55.0545247,37.6743487 56.5365877,35.5324867 57,33 C56.5365877,31.730451 56.0151299,30.370847 55,29 L55,29 L55,29 C56.3224855,27.4608087 57,25.8720142 57,24 C57,21.5212812 55.3490342,19.1837333 53,18 L52,18 L53,18 C53.3773908,16.6106826 53.7561138,15.4467644 54,14 C53.7561138,11.1076851 51.2668189,8.5671678 48,9 C47.5904463,8.5671678 46.9724046,8.6764217 46,9 L46,9 L46,8 C45.8348083,7.965543 45.8776287,7.61544495 46,7 C45.8776287,4.85933327 43.9497574,2.89179195 42,3 C40.6825578,2.89179195 39.8199638,3.17536651 39,4 L39,4 L38,3 C38.2865163,3.20401531 38.2013512,2.91849846 38,3 C37.5105148,1.56860585 36.5132743,1 35,1 Z M35,54 C31.8771598,54 31,51.2044829 31,50 L31,38 C31,37.8145828 31.2172606,36.9391304 32,36 C31.4077814,36.0466649 31,35.4599514 31,35 L31,19 C31,19.3644612 31.0109824,18.0612476 32,17 C31.3772217,16.4036727 31,15.6857143 31,15 L31,4 C31,2.79551715 31.8776373,3.1918912e-14 35,3.1918912e-14 C36.8340437,3.1918912e-14 38.1695994,0.774831218 39,2 C38.9378902,2.27296786 39.0004421,2.41490683 39,3 C39.8241224,2.11839049 40.6826598,1.89381583 42,2 C44.474454,1.89381583 46.8375807,4.2994869 47,7 C46.8375807,7.41436673 46.8299408,7.57380502 47,8 C47.2797418,7.62873346 47.7500752,7.5752633 48,8 C51.8178619,7.5752633 54.7444336,10.5545234 55,14 C54.7444336,15.4339184 54.4206915,16.605401 54,18 C56.3373596,18.7626789 58,21.3088307 58,24 C58,25.9869835 57.3315059,27.6955982 56,29 C57.031161,30.1950851 57.5349191,31.6470429 58,33 C57.5349191,35.8293816 55.9415156,38.2433162 54,39 C53.5349368,39.2854982 53.5349368,39.2976506 54,39 C53.5349368,41.2517418 52.2447431,42.9049419 50,43 C49.8973738,45.5565757 47.9429835,46.2930057 47,46 C45.7231055,49.0603295 43.7099832,50.5152039 41,51 C40.3336104,50.5152039 39.7529755,50.4257629 39,50 C39.1360509,51.8650824 38.099885,54 35,54 L35,54 Z" id="Fill-423-Copy" fill="#0A0A08"></path>
                        <path d="M0,60.9122807 L0,58.5037594 L0.966233766,58.5037594 L0.966233766,60.9122807 L0,60.9122807 Z M2.41558442,60.9122807 L2.41558442,57.6607769 L3.38181818,57.6607769 L3.38181818,60.9122807 L2.41558442,60.9122807 Z M4.83116883,60.9122807 L4.83116883,56.0952381 L5.7974026,56.0952381 L5.7974026,60.9122807 L4.83116883,60.9122807 Z M7.24675325,60.9122807 L7.24675325,57.6607769 L8.21298701,57.6607769 L8.21298701,60.9122807 L7.24675325,60.9122807 Z M9.66233766,60.9122807 L9.66233766,58.5037594 L10.6285714,58.5037594 L10.6285714,60.9122807 L9.66233766,60.9122807 Z M12.0779221,60.9122807 L12.0779221,59.2865288 L13.0441558,59.2865288 L13.0441558,60.9122807 L12.0779221,60.9122807 Z M14.4935065,60.9122807 L14.4935065,59.2865288 L15.4597403,59.2865288 L15.4597403,60.9122807 L14.4935065,60.9122807 Z M16.9090909,60.9122807 L16.9090909,58.5037594 L17.8753247,58.5037594 L17.8753247,60.9122807 L16.9090909,60.9122807 Z M19.3246753,60.9122807 L19.3246753,57.6607769 L20.2909091,57.6607769 L20.2909091,60.9122807 L19.3246753,60.9122807 Z M21.7402597,60.9122807 L21.7402597,56.0952381 L22.7064935,56.0952381 L22.7064935,60.9122807 L21.7402597,60.9122807 Z M24.1558442,60.9122807 L24.1558442,57.6607769 L25.1220779,57.6607769 L25.1220779,60.9122807 L24.1558442,60.9122807 Z M26.5714286,60.9122807 L26.5714286,58.5037594 L27.5376623,58.5037594 L27.5376623,60.9122807 L26.5714286,60.9122807 Z M28.987013,60.9122807 L28.987013,59.2865288 L29.9532468,59.2865288 L29.9532468,60.9122807 L28.987013,60.9122807 Z M31.4025974,60.9122807 L31.4025974,59.2865288 L32.3688312,59.2865288 L32.3688312,60.9122807 L31.4025974,60.9122807 Z M33.8181818,60.9122807 L33.8181818,57.6607769 L34.7844156,57.6607769 L34.7844156,60.9122807 L33.8181818,60.9122807 Z M36.2337662,60.9122807 L36.2337662,58.5037594 L37.2,58.5037594 L37.2,60.9122807 L36.2337662,60.9122807 Z M38.6493506,60.9122807 L38.6493506,59.2865288 L39.6155844,59.2865288 L39.6155844,60.9122807 L38.6493506,60.9122807 Z M41.0649351,60.9122807 L41.0649351,59.2865288 L42.0311688,59.2865288 L42.0311688,60.9122807 L41.0649351,60.9122807 Z M48.3116883,60.9122807 L48.3116883,59.2865288 L49.2779221,59.2865288 L49.2779221,60.9122807 L48.3116883,60.9122807 Z M50.7272727,60.9122807 L50.7272727,58.0220551 L51.6935065,58.0220551 L51.6935065,60.9122807 L50.7272727,60.9122807 Z M53.1428571,60.9122807 L53.1428571,59.2865288 L54.1090909,59.2865288 L54.1090909,60.9122807 L53.1428571,60.9122807 Z M55.5584416,60.9122807 L55.5584416,59.2865288 L56.5246753,59.2865288 L56.5246753,60.9122807 L55.5584416,60.9122807 Z M57.974026,60.9122807 L57.974026,60.0996456 L58.9402597,60.0996456 L58.9402597,60.9122807 L57.974026,60.9122807 Z M43.4805195,60.9122807 L43.4805195,58.0220551 L44.4467532,58.0220551 L44.4467532,60.9122807 L43.4805195,60.9122807 Z M45.8961039,60.9122807 L45.8961039,56.0952381 L46.8623377,56.0952381 L46.8623377,60.9122807 L45.8961039,60.9122807 Z" id="Combined-Shape" fill="#C1C1C1"></path>
                        <g id="Group-3" transform="translate(16.909091, 14.705263)">
                            <ellipse id="Oval-2" fill="#FFFFFF" cx="12.561039" cy="12.5243108" rx="12.561039" ry="12.5243108"></ellipse>
                            <path d="M12.561039,25.0486216 C5.6237687,25.0486216 0,19.4412966 0,12.5243108 C0,5.60732493 5.6237687,0 12.561039,0 C19.4983092,0 25.1220779,5.60732493 25.1220779,12.5243108 C25.1220779,19.4412966 19.4983092,25.0486216 12.561039,25.0486216 Z M12.561039,24.085213 C18.964673,24.085213 24.1558442,18.9092208 24.1558442,12.5243108 C24.1558442,6.13940077 18.964673,0.963408521 12.561039,0.963408521 C6.15740488,0.963408521 0.966233766,6.13940077 0.966233766,12.5243108 C0.966233766,18.9092208 6.15740488,24.085213 12.561039,24.085213 Z" id="Oval" fill="#000000" fill-rule="nonzero"></path>
                            <polyline id="Fill-318-Copy" fill="#FB5E5E" points="15.9259531 5.29874687 11.4268501 5.29874687 8.21298701 14.9116371 12.8875582 14.9116371 11.4268501 21.3203151 17.8540675 11.7074249 13.3549644 11.7074249 15.9259531 5.29874687"></polyline>
                        </g>
                    </g>
                </g>
            </g>
        </g>
    </g>
</svg>