<?xml version="1.0" encoding="UTF-8"?>
<svg width="61px" height="60px" viewBox="0 0 61 60" version="1.1" xmlns="http://www.w3.org/2000/svg" xmlns:xlink="http://www.w3.org/1999/xlink">
    <!-- Generator: Sketch 43.2 (39069) - http://www.bohemiancoding.com/sketch -->
    <title>11-14_icon</title>
    <desc>Created with Sketch.</desc>
    <defs></defs>
    <g id="Home" stroke="none" stroke-width="1" fill="none" fill-rule="evenodd">
        <g id="VER_Home-02" transform="translate(-620.000000, -765.000000)">
            <g id="Choose-Package" transform="translate(39.000000, 732.000000)">
                <g id="11-14" transform="translate(549.000000, 1.000000)">
                    <g id="11-14_icon" transform="translate(32.000000, 32.000000)">
                        <polygon id="Fill-246" fill="#46BCD1" points="28.7142857 60 30.8571429 60 30.8571429 53.5714286 28.7142857 53.5714286"></polygon>
                        <polygon id="Fill-247" fill="#BEBEB9" points="28.7142857 51.4285714 30.8571429 51.4285714 30.8571429 34.2857143 28.7142857 34.2857143"></polygon>
                        <path d="M28.2857143,53.1428571 L31.7142857,53.1428571 L31.7142857,51.8571429 L28.2857143,51.8571429 L28.2857143,53.1428571 Z M27.4285714,54 L32.5714286,54 L32.5714286,51 L27.4285714,51 L27.4285714,54 Z" id="Fill-248" fill="#0A0A08"></path>
                        <path d="M7.20257143,38.6301429 C6.92914286,38.3892857 6.61542857,38.2122857 6.27085714,38.1038571 L6.52757143,37.2857143 C6.98785714,37.4305714 7.40528571,37.6667143 7.76914286,37.9872857 L7.20257143,38.6301429 Z M3.40157143,39.0634286 L2.70514286,38.5637143 C2.98714286,38.1711429 3.34071429,37.8475714 3.75685714,37.6024286 L4.19185714,38.3404286 C3.88371429,38.5225714 3.61071429,38.7724286 3.40157143,39.0634286 Z M8.63571429,41.9575714 L7.85314286,41.6082857 C7.99971429,41.2791429 8.07428571,40.9277143 8.07428571,40.5625714 L8.7,40.5364286 L8.931,40.548 C8.93142857,41.0485714 8.832,41.5178571 8.63571429,41.9575714 Z M2.72957143,42.594 C2.44242857,42.2035714 2.24485714,41.7664286 2.14285714,41.295 L2.98071429,41.1132857 C3.057,41.466 3.20485714,41.7934286 3.42,42.087 L2.72957143,42.594 Z M5.49814286,43.9962857 C5.38028571,43.9962857 5.26414286,43.9902857 5.15014286,43.9791429 L5.23585714,43.1258571 C5.59071429,43.1618571 5.96014286,43.1232857 6.3,43.0118571 L6.56614286,43.8261429 C6.22328571,43.9384286 5.86371429,43.9958571 5.49814286,43.9962857 L5.49814286,43.9962857 Z" id="Fill-504" fill="#0A0A08"></path>
                        <path d="M54.3527143,15.3792857 L53.9215714,14.6387143 C54.3411429,14.3948571 54.7958571,14.2277143 55.2737143,14.1428571 L55.4241429,14.9862857 C55.0452857,15.054 54.6852857,15.186 54.3527143,15.3792857 Z M58.5197143,16.1022857 C58.2711429,15.8078571 57.9754286,15.5614286 57.642,15.3702857 L58.0688571,14.6271429 C58.4892857,14.868 58.8608571,15.1782857 59.1741429,15.549 L58.5197143,16.1022857 Z M52.7061429,18.3102857 L52.3212857,18.2335714 L51.8571429,18.2335714 L51.858,18.2262857 L51.8575714,18.2262857 C51.8575714,17.742 51.9402857,17.2675714 52.1035714,16.8158571 L52.9097143,17.1072857 C52.7802857,17.4651429 52.7147143,17.8418571 52.7147143,18.2262857 L52.7061429,18.3102857 Z M59.9044286,19.6452857 L59.0991429,19.3521429 C59.2298571,18.9925714 59.2962857,18.6137143 59.2962857,18.2262857 L60.1534286,18.2117143 L60.1534286,18.2262857 C60.1534286,18.714 60.0698571,19.1914286 59.9044286,19.6452857 Z M53.9357143,21.822 C53.5161429,21.5798571 53.145,21.2695714 52.8321429,20.898 L53.4878571,20.3455714 C53.7364286,20.6404286 54.0308571,20.8872857 54.3642857,21.0792857 L53.9357143,21.822 Z M56.7287143,22.3114286 L56.5808571,21.4671429 C56.9592857,21.4002857 57.3201429,21.2691429 57.6522857,21.0758571 L58.0825714,21.8177143 C57.663,22.0607143 57.2074286,22.227 56.7287143,22.3114286 L56.7287143,22.3114286 Z" id="Fill-505" fill="#0A0A08"></path>
                        <path d="M36.4285714,30 C36.4285714,33.5498571 33.5498571,36.4285714 30,36.4285714 C26.4501429,36.4285714 23.5714286,33.5498571 23.5714286,30 C23.5714286,26.4501429 26.4501429,23.5714286 30,23.5714286 C33.5498571,23.5714286 36.4285714,26.4501429 36.4285714,30" id="Fill-543" fill="#BEBEB9"></path>
                        <path d="M33.996,30.2837143 C33.996,32.5705714 32.142,34.4245714 29.8551429,34.4245714 C27.5682857,34.4245714 25.7142857,32.5705714 25.7142857,30.2837143 C25.7142857,27.9968571 27.5682857,26.1428571 29.8551429,26.1428571 C32.142,26.1428571 33.996,27.9968571 33.996,30.2837143" id="Fill-544" fill="#FFFFFF"></path>
                        <path d="M31.4605714,30.3017143 C31.4605714,31.1785714 30.75,31.8891429 29.8731429,31.8891429 C28.9962857,31.8891429 28.2857143,31.1785714 28.2857143,30.3017143 C28.2857143,29.4248571 28.9962857,28.7142857 29.8731429,28.7142857 C30.75,28.7142857 31.4605714,29.4248571 31.4605714,30.3017143" id="Fill-545" fill="#2BB3BC"></path>
                        <polygon id="Fill-546" fill="#46BCD1" points="28.7142857 6.42857143 30.8571429 6.42857143 30.8571429 0 28.7142857 0"></polygon>
                        <polygon id="Fill-547" fill="#BEBEB9" points="28.7142857 25.7142857 30.8571429 25.7142857 30.8571429 8.57142857 28.7142857 8.57142857"></polygon>
                        <path d="M28.2857143,8.14285714 L31.7142857,8.14285714 L31.7142857,6.85714286 L28.2857143,6.85714286 L28.2857143,8.14285714 Z M27.4285714,9 L32.5714286,9 L32.5714286,6 L27.4285714,6 L27.4285714,9 Z" id="Fill-548" fill="#0A0A08"></path>
                        <polygon id="Fill-549" fill="#46BCD1" points="53.5714286 31.2857143 60 31.2857143 60 29.1428571 53.5714286 29.1428571"></polygon>
                        <polygon id="Fill-550" fill="#BEBEB9" points="34.2857143 31.2857143 51.4285714 31.2857143 51.4285714 29.1428571 34.2857143 29.1428571"></polygon>
                        <path d="M51.8571429,31.7142857 L53.1428571,31.7142857 L53.1428571,28.2857143 L51.8571429,28.2857143 L51.8571429,31.7142857 Z M51,32.5714286 L54,32.5714286 L54,27.4285714 L51,27.4285714 L51,32.5714286 Z" id="Fill-551" fill="#0A0A08"></path>
                        <polygon id="Fill-552" fill="#46BCD1" points="0 31.2857143 6.42857143 31.2857143 6.42857143 29.1428571 0 29.1428571"></polygon>
                        <polygon id="Fill-553" fill="#BEBEB9" points="8.57142857 31.2857143 25.7142857 31.2857143 25.7142857 29.1428571 8.57142857 29.1428571"></polygon>
                        <path d="M6.85714286,31.7142857 L8.14285714,31.7142857 L8.14285714,28.2857143 L6.85714286,28.2857143 L6.85714286,31.7142857 Z M6,32.5714286 L9,32.5714286 L9,27.4285714 L6,27.4285714 L6,32.5714286 Z" id="Fill-554" fill="#0A0A08"></path>
                        <polyline id="Fill-555" fill="#46BCD1" points="12.6891429 46.2857143 14.2041429 47.8007143 9.65871429 52.347 8.14285714 50.8311429 12.6891429 46.2857143"></polyline>
                        <polyline id="Fill-556" fill="#BEBEB9" points="26.2645714 32.5714286 27.7795714 34.0864286 15.6578571 46.2081429 14.1428571 44.6931429 26.2645714 32.5714286"></polyline>
                        <path d="M12.3548571,45.4067143 L14.7797143,47.8315714 L15.6887143,46.9221429 L13.2642857,44.4977143 L12.3548571,45.4067143 Z M14.7797143,49.0435714 L11.1428571,45.4067143 L13.2642857,43.2857143 L16.9007143,46.9221429 L14.7797143,49.0435714 L14.7797143,49.0435714 Z" id="Fill-557" fill="#0A0A08"></path>
                        <polyline id="Fill-558" fill="#46BCD1" points="47.3721429 14.2037143 45.8571429 12.6887143 50.4025714 8.14285714 51.9184286 9.65828571 47.3721429 14.2037143"></polyline>
                        <polyline id="Fill-559" fill="#BEBEB9" points="33.6578571 27.7795714 32.1428571 26.2645714 44.2641429 14.1428571 45.7795714 15.6582857 33.6578571 27.7795714"></polyline>
                        <path d="M44.0691429,13.6928571 L46.4935714,16.1172857 L47.403,15.2082857 L44.9781429,12.7834286 L44.0691429,13.6928571 Z M46.4935714,17.3292857 L42.8571429,13.6928571 L44.9781429,11.5714286 L48.615,15.2082857 L46.4935714,17.3292857 L46.4935714,17.3292857 Z" id="Fill-560" fill="#0A0A08"></path>
                        <polyline id="Fill-561" fill="#46BCD1" points="45.8571429 47.8007143 47.3721429 46.2857143 51.9184286 50.8311429 50.4025714 52.347 45.8571429 47.8007143"></polyline>
                        <polyline id="Fill-562" fill="#BEBEB9" points="32.1428571 34.0864286 33.6578571 32.5714286 45.7795714 44.6931429 44.2645714 46.2081429 32.1428571 34.0864286"></polyline>
                        <path d="M44.0691429,46.9221429 L44.9781429,47.8315714 L47.403,45.4067143 L46.4935714,44.4977143 L44.0691429,46.9221429 Z M44.9781429,49.0435714 L42.8571429,46.9221429 L46.4935714,43.2857143 L48.615,45.4067143 L44.9781429,49.0435714 L44.9781429,49.0435714 Z" id="Fill-563" fill="#0A0A08"></path>
                        <polyline id="Fill-564" fill="#46BCD1" points="14.2041429 12.6887143 12.6891429 14.2037143 8.14285714 9.65828571 9.65871429 8.14285714 14.2041429 12.6887143"></polyline>
                        <polyline id="Fill-565" fill="#BEBEB9" points="27.7795714 26.2645714 26.2645714 27.7795714 14.1428571 15.6578571 15.6578571 14.1428571 27.7795714 26.2645714"></polyline>
                        <path d="M12.3548571,15.2082857 L13.2642857,16.1172857 L15.6887143,13.6928571 L14.7797143,12.7834286 L12.3548571,15.2082857 Z M13.2642857,17.3292857 L11.1428571,15.2082857 L14.7797143,11.5714286 L16.9007143,13.6928571 L13.2642857,17.3292857 L13.2642857,17.3292857 Z" id="Fill-566" fill="#0A0A08"></path>
                        <path d="M30,11.1428571 C19.602,11.1428571 11.1428571,19.602 11.1428571,30 C11.1428571,40.398 19.602,48.8571429 30,48.8571429 C40.398,48.8571429 48.8571429,40.398 48.8571429,30 C48.8571429,19.602 40.398,11.1428571 30,11.1428571 Z M30,49.7142857 C19.1297143,49.7142857 10.2857143,40.8702857 10.2857143,30 C10.2857143,19.1297143 19.1297143,10.2857143 30,10.2857143 C40.8702857,10.2857143 49.7142857,19.1297143 49.7142857,30 C49.7142857,40.8702857 40.8702857,49.7142857 30,49.7142857 L30,49.7142857 Z" id="Fill-567" fill="#0A0A08"></path>
                        <path d="M30,13.2857143 C20.7835714,13.2857143 13.2857143,20.7835714 13.2857143,30 C13.2857143,39.2164286 20.7835714,46.7142857 30,46.7142857 C39.2164286,46.7142857 46.7142857,39.2164286 46.7142857,30 C46.7142857,20.7835714 39.2164286,13.2857143 30,13.2857143 Z M30,47.5714286 C20.3112857,47.5714286 12.4285714,39.6887143 12.4285714,30 C12.4285714,20.3112857 20.3112857,12.4285714 30,12.4285714 C39.6887143,12.4285714 47.5714286,20.3112857 47.5714286,30 C47.5714286,39.6887143 39.6887143,47.5714286 30,47.5714286 L30,47.5714286 Z" id="Fill-568" fill="#0A0A08"></path>
                        <path d="M17.0001429,2.14285714 C15.6608571,2.14285714 14.5714286,3.23228571 14.5714286,4.57157143 C14.5714286,5.91085714 15.6608571,7.00028571 17.0001429,7.00028571 C18.3394286,7.00028571 19.4288571,5.91085714 19.4288571,4.57157143 C19.4288571,3.23228571 18.3394286,2.14285714 17.0001429,2.14285714 Z M17.0001429,7.85742857 C15.1881429,7.85742857 13.7142857,6.38357143 13.7142857,4.57157143 C13.7142857,2.75957143 15.1881429,1.28571429 17.0001429,1.28571429 C18.8121429,1.28571429 20.286,2.75957143 20.286,4.57157143 C20.286,6.38357143 18.8121429,7.85742857 17.0001429,7.85742857 L17.0001429,7.85742857 Z" id="Fill-569" fill="#BEBEB9"></path>
                        <polygon id="Fill-570" fill="#BEBEB9" points="12.8571429 4.71428571 14.2855714 4.71428571 14.2855714 3.85714286 12.8571429 3.85714286"></polygon>
                        <polygon id="Fill-571" fill="#BEBEB9" points="20.1428571 4.71428571 21.5712857 4.71428571 21.5712857 3.85714286 20.1428571 3.85714286"></polygon>
                        <polygon id="Fill-572" fill="#BEBEB9" points="16.7142857 1.42842857 17.5714286 1.42842857 17.5714286 0 16.7142857 0"></polygon>
                        <polygon id="Fill-573" fill="#BEBEB9" points="16.7142857 8.71414286 17.5714286 8.71414286 17.5714286 7.28571429 16.7142857 7.28571429"></polygon>
                        <polyline id="Fill-574" fill="#BEBEB9" points="14.7244286 2.90185714 13.7142857 1.89171429 14.3202857 1.28571429 15.3304286 2.29585714 14.7244286 2.90185714"></polyline>
                        <polyline id="Fill-575" fill="#BEBEB9" points="19.8672857 7.61614286 18.8571429 6.606 19.4631429 6 20.4732857 7.01014286 19.8672857 7.61614286"></polyline>
                        <polyline id="Fill-576" fill="#BEBEB9" points="19.4631429 2.90185714 18.8571429 2.29585714 19.8672857 1.28571429 20.4732857 1.89171429 19.4631429 2.90185714"></polyline>
                        <polyline id="Fill-577" fill="#BEBEB9" points="14.3202857 7.61614286 13.7142857 7.01014286 14.7244286 6 15.3304286 6.606 14.3202857 7.61614286"></polyline>
                        <path d="M17.0001429,53.5714286 C15.6608571,53.5714286 14.5714286,54.6608571 14.5714286,55.9997143 C14.5714286,57.339 15.6608571,58.4284286 17.0001429,58.4284286 C18.3394286,58.4284286 19.4288571,57.339 19.4288571,55.9997143 C19.4288571,54.6608571 18.3394286,53.5714286 17.0001429,53.5714286 Z M17.0001429,59.2855714 C15.1885714,59.2855714 13.7142857,57.8117143 13.7142857,55.9997143 C13.7142857,54.1877143 15.1885714,52.7142857 17.0001429,52.7142857 C18.8121429,52.7142857 20.286,54.1877143 20.286,55.9997143 C20.286,57.8117143 18.8121429,59.2855714 17.0001429,59.2855714 L17.0001429,59.2855714 Z" id="Fill-578" fill="#2BB3BC"></path>
                        <polygon id="Fill-579" fill="#2BB3BC" points="12.8571429 56.1428571 14.2855714 56.1428571 14.2855714 55.2857143 12.8571429 55.2857143"></polygon>
                        <polygon id="Fill-580" fill="#2BB3BC" points="20.1428571 56.1428571 21.5712857 56.1428571 21.5712857 55.2857143 20.1428571 55.2857143"></polygon>
                        <polygon id="Fill-581" fill="#2BB3BC" points="16.7142857 52.8574286 17.5714286 52.8574286 17.5714286 51.4285714 16.7142857 51.4285714"></polygon>
                        <polyline id="Fill-583" fill="#2BB3BC" points="14.7244286 54.33 13.7142857 53.3202857 14.3202857 52.7142857 15.3304286 53.724 14.7244286 54.33"></polyline>
                        <polyline id="Fill-585" fill="#2BB3BC" points="19.4631429 54.33 18.8571429 53.724 19.8677143 52.7142857 20.4737143 53.3202857 19.4631429 54.33"></polyline>
                        <path d="M54.4285714,36.8571429 C53.4831429,36.8571429 52.7142857,37.626 52.7142857,38.5714286 C52.7142857,39.5168571 53.4831429,40.2857143 54.4285714,40.2857143 C55.374,40.2857143 56.1428571,39.5168571 56.1428571,38.5714286 C56.1428571,37.626 55.374,36.8571429 54.4285714,36.8571429 Z M54.4285714,41.1428571 C53.0104286,41.1428571 51.8571429,39.9895714 51.8571429,38.5714286 C51.8571429,37.1532857 53.0104286,36 54.4285714,36 C55.8467143,36 57,37.1532857 57,38.5714286 C57,39.9895714 55.8467143,41.1428571 54.4285714,41.1428571 L54.4285714,41.1428571 Z" id="Fill-587" fill="#E3E4E1"></path>
                        <polygon id="Fill-588" fill="#E3E4E1" points="51.4285714 39 52.5 39 52.5 38.1428571 51.4285714 38.1428571"></polygon>
                        <polygon id="Fill-589" fill="#E3E4E1" points="56.5714286 39 57.6428571 39 57.6428571 38.1428571 56.5714286 38.1428571"></polygon>
                        <polygon id="Fill-590" fill="#E3E4E1" points="54 36.6428571 54.8571429 36.6428571 54.8571429 35.5714286 54 35.5714286"></polygon>
                        <polygon id="Fill-591" fill="#E3E4E1" points="54 41.7857143 54.8571429 41.7857143 54.8571429 40.7142857 54 40.7142857"></polygon>
                        <polyline id="Fill-592" fill="#E3E4E1" points="52.6152857 37.3637143 51.8571429 36.606 52.4631429 36 53.2212857 36.7577143 52.6152857 37.3637143"></polyline>
                        <polyline id="Fill-593" fill="#E3E4E1" points="56.4724286 41.2208571 55.7142857 40.4631429 56.3202857 39.8571429 57.0784286 40.6148571 56.4724286 41.2208571"></polyline>
                        <polyline id="Fill-594" fill="#E3E4E1" points="56.3202857 37.3637143 55.7142857 36.7577143 56.4724286 36 57.0784286 36.606 56.3202857 37.3637143"></polyline>
                        <polyline id="Fill-595" fill="#E3E4E1" points="52.4631429 41.2208571 51.8571429 40.6148571 52.6152857 39.8571429 53.2212857 40.4631429 52.4631429 41.2208571"></polyline>
                        <path d="M6.42857143,18.2142857 C6.42857143,18.8061429 5.949,19.2857143 5.35714286,19.2857143 C4.76528571,19.2857143 4.28571429,18.8061429 4.28571429,18.2142857 C4.28571429,17.6224286 4.76528571,17.1428571 5.35714286,17.1428571 C5.949,17.1428571 6.42857143,17.6224286 6.42857143,18.2142857" id="Fill-596" fill="#E3E4E1"></path>
                        <path d="M44.994,4.28271429 C44.994,5.46471429 44.0361429,6.42257143 42.8541429,6.42257143 C41.6721429,6.42257143 40.7142857,5.46471429 40.7142857,4.28271429 C40.7142857,3.10071429 41.6721429,2.14285714 42.8541429,2.14285714 C44.0361429,2.14285714 44.994,3.10071429 44.994,4.28271429" id="Fill-599" fill="#E3E4E1"></path>
                        <path d="M45.8588571,54.6428571 C45.8588571,56.4188571 44.4192857,57.8571429 42.6437143,57.8571429 C40.8677143,57.8571429 39.4285714,56.4188571 39.4285714,54.6428571 C39.4285714,52.8672857 40.8677143,51.4285714 42.6437143,51.4285714 C44.4192857,51.4285714 45.8588571,52.8672857 45.8588571,54.6428571" id="Fill-601" fill="#E3E4E1"></path>
                    </g>
                </g>
            </g>
        </g>
    </g>
</svg>