<?xml version="1.0" encoding="UTF-8"?>
<svg width="56px" height="62px" viewBox="0 0 56 62" version="1.1" xmlns="http://www.w3.org/2000/svg" xmlns:xlink="http://www.w3.org/1999/xlink">
    <!-- Generator: Sketch 43.2 (39069) - http://www.bohemiancoding.com/sketch -->
    <title>14-17_icon</title>
    <desc>Created with Sketch.</desc>
    <defs></defs>
    <g id="Home" stroke="none" stroke-width="1" fill="none" fill-rule="evenodd">
        <g id="VER_Home-02" transform="translate(-756.000000, -764.000000)">
            <g id="Choose-Package" transform="translate(39.000000, 732.000000)">
                <g id="14-17" transform="translate(683.000000, 1.000000)">
                    <g id="14-17_icon" transform="translate(34.000000, 31.000000)">
                        <path d="M22,52 L51,52 L55,48 L51,44 L22,44 L22,52 Z M51,53 L21,53 L21,43 L51,43 L56,48 L51,53 L51,53 Z" id="Fill-239" fill="#46C573"></path>
                        <path d="M5,18.9 L34,18.9 L34,10.1 L5,10.1 L1,14.5 L5,18.9 Z M35,20 L5,20 L0,14.5 L5,9 L35,9 L35,20 L35,20 Z" id="Fill-240" fill="#BEBEB9"></path>
                        <polyline id="Fill-641" fill="#46BCD1" points="37.4265413 31.6446176 36.7844037 31 40.0963624 27.67525 36.7844037 24.3505 37.4265413 23.7058824 41.3810917 27.67525 37.4265413 31.6446176"></polyline>
                        <polyline id="Fill-642" fill="#46BCD1" points="41.0595688 31.6446176 40.4174312 31 43.7293899 27.67525 40.4174312 24.3505 41.0595688 23.7058824 45.0141193 27.67525 41.0595688 31.6446176"></polyline>
                        <polyline id="Fill-643" fill="#46BCD1" points="44.6925963 31.6446176 44.0504587 31 47.3624174 27.67525 44.0504587 24.3505 44.6925963 23.7058824 48.6471468 27.67525 44.6925963 31.6446176"></polyline>
                        <polyline id="Fill-644" fill="#46BCD1" points="48.3256239 31.6446176 47.6834862 31 50.995445 27.67525 47.6834862 24.3505 48.3256239 23.7058824 52.2801743 27.67525 48.3256239 31.6446176"></polyline>
                        <polyline id="Fill-652" fill="#2BB3BC" points="16.8531789 47.1446176 12.8990826 43.17525 16.8531789 39.2058824 17.4953165 39.8505 14.1833578 43.17525 17.4953165 46.5 16.8531789 47.1446176"></polyline>
                        <polyline id="Fill-653" fill="#2BB3BC" points="13.2201514 47.1446176 9.26605505 43.17525 13.2201514 39.2058824 13.862289 39.8505 10.5503303 43.17525 13.862289 46.5 13.2201514 47.1446176"></polyline>
                        <polyline id="Fill-654" fill="#2BB3BC" points="9.58712385 47.1446176 5.63302752 43.17525 9.58712385 39.2058824 10.2292615 39.8505 6.91730275 43.17525 10.2292615 46.5 9.58712385 47.1446176"></polyline>
                        <polyline id="Fill-655" fill="#2BB3BC" points="5.95409633 47.1446176 2 43.17525 5.95409633 39.2058824 6.59623394 39.8505 3.28427523 43.17525 6.59623394 46.5 5.95409633 47.1446176"></polyline>
                        <polygon id="Fill-698" fill="#BEBEB9" points="27 62 29 62 29 0 27 0"></polygon>
                        <polygon id="Fill-699" fill="#EC5D04" points="30 27 30 22 14 22 12 24.5 14 27"></polygon>
                        <polygon id="Fill-700" fill="#46C573" points="30 7 30 2 21 2 19 4.5 21 7"></polygon>
                        <polygon id="Fill-701" fill="#46C573" points="26 41 26 36 40 36 42 38.5 40 41"></polygon>
                        <polygon id="Fill-702" fill="#C1C1C1" points="30 34 30 29 14 29 12 31.5 14 34"></polygon>
                        <polygon id="Fill-704" fill="#C1C1C1" points="26 17 26 12 42 12 44 14.5 42 17"></polygon>
                        <path d="M8.5203578,13.6764706 C8.07939908,13.6764706 7.72018349,14.0370735 7.72018349,14.4797353 C7.72018349,14.9228529 8.07939908,15.2834559 8.5203578,15.2834559 C8.96177064,15.2834559 9.32098624,14.9228529 9.32098624,14.4797353 C9.32098624,14.0370735 8.96177064,13.6764706 8.5203578,13.6764706 Z M8.5203578,16.1952206 C7.57804128,16.1952206 6.81192661,15.4261471 6.81192661,14.4797353 C6.81192661,13.5337794 7.57804128,12.7647059 8.5203578,12.7647059 C9.46312844,12.7647059 10.2292431,13.5337794 10.2292431,14.4797353 C10.2292431,15.4261471 9.46312844,16.1952206 8.5203578,16.1952206 L8.5203578,16.1952206 Z" id="Fill-716" fill="#0A0A08"></path>
                        <path d="M13.0616422,13.6764706 C12.6206835,13.6764706 12.2614679,14.0370735 12.2614679,14.4797353 C12.2614679,14.9228529 12.6206835,15.2834559 13.0616422,15.2834559 C13.503055,15.2834559 13.8622706,14.9228529 13.8622706,14.4797353 C13.8622706,14.0370735 13.503055,13.6764706 13.0616422,13.6764706 Z M13.0616422,16.1952206 C12.1193257,16.1952206 11.353211,15.4261471 11.353211,14.4797353 C11.353211,13.5337794 12.1193257,12.7647059 13.0616422,12.7647059 C14.0044128,12.7647059 14.7705275,13.5337794 14.7705275,14.4797353 C14.7705275,15.4261471 14.0044128,16.1952206 13.0616422,16.1952206 L13.0616422,16.1952206 Z" id="Fill-717" fill="#0A0A08"></path>
                        <path d="M17.6029266,13.6764706 C17.1619679,13.6764706 16.8027523,14.0370735 16.8027523,14.4797353 C16.8027523,14.9228529 17.1619679,15.2834559 17.6029266,15.2834559 C18.0443394,15.2834559 18.403555,14.9228529 18.403555,14.4797353 C18.403555,14.0370735 18.0443394,13.6764706 17.6029266,13.6764706 Z M17.6029266,16.1952206 C16.6606101,16.1952206 15.8944954,15.4261471 15.8944954,14.4797353 C15.8944954,13.5337794 16.6606101,12.7647059 17.6029266,12.7647059 C18.5456972,12.7647059 19.3118119,13.5337794 19.3118119,14.4797353 C19.3118119,15.4261471 18.5456972,16.1952206 17.6029266,16.1952206 L17.6029266,16.1952206 Z" id="Fill-718" fill="#0A0A08"></path>
                    </g>
                </g>
            </g>
        </g>
    </g>
</svg>