<?xml version="1.0" encoding="UTF-8"?>
<svg width="54px" height="62px" viewBox="0 0 54 62" version="1.1" xmlns="http://www.w3.org/2000/svg" xmlns:xlink="http://www.w3.org/1999/xlink">
    <!-- Generator: Sketch 43.2 (39069) - http://www.bohemiancoding.com/sketch -->
    <title>14-17_icon</title>
    <desc>Created with Sketch.</desc>
    <defs></defs>
    <g id="Home" stroke="none" stroke-width="1" fill="none" fill-rule="evenodd">
        <g id="VER_Home-02" transform="translate(-757.000000, -764.000000)">
            <g id="Choose-Package" transform="translate(39.000000, 732.000000)">
                <g id="14-17" transform="translate(683.000000, 1.000000)">
                    <g id="14-17_icon" transform="translate(35.000000, 31.000000)">
                        <path d="M13.279286,22.5747862 L0,22.5747862 L0,21.6895004 L13.279286,21.6895004 C17.2179222,21.6895004 17.2630718,17.8681646 17.2630718,17.7057146 L17.2630718,0 L18.1483575,0 L18.1483575,17.7057146 C18.1483575,17.7544053 18.0930271,22.5747862 13.279286,22.5747862" id="Fill-626" fill="#BEBEB9"></path>
                        <path d="M53.1171439,22.5747862 L39.8378579,22.5747862 C35.0245594,22.5747862 34.9687864,17.7544053 34.9687864,17.7057146 L34.9687864,0 L35.8540721,0 L35.8540721,17.7057146 C35.8545148,17.8672793 35.9164848,21.6895004 39.8378579,21.6895004 L53.1171439,21.6895004 L53.1171439,22.5747862" id="Fill-627" fill="#BEBEB9"></path>
                        <path d="M35.8540721,61.9700012 L34.9687864,61.9700012 L34.9687864,44.2642866 C34.9687864,44.2155959 35.0245594,39.3952151 39.8378579,39.3952151 L53.1171439,39.3952151 L53.1171439,40.2805008 L39.8378579,40.2805008 C35.8996644,40.2805008 35.8540721,44.1018367 35.8540721,44.2642866 L35.8540721,61.9700012" id="Fill-628" fill="#BEBEB9"></path>
                        <path d="M18.1483575,61.9700012 L17.2630718,61.9700012 L17.2630718,44.2642866 C17.2626291,44.1027219 17.2011018,40.2805008 13.279286,40.2805008 L0,40.2805008 L0,39.3952151 L13.279286,39.3952151 C18.0930271,39.3952151 18.1483575,44.2155959 18.1483575,44.2642866 L18.1483575,61.9700012" id="Fill-629" fill="#BEBEB9"></path>
                        <path d="M23.9027148,1.3279286 L24.7880005,1.3279286 L24.7880005,0 L23.9027148,0 L23.9027148,1.3279286 Z M23.9027148,5.31171439 L24.7880005,5.31171439 L24.7880005,3.98378579 L23.9027148,3.98378579 L23.9027148,5.31171439 Z M23.9027148,9.29550018 L24.7880005,9.29550018 L24.7880005,7.96757159 L23.9027148,7.96757159 L23.9027148,9.29550018 Z M23.9027148,13.279286 L24.7880005,13.279286 L24.7880005,11.9513574 L23.9027148,11.9513574 L23.9027148,13.279286 Z M23.9027148,17.2630718 L24.7880005,17.2630718 L24.7880005,15.9351432 L23.9027148,15.9351432 L23.9027148,17.2630718 Z M23.9027148,21.2468576 L24.7880005,21.2468576 L24.7880005,19.918929 L23.9027148,19.918929 L23.9027148,21.2468576 Z M23.9027148,25.2306434 L24.7880005,25.2306434 L24.7880005,23.9027148 L23.9027148,23.9027148 L23.9027148,25.2306434 Z M23.9027148,29.2144291 L24.7880005,29.2144291 L24.7880005,27.8865005 L23.9027148,27.8865005 L23.9027148,29.2144291 Z M23.9027148,33.1982149 L24.7880005,33.1982149 L24.7880005,31.8702863 L23.9027148,31.8702863 L23.9027148,33.1982149 Z M23.9027148,37.1820007 L24.7880005,37.1820007 L24.7880005,35.8540721 L23.9027148,35.8540721 L23.9027148,37.1820007 Z M23.9027148,41.1657865 L24.7880005,41.1657865 L24.7880005,39.8378579 L23.9027148,39.8378579 L23.9027148,41.1657865 Z M23.9027148,45.1495723 L24.7880005,45.1495723 L24.7880005,43.8216437 L23.9027148,43.8216437 L23.9027148,45.1495723 Z M23.9027148,49.1333581 L24.7880005,49.1333581 L24.7880005,47.8054295 L23.9027148,47.8054295 L23.9027148,49.1333581 Z M23.9027148,53.1171439 L24.7880005,53.1171439 L24.7880005,51.7892153 L23.9027148,51.7892153 L23.9027148,53.1171439 Z M23.9027148,57.1009297 L24.7880005,57.1009297 L24.7880005,55.7730011 L23.9027148,55.7730011 L23.9027148,57.1009297 Z M23.9027148,61.0847155 L24.7880005,61.0847155 L24.7880005,59.7567869 L23.9027148,59.7567869 L23.9027148,61.0847155 Z" id="Fill-630" fill="#46C573"></path>
                        <path d="M28.3291434,1.3279286 L29.2144291,1.3279286 L29.2144291,0 L28.3291434,0 L28.3291434,1.3279286 Z M28.3291434,5.31171439 L29.2144291,5.31171439 L29.2144291,3.98378579 L28.3291434,3.98378579 L28.3291434,5.31171439 Z M28.3291434,9.29550018 L29.2144291,9.29550018 L29.2144291,7.96757159 L28.3291434,7.96757159 L28.3291434,9.29550018 Z M28.3291434,13.279286 L29.2144291,13.279286 L29.2144291,11.9513574 L28.3291434,11.9513574 L28.3291434,13.279286 Z M28.3291434,17.2630718 L29.2144291,17.2630718 L29.2144291,15.9351432 L28.3291434,15.9351432 L28.3291434,17.2630718 Z M28.3291434,21.2468576 L29.2144291,21.2468576 L29.2144291,19.918929 L28.3291434,19.918929 L28.3291434,21.2468576 Z M28.3291434,25.2306434 L29.2144291,25.2306434 L29.2144291,23.9027148 L28.3291434,23.9027148 L28.3291434,25.2306434 Z M28.3291434,29.2144291 L29.2144291,29.2144291 L29.2144291,27.8865005 L28.3291434,27.8865005 L28.3291434,29.2144291 Z M28.3291434,33.1982149 L29.2144291,33.1982149 L29.2144291,31.8702863 L28.3291434,31.8702863 L28.3291434,33.1982149 Z M28.3291434,37.1820007 L29.2144291,37.1820007 L29.2144291,35.8540721 L28.3291434,35.8540721 L28.3291434,37.1820007 Z M28.3291434,41.1657865 L29.2144291,41.1657865 L29.2144291,39.8378579 L28.3291434,39.8378579 L28.3291434,41.1657865 Z M28.3291434,45.1495723 L29.2144291,45.1495723 L29.2144291,43.8216437 L28.3291434,43.8216437 L28.3291434,45.1495723 Z M28.3291434,49.1333581 L29.2144291,49.1333581 L29.2144291,47.8054295 L28.3291434,47.8054295 L28.3291434,49.1333581 Z M28.3291434,53.1171439 L29.2144291,53.1171439 L29.2144291,51.7892153 L28.3291434,51.7892153 L28.3291434,53.1171439 Z M28.3291434,57.1009297 L29.2144291,57.1009297 L29.2144291,55.7730011 L28.3291434,55.7730011 L28.3291434,57.1009297 Z M28.3291434,61.0847155 L29.2144291,61.0847155 L29.2144291,59.7567869 L28.3291434,59.7567869 L28.3291434,61.0847155 Z" id="Fill-631" fill="#46C573"></path>
                        <path d="M0,17.7057146 L11.0660716,17.7057146 C11.0660716,17.7057146 13.279286,17.7057146 13.279286,15.4925003 L13.279286,4.42642866 L0,4.42642866 L0,17.7057146" id="Fill-632" fill="#E3E4E1"></path>
                        <path d="M53.1171439,17.7057146 L42.0510723,17.7057146 C42.0510723,17.7057146 39.8378579,17.7057146 39.8378579,15.4925003 L39.8378579,4.42642866 L53.1171439,4.42642866 L53.1171439,17.7057146" id="Fill-633" fill="#E3E4E1"></path>
                        <path d="M53.1171439,44.2642866 L42.0510723,44.2642866 C42.0510723,44.2642866 39.8378579,44.2642866 39.8378579,46.4775009 L39.8378579,57.5435726 L53.1171439,57.5435726 L53.1171439,44.2642866" id="Fill-634" fill="#E3E4E1"></path>
                        <path d="M0,44.2642866 L11.0660716,44.2642866 C11.0660716,44.2642866 13.279286,44.2642866 13.279286,46.4775009 L13.279286,57.5435726 L0,57.5435726 L0,44.2642866" id="Fill-635" fill="#E3E4E1"></path>
                        <polyline id="Fill-636" fill="#46C573" points="35.5951261 34.7093977 34.9687864 34.0835007 38.1969808 30.8553063 34.9687864 27.6271118 35.5951261 27.0012148 39.4492175 30.8553063 35.5951261 34.7093977"></polyline>
                        <polyline id="Fill-637" fill="#46C573" points="39.136269 34.7093977 38.5099293 34.0835007 41.7381238 30.8553063 38.5099293 27.6271118 39.136269 27.0012148 42.9903604 30.8553063 39.136269 34.7093977"></polyline>
                        <polyline id="Fill-638" fill="#46C573" points="42.6774119 34.7093977 42.0510723 34.0835007 45.2792667 30.8553063 42.0510723 27.6271118 42.6774119 27.0012148 46.5315033 30.8553063 42.6774119 34.7093977"></polyline>
                        <polyline id="Fill-639" fill="#46C573" points="46.2185548 34.7093977 45.5922152 34.0835007 48.8204096 30.8553063 45.5922152 27.6271118 46.2185548 27.0012148 50.0726463 30.8553063 46.2185548 34.7093977"></polyline>
                        <polyline id="Fill-640" fill="#46C573" points="49.7596978 34.7093977 49.1333581 34.0835007 52.3615525 30.8553063 49.1333581 27.6271118 49.7596978 27.0012148 53.6137892 30.8553063 49.7596978 34.7093977"></polyline>
                        <polyline id="Fill-646" fill="#46C573" points="17.1333774 34.7093977 13.279286 30.8553063 17.1333774 27.0012148 17.7597171 27.6271118 14.5315226 30.8553063 17.7597171 34.0835007 17.1333774 34.7093977"></polyline>
                        <polyline id="Fill-647" fill="#46C573" points="13.5922345 34.7093977 9.73814305 30.8553063 13.5922345 27.0012148 14.2185741 27.6271118 10.9903797 30.8553063 14.2185741 34.0835007 13.5922345 34.7093977"></polyline>
                        <polyline id="Fill-648" fill="#46C573" points="10.0510916 34.7093977 6.19700012 30.8553063 10.0510916 27.0012148 10.6774312 27.6271118 7.44923679 30.8553063 10.6774312 34.0835007 10.0510916 34.7093977"></polyline>
                        <polyline id="Fill-649" fill="#46C573" points="6.50994863 34.7093977 2.6558572 30.8553063 6.50994863 27.0012148 7.13628828 27.6271118 3.90809386 30.8553063 7.13628828 34.0835007 6.50994863 34.7093977"></polyline>
                    </g>
                </g>
            </g>
        </g>
    </g>
</svg>