<?xml version="1.0" encoding="UTF-8"?>
<svg width="62px" height="62px" viewBox="0 0 62 62" version="1.1" xmlns="http://www.w3.org/2000/svg" xmlns:xlink="http://www.w3.org/1999/xlink">
    <!-- Generator: Sketch 43.2 (39069) - http://www.bohemiancoding.com/sketch -->
    <title>17_icon</title>
    <desc>Created with Sketch.</desc>
    <defs>
        <rect id="path-1" x="10" y="10" width="44" height="44"></rect>
    </defs>
    <g id="Home" stroke="none" stroke-width="1" fill="none" fill-rule="evenodd">
        <g id="VER_Home-02" transform="translate(-888.000000, -764.000000)">
            <g id="Choose-Package" transform="translate(39.000000, 732.000000)">
                <g id="17+" transform="translate(818.000000, 1.000000)">
                    <g id="17_icon" transform="translate(30.000000, 30.000000)">
                        <g id="Rectangle-28" transform="translate(32.000000, 32.000000) rotate(45.000000) translate(-32.000000, -32.000000) ">
                            <use fill="#46C573" fill-rule="evenodd" xlink:href="#path-1"></use>
                            <rect stroke="#4A4A4A" stroke-width="1" x="10.5" y="10.5" width="43" height="43"></rect>
                        </g>
                        <g id="Group-25" transform="translate(17.000000, 17.000000)" fill-rule="nonzero" fill="#FFFFFF">
                            <path d="M5,19.7781746 L5,10.5042353 C5,4.70567465 9.70666956,0 15.5,0 C21.2988018,0 26,4.70472006 26,10.5042353 L26,26.4957647 L20,26.4957647 L20,10.5042353 C20,8.01742313 17.9840871,6 15.5,6 C13.0200941,6 11,8.01966713 11,10.5042353 L11,19.7781746 L15.5563492,19.7781746 L7.77817459,27.5563492 L0,19.7781746 L5,19.7781746 Z" id="Combined-Shape"></path>
                        </g>
                    </g>
                </g>
            </g>
        </g>
    </g>
</svg>