<?xml version="1.0" encoding="UTF-8"?>
<svg width="55px" height="60px" viewBox="0 0 55 60" version="1.1" xmlns="http://www.w3.org/2000/svg" xmlns:xlink="http://www.w3.org/1999/xlink">
    <!-- Generator: Sketch 43.2 (39069) - http://www.bohemiancoding.com/sketch -->
    <title>17_icon</title>
    <desc>Created with Sketch.</desc>
    <defs></defs>
    <g id="Home" stroke="none" stroke-width="1" fill="none" fill-rule="evenodd">
        <g id="VER_Home-02" transform="translate(-892.000000, -765.000000)">
            <g id="Choose-Package" transform="translate(39.000000, 732.000000)">
                <g id="17+" transform="translate(818.000000, 1.000000)">
                    <g id="17_icon" transform="translate(35.000000, 32.000000)">
                        <g id="Group-33-Copy-3">
                            <path d="M5.5,54.4615385 L4.125,60 L30.7083333,60 L30.7083333,51.6923077 C32.0415906,51.7752173 33.8857473,51.1784665 34.375,50.3076923 C38.0271649,46.1005249 28.6223796,26.1682143 28.4166667,23.0769231 C28.6223796,15.088016 28.6223796,14.7113403 28.4166667,14.7692308 C28.6223796,14.6988307 28.6223796,6.46153846 20.625,6.46153846 L4.125,6.46153846 C4.08897708,6.46153846 0,6.46153846 0,10.6153846 C0,14.6988307 4.08897708,14.6988307 4.125,14.7692308 L4.125,14.7692308 C4.20259811,14.7451623 4.21133819,14.7979803 4.125,14.7692308 L4.125,14.7692308 L4.125,20.7692308 L1.83333333,26.7692308 L4.125,27.2307692 L5.5,35.0769231 C5.31580821,35.2663474 9.79854886,35.0096704 11.4583333,34.6153846 L12.8333333,42.4615385 L5.5,54.4615385" id="Fill-247" fill="#FB5E5E"></path>
                            <path d="M50.27275,9.39646154 C50.2791667,9.342 50.2897083,9.28292308 50.2938333,9.23076923 L50.4166667,9.23076923 C50.4166667,9.23076923 55,9.23076923 55,4.61538462 C55,0 50.4166667,0 50.4166667,0 L32.0833333,0 C22.9166667,0 22.9166667,9.23076923 22.9166667,9.23076923 L22.9166667,18.4615385 C22.9166667,22.0855385 24.503875,25.3444615 27.8950833,26.8213846 C28.8915,27.2552308 30.69825,27.7873846 32.2391667,27.7744615 C32.1965417,29.3275385 32.0833333,30.9064615 32.0833333,32.4443077 C32.0833333,33.2173846 32.1057917,33.8810769 32.2061667,34.4972308 L31.436625,34.1538462 L28.4166667,39.7403077 L29.3635833,40.2092308 L20.625,50.7692308 L20.625,60 L50.4166667,60 L48.3541667,50.7692308 L48.5833333,46.1538462 L46.943875,43.1538462 L46.943875,41.0769231 L45.826,40.578 C45.8113333,38.2476923 45.753125,34.5032308 45.7054583,32.1692308 C47.6735417,32.3889231 49.0416667,32.2809231 49.0416667,32.2809231 L50.4166667,23.5116923 L53.1666667,22.5886154 L50.4166667,16.1538462 L50.4166667,9.23076923 L50.27275,9.39646154" id="Fill-643" fill="#D4D4D4"></path>
                            <g id="Group-2" transform="translate(36.666667, 47.538462)" fill="#0A0A08">
                                <polygon id="Fill-657" points="0 0.923076923 18.3333333 0.923076923 18.3333333 0 0 0"></polygon>
                                <polygon id="Fill-658" points="0 3.23076923 18.3333333 3.23076923 18.3333333 2.30769231 0 2.30769231"></polygon>
                                <polygon id="Fill-659" points="0 5.53846154 14.1702917 5.53846154 14.1702917 4.61538462 0 4.61538462"></polygon>
                                <polygon id="Fill-660" points="0 10.1538462 18.3333333 10.1538462 18.3333333 9.23076923 0 9.23076923"></polygon>
                                <polygon id="Fill-661" points="0 12.4615385 9.16666667 12.4615385 9.16666667 11.5384615 0 11.5384615"></polygon>
                                <polygon id="Fill-662" points="0 7.84615385 18.3333333 7.84615385 18.3333333 6.92307692 0 6.92307692"></polygon>
                            </g>
                            <g id="Group-32" transform="translate(27.041667, 5.076923)" fill="#FFFFFF">
                                <polygon id="Fill-664" points="0 6.46153846 0.916666667 6.46153846 0.916666667 4.15384615 0 4.15384615"></polygon>
                                <polygon id="Fill-665" points="2.29166667 6.46153846 3.20833333 6.46153846 3.20833333 1.38461538 2.29166667 1.38461538"></polygon>
                                <polygon id="Fill-666" points="4.58333333 6.46153846 5.5 6.46153846 5.5 3.23076923 4.58333333 3.23076923"></polygon>
                                <polygon id="Fill-667" points="6.875 6.46153846 7.79166667 6.46153846 7.79166667 4.61538462 6.875 4.61538462"></polygon>
                                <polygon id="Fill-668" points="9.16666667 6.46153846 10.0833333 6.46153846 10.0833333 3.23076923 9.16666667 3.23076923"></polygon>
                                <polygon id="Fill-669" points="11.4583333 6.46153846 12.375 6.46153846 12.375 2.30769231 11.4583333 2.30769231"></polygon>
                                <polygon id="Fill-670" points="13.75 6.46153846 14.6666667 6.46153846 14.6666667 0 13.75 0"></polygon>
                                <polygon id="Fill-671" points="16.0416667 6.46107692 16.9583333 6.46107692 16.9583333 2.30769231 16.0416667 2.30769231"></polygon>
                                <polygon id="Fill-672" points="18.3333333 6.46153846 19.25 6.46153846 19.25 4.15384615 18.3333333 4.15384615"></polygon>
                            </g>
                            <g id="Group" transform="translate(14.208333, 20.307692)">
                                <path d="M21.7708333,13.8461538 C21.7708333,18.3069231 18.1797917,21.9230769 13.75,21.9230769 C9.32020833,21.9230769 5.72916667,18.3069231 5.72916667,13.8461538 C5.72916667,9.38538462 9.32020833,5.76923077 13.75,5.76923077 C18.1797917,5.76923077 21.7708333,9.38538462 21.7708333,13.8461538" id="Fill-275" fill="#FFFFFF"></path>
                                <polygon id="Fill-434" fill="#0A0A08" points="13.5208333 27.6923077 14.4439103 27.6923077 14.4439103 25.7143846 13.5208333 25.7143846"></polygon>
                                <polygon id="Fill-435" fill="#0A0A08" points="13.5208333 1.97792308 14.4439103 1.97792308 14.4439103 0 13.5208333 0"></polygon>
                                <polygon id="Fill-436" fill="#0A0A08" points="25.5358125 14.5384615 27.5 14.5384615 27.5 13.6153846 25.5358125 13.6153846"></polygon>
                                <polygon id="Fill-437" fill="#0A0A08" points="0 14.5384615 1.9641875 14.5384615 1.9641875 13.6153846 0 13.6153846"></polygon>
                                <polyline id="Fill-438" fill="#0A0A08" points="4.18939583 23.7999231 3.86535417 23.4736154 5.25410417 22.0749231 5.57814583 22.4012308 4.18939583 23.7999231"></polyline>
                                <polyline id="Fill-439" fill="#0A0A08" points="22.2458958 5.61738462 21.9218542 5.29107692 23.3106042 3.89238462 23.6346458 4.21869231 22.2458958 5.61738462"></polyline>
                                <polyline id="Fill-440" fill="#0A0A08" points="23.3106042 23.7999231 21.9218542 22.4012308 22.2458958 22.0749231 23.6346458 23.4736154 23.3106042 23.7999231"></polyline>
                                <polyline id="Fill-441" fill="#0A0A08" points="5.25410417 5.61738462 3.86535417 4.21869231 4.18939583 3.89238462 5.57814583 5.29107692 5.25410417 5.61738462"></polyline>
                                <polyline id="Fill-442" fill="#0A0A08" points="8.71497917 26.7325385 8.29125 26.5566923 9.04039583 24.7280769 9.46435417 24.9041538 8.71497917 26.7325385"></polyline>
                                <polyline id="Fill-443" fill="#0A0A08" points="18.4596042 2.96423077 18.0356458 2.78815385 18.7850208 0.959769231 19.20875 1.13561538 18.4596042 2.96423077"></polyline>
                                <polyline id="Fill-444" fill="#0A0A08" points="26.3720417 19.3430769 24.5563542 18.5882308 24.7314375 18.1617692 26.547125 18.9166154 26.3720417 19.3430769"></polyline>
                                <polyline id="Fill-445" fill="#0A0A08" points="2.7685625 9.53053846 0.952875 8.77569231 1.12795833 8.34923077 2.94364583 9.10407692 2.7685625 9.53053846"></polyline>
                                <polyline id="Fill-446" fill="#0A0A08" points="1.14102083 19.3728462 0.965020833 18.9468462 2.77864583 18.1876154 2.95464583 18.6136154 1.14102083 19.3728462"></polyline>
                                <polyline id="Fill-447" fill="#0A0A08" points="24.7213542 9.50492308 24.5453542 9.07869231 26.3589792 8.31946154 26.5349792 8.74546154 24.7213542 9.50492308"></polyline>
                                <polyline id="Fill-448" fill="#0A0A08" points="18.8150417 26.7207692 18.0613125 24.8942308 18.4848125 24.717 19.2383125 26.5435385 18.8150417 26.7207692"></polyline>
                                <polyline id="Fill-449" fill="#0A0A08" points="9.0151875 2.97530769 8.2616875 1.14876923 8.68495833 0.971538462 9.4386875 2.79807692 9.0151875 2.97530769"></polyline>
                            </g>
                        </g>
                        <polyline id="Fill-411" fill="#46C573" points="26.5371489 37.4233846 23.5355348 34.4007802 24.4406921 33.4892932 26.5371489 35.599766 31.1826412 30.9230769 32.0877985 31.8345639 26.5371489 37.4233846"></polyline>
                    </g>
                </g>
            </g>
        </g>
    </g>
</svg>