<?xml version="1.0" encoding="UTF-8"?>
<svg width="52px" height="60px" viewBox="0 0 52 60" version="1.1" xmlns="http://www.w3.org/2000/svg" xmlns:xlink="http://www.w3.org/1999/xlink">
    <!-- Generator: Sketch 43.2 (39069) - http://www.bohemiancoding.com/sketch -->
    <title>4-7_icon</title>
    <desc>Created with Sketch.</desc>
    <defs></defs>
    <g id="Home" stroke="none" stroke-width="1" fill="none" fill-rule="evenodd">
        <g id="VER_Home-02" transform="translate(-355.000000, -765.000000)">
            <g id="Choose-Package" transform="translate(39.000000, 732.000000)">
                <g id="4-7" transform="translate(280.000000, 1.000000)">
                    <g id="4-7_icon" transform="translate(36.000000, 32.000000)">
                        <polyline id="Fill-345-Copy" fill="#E3E4E1" points="13.9225 45.1629167 13.0891667 45.1629167 13.0891667 18.0891667 10.4166667 18.0891667 15.5891667 12.9166667 20.7616667 18.0891667 18.0891667 18.0891667 18.0891667 43.0795833 17.2558333 43.0795833 17.2558333 17.2558333 18.75 17.2558333 15.5891667 14.095 12.4283333 17.2558333 13.9225 17.2558333 13.9225 45.1629167"></polyline>
                        <path d="M29.5833333,9.31884717 C29.5833333,9.31884717 33.50125,12.0138472 36.76125,10.8667638 C40.02125,9.7196805 41.3883333,5.16551384 41.3883333,5.16551384 C41.3883333,5.16551384 37.4704167,2.47051384 34.2104167,3.61759717 C30.9504167,4.76509717 29.5833333,9.31884717 29.5833333,9.31884717" id="Fill-346-Copy" fill="#46C573"></path>
                        <path d="M23.2220833,8.80478781 C23.2220833,8.80478781 18.0041667,12.3939545 13.6625,10.8664545 C9.32125,9.33895448 7.5,3.27312114 7.5,3.27312114 C7.5,3.27312114 12.7179167,-0.315628858 17.0595833,1.21187114 C21.40125,2.73978781 23.2220833,8.80478781 23.2220833,8.80478781" id="Fill-347-Copy" fill="#46C573"></path>
                        <polyline id="Fill-348-Copy" fill="#46C573" points="7.6725 38.48125 6.83916667 38.48125 6.83916667 29.7558333 8.33333333 29.7558333 5.1725 26.595 2.01166667 29.7558333 3.50583333 29.7558333 3.50583333 34.0608333 2.6725 34.0608333 2.6725 30.5891667 0 30.5891667 5.1725 25.4166667 10.345 30.5891667 7.6725 30.5891667 7.6725 38.48125"></polyline>
                        <polyline id="Fill-349-Copy" fill="#46C573" points="45.1725 32.24375 44.3391667 32.24375 44.3391667 18.0891667 41.6666667 18.0891667 46.8391667 12.9166667 52.0116667 18.0891667 49.3391667 18.0891667 49.3391667 28.0770833 48.5058333 28.0770833 48.5058333 17.2558333 50 17.2558333 46.8391667 14.095 43.6783333 17.2558333 45.1725 17.2558333 45.1725 32.24375"></polyline>
                        <polyline id="Fill-350-Copy" fill="#BEBEB9" points="48.75 59.63375 46.96125 57.845 45.1725 59.63375 44.5833333 59.0445833 46.96125 56.6666667 49.3391667 59.0445833 48.75 59.63375"></polyline>
                        <polyline id="Fill-351-Copy" fill="#BEBEB9" points="48.75 57.5504167 46.96125 55.7616667 45.1725 57.5504167 44.5833333 56.96125 46.96125 54.5833333 49.3391667 56.96125 48.75 57.5504167"></polyline>
                        <polyline id="Fill-352-Copy" fill="#BEBEB9" points="48.75 55.4670833 46.96125 53.6783333 45.1725 55.4670833 44.5833333 54.8779167 46.96125 52.5 49.3391667 54.8779167 48.75 55.4670833"></polyline>
                        <polyline id="Fill-353-Copy" fill="#BEBEB9" points="48.75 53.38375 46.96125 51.595 45.1725 53.38375 44.5833333 52.7945833 46.96125 50.4166667 49.3391667 52.7945833 48.75 53.38375"></polyline>
                        <polyline id="Fill-354-Copy" fill="#BEBEB9" points="48.75 51.3004167 46.96125 49.5116667 45.1725 51.3004167 44.5833333 50.71125 46.96125 48.3333333 49.3391667 50.71125 48.75 51.3004167"></polyline>
                        <polyline id="Fill-355-Copy" fill="#BEBEB9" points="36.25 24.2170833 34.46125 22.4283333 32.6725 24.2170833 32.0833333 23.6279167 34.46125 21.25 36.8391667 23.6279167 36.25 24.2170833"></polyline>
                        <polyline id="Fill-356-Copy" fill="#BEBEB9" points="36.25 22.13375 34.46125 20.345 32.6725 22.13375 32.0833333 21.5445833 34.46125 19.1666667 36.8391667 21.5445833 36.25 22.13375"></polyline>
                        <polyline id="Fill-357-Copy" fill="#BEBEB9" points="36.25 20.0504167 34.46125 18.2616667 32.6725 20.0504167 32.0833333 19.46125 34.46125 17.0833333 36.8391667 19.46125 36.25 20.0504167"></polyline>
                        <polyline id="Fill-358-Copy" fill="#BEBEB9" points="36.25 17.9670833 34.46125 16.1783333 32.6725 17.9670833 32.0833333 17.3779167 34.46125 15 36.8391667 17.3779167 36.25 17.9670833"></polyline>
                        <polyline id="Fill-359-Copy" fill="#BEBEB9" points="36.25 15.88375 34.46125 14.095 32.6725 15.88375 32.0833333 15.2945833 34.46125 12.9166667 36.8391667 15.2945833 36.25 15.88375"></polyline>
                        <path d="M38.9225,39.9370833 L38.3333333,39.3479167 L45.6991667,31.9820833 C46.17125,31.51 46.79875,31.25 47.4666667,31.25 C48.1341667,31.25 48.7620833,31.51 49.2341667,31.9820833 C49.7066667,32.4541667 49.9666667,33.0820833 49.9666667,33.75 C49.9666667,34.4175 49.7066667,35.0454167 49.2341667,35.5179167 L48.645,34.9283333 C48.96,34.61375 49.1333333,34.195 49.1333333,33.75 C49.1333333,33.3045833 48.96,32.88625 48.645,32.57125 C48.015,31.9416667 46.9179167,31.9416667 46.2883333,32.57125 L38.9225,39.9370833" id="Fill-360-Copy" fill="#0A0A08"></path>
                        <path d="M33.5058333,39.425 L32.9166667,38.8354167 L41.02,30.7320833 C41.4920833,30.26 42.12,30 42.7875,30 C43.4554167,30 44.0833333,30.26 44.555,30.7320833 C45.0275,31.2045833 45.2875,31.8320833 45.2875,32.5 C45.2875,33.1675 45.0275,33.7954167 44.555,34.2679167 L43.9658333,33.67875 C44.2808333,33.36375 44.4541667,32.945 44.4541667,32.5 C44.4541667,32.055 44.2808333,31.63625 43.9658333,31.32125 C43.65125,31.0066667 43.2329167,30.8333333 42.7875,30.8333333 C42.3425,30.8333333 41.9241667,31.0066667 41.6091667,31.32125 L33.5058333,39.425" id="Fill-361-Copy" fill="#0A0A08"></path>
                        <path d="M27.6725,39.425 L27.0833333,38.8354167 L35.1866667,30.7320833 C35.65875,30.26 36.2866667,30 36.9545833,30 C37.6220833,30 38.25,30.26 38.7220833,30.7320833 C39.1945833,31.2045833 39.4545833,31.8320833 39.4545833,32.5 C39.4545833,33.1675 39.1945833,33.7954167 38.7220833,34.2679167 L38.1329167,33.67875 C38.4479167,33.36375 38.62125,32.945 38.62125,32.5 C38.62125,32.055 38.4479167,31.63625 38.1329167,31.32125 C37.8179167,31.0066667 37.3995833,30.8333333 36.9545833,30.8333333 C36.5091667,30.8333333 36.0908333,31.0066667 35.77625,31.32125 L27.6725,39.425" id="Fill-362-Copy" fill="#0A0A08"></path>
                        <path d="M8.33333333,45.4298362 L8.33333333,44.5965029 L13.75,44.5965029 C15.6329167,44.5965029 17.6025,42.6544196 17.6220833,42.6352529 C21.87625,38.3810862 26.9079167,38.7473362 27.1179167,38.7648362 L37.5,38.7631696 C38.8783333,38.7631696 40,39.8844196 40,41.2631696 C40,42.6419196 38.8783333,43.7631696 37.5,43.7631696 L27.0833333,43.7631696 L27.0833333,42.9298362 L37.5,42.9298362 C38.4191667,42.9298362 39.1666667,42.1823362 39.1666667,41.2631696 C39.1666667,40.3444196 38.4191667,39.5965029 37.5,39.5965029 L27.0833333,39.5965029 C26.9995833,39.5910862 22.1829167,39.2523362 18.21125,43.2244196 C18.12125,43.3144196 15.98,45.4298362 13.75,45.4298362 L8.33333333,45.4298362 Z" id="Fill-363-Copy" fill="#0A0A08"></path>
                        <path d="M8.04291667,56.3041667 L7.91666667,55.4808333 L37.82375,50.8925 C39.435,50.8925 40.3225,50.0291667 40.3595833,49.9920833 L49.98375,38.7029167 C50.32125,38.36375 50.4945833,37.9454167 50.4945833,37.5 C50.4945833,37.055 50.32125,36.6366667 50.00625,36.3216667 C49.69125,36.0070833 49.2729167,35.8333333 48.8279167,35.8333333 C48.3829167,35.8333333 47.9645833,36.0070833 47.6495833,36.3216667 L40.1616667,43.8095833 L37.0425,43.8095833 L37.0425,42.97625 L39.8166667,42.97625 L47.0604167,35.7325 C47.5325,35.2604167 48.16,35 48.8279167,35 C49.4958333,35 50.1233333,35.2604167 50.5954167,35.7325 C51.0679167,36.2045833 51.3279167,36.8325 51.3279167,37.5 C51.3279167,38.1679167 51.0679167,38.7958333 50.5954167,39.2679167 L40.9720833,50.5566667 C40.9058333,50.625 39.8104167,51.71375 37.85625,51.7258333 L8.04291667,56.3041667" id="Fill-364-Copy" fill="#0A0A08"></path>
                        <path d="M13.75,45.0591667 C15.8333333,45.0591667 17.9166667,42.9758333 17.9166667,42.9758333 C22.0833333,38.8091667 27.0833333,39.2258333 27.0833333,39.2258333 L37.3304167,39.2258333 L27.04625,25 L13.75,45.0591667" id="Fill-365-Copy" fill="#F1CC46"></path>
                        <path d="M37.5,43.3583333 L27.0833333,43.3583333 L40.3425,43.35875 L39.4204167,42.0833333 C39.1045833,42.8320833 38.3641667,43.3583333 37.5,43.3583333" id="Fill-366-Copy" fill="#BEBEB9"></path>
                        <polyline id="Fill-369-Copy" fill="#46C573" points="8.73541667 59.5833333 1.25 59.5833333 1.25 58.75 7.90208333 58.75 7.90208333 50.1725 6.21875 48.4891667 7.90208333 46.8058333 7.90208333 42.0833333 1.25 42.0833333 1.25 41.25 8.73541667 41.25 8.73541667 47.1508333 7.39708333 48.4891667 8.73541667 49.8275 8.73541667 59.5833333"></polyline>
                        <polygon id="Fill-370-Copy" fill="#46C573" points="1.25 49.1666667 6.80791667 49.1666667 6.80791667 48.3333333 1.25 48.3333333"></polygon>
                        <polygon id="Fill-371-Copy" fill="#0A0A08" points="26.25 25.4925 27.0833333 25.4925 27.0833333 17.5 26.25 17.5"></polygon>
                        <path d="M27.1958333,17.5129167 L26.3625,17.5129167 C26.3625,6.27833333 12.39375,3.75 7.5,3.75 L7.5,2.91666667 C12.6095833,2.91666667 27.1958333,5.59833333 27.1958333,17.5129167" id="Fill-372-Copy" fill="#0A0A08"></path>
                        <path d="M27.0833333,16.0633333 L26.25,16.0633333 C26.25,7.0325 37.2791667,5 41.1425,5 L41.1425,5.83333333 C37.495,5.83333333 27.0833333,7.7125 27.0833333,16.0633333" id="Fill-373-Copy" fill="#0A0A08"></path>
                        <path d="M33.015,58.8483333 L35.8333333,58.8483333 L34.4241667,56.03 L33.015,58.8483333 Z M37.1816667,59.6816667 L31.6666667,59.6816667 L34.4241667,54.1666667 L37.1816667,59.6816667 L37.1816667,59.6816667 Z" id="Fill-377-Copy" fill="#46C573"></path>
                        <path d="M25.9316667,4.68166667 L28.75,4.68166667 L27.3408333,1.86333333 L25.9316667,4.68166667 Z M30.0983333,5.515 L24.5833333,5.515 L27.3408333,0 L30.0983333,5.515 L30.0983333,5.515 Z" id="Fill-378-Copy" fill="#E3E4E1"></path>
                    </g>
                </g>
            </g>
        </g>
    </g>
</svg>