<?xml version="1.0" encoding="UTF-8"?>
<svg width="52px" height="60px" viewBox="0 0 52 60" version="1.1" xmlns="http://www.w3.org/2000/svg" xmlns:xlink="http://www.w3.org/1999/xlink">
    <!-- Generator: Sketch 43.2 (39069) - http://www.bohemiancoding.com/sketch -->
    <title>7-11_icon</title>
    <desc>Created with Sketch.</desc>
    <defs></defs>
    <g id="Home" stroke="none" stroke-width="1" fill="none" fill-rule="evenodd">
        <g id="VER_Home-02" transform="translate(-490.000000, -766.000000)">
            <g id="Choose-Package" transform="translate(39.000000, 732.000000)">
                <g id="7-11" transform="translate(414.000000, 0.000000)">
                    <g id="7-11_icon" transform="translate(37.000000, 34.000000)">
                        <path d="M7,2 L7,53.0638298 C7,54.2391489 7.95304469,55.1914894 9.12828202,55.1914894 L45.3090763,55.1914894 L45.3090763,2 L7,2" id="Fill-263" fill="#EC5D04"></path>
                        <polygon id="Fill-594" fill="#4E814D" points="0 52.8191489 4.25656403 52.8191489 4.25656403 12.7659574 0 12.7659574"></polygon>
                        <polyline id="Fill-595" fill="#E3E4E1" points="4.25656403 52.7659574 2.12828202 59.5212766 0 52.7659574 4.25656403 52.7659574"></polyline>
                        <polyline id="Fill-596" fill="#4E814D" points="3.40525123 56.1702128 2.34111022 59.5476596 1.27696921 56.1702128 3.40525123 56.1702128"></polyline>
                        <path d="M10.6414101,0 C9.46617275,0 8.51312806,0.952340426 8.51312806,2.12765957 C8.51312806,3.30297872 9.46617275,4.25531915 10.6414101,4.25531915 L46.8222043,4.25531915 L46.8222043,0 L10.6414101,0" id="Fill-654" fill="#E3E4E1"></path>
                        <path d="M38.3090763,24.893617 C38.3090763,30.6514894 33.6400512,35.3191489 27.8804944,35.3191489 C22.1213633,35.3191489 17.4519125,30.6514894 17.4519125,24.893617 C17.4519125,19.1357447 22.1213633,14.4680851 27.8804944,14.4680851 C33.6400512,14.4680851 38.3090763,19.1357447 38.3090763,24.893617" id="Fill-655" fill="#FFFFFF"></path>
                        <path d="M17.1271367,31.5897872 L30.647261,31.5897872 L23.886986,18.0731915 L17.1271367,31.5897872 Z M32.0251108,32.4408511 L15.7492869,32.4408511 L23.886986,16.1702128 L32.0251108,32.4408511 L32.0251108,32.4408511 Z" id="Fill-656" fill="#0A0A08"></path>
                        <path d="M28.1942032,31.6961702 L37.989834,31.6961702 L33.0918057,21.9029787 L28.1942032,31.6961702 Z M39.3676838,32.547234 L26.8163534,32.547234 L33.0918057,20 L39.3676838,32.547234 L39.3676838,32.547234 Z" id="Fill-657" fill="#0A0A08"></path>
                        <polygon id="Fill-658" fill="#0A0A08" points="21.2828202 39.1489362 34.0525123 39.1489362 34.0525123 38.2978723 21.2828202 38.2978723"></polygon>
                        <polygon id="Fill-659" fill="#0A0A08" points="21.2828202 41.2765957 34.0525123 41.2765957 34.0525123 40.4255319 21.2828202 40.4255319"></polygon>
                        <polygon id="Fill-660" fill="#0A0A08" points="21.2828202 43.4042553 34.0525123 43.4042553 34.0525123 42.5531915 21.2828202 42.5531915"></polygon>
                        <polygon id="Fill-661" fill="#0A0A08" points="25.5393842 45.5319149 29.7959482 45.5319149 29.7959482 44.6808511 25.5393842 44.6808511"></polygon>
                        <polyline id="Fill-662" fill="#0A0A08" points="49.1271338 17.4468085 46.8222043 17.4468085 46.8222043 16.5957447 48.7742646 16.5957447 50.653112 14.7174468 50.653112 6.80851064 46.8222043 6.80851064 46.8222043 5.95744681 51.5044248 5.95744681 51.5044248 15.0697872 49.1271338 17.4468085"></polyline>
                        <polyline id="Fill-663" fill="#0A0A08" points="49.1271338 28.0851064 46.8222043 28.0851064 46.8222043 27.2340426 48.7742646 27.2340426 50.653112 25.3557447 50.653112 17.4468085 46.8222043 17.4468085 46.8222043 16.5957447 51.5044248 16.5957447 51.5044248 25.7080851 49.1271338 28.0851064"></polyline>
                        <polyline id="Fill-664" fill="#0A0A08" points="49.1271338 38.7234043 46.8222043 38.7234043 46.8222043 37.8723404 48.7742646 37.8723404 50.653112 35.9940426 50.653112 28.0851064 46.8222043 28.0851064 46.8222043 27.2340426 51.5044248 27.2340426 51.5044248 36.346383 49.1271338 38.7234043"></polyline>
                        <polyline id="Fill-665" fill="#0A0A08" points="49.1271338 49.3617021 46.8222043 49.3617021 46.8222043 48.5106383 48.7742646 48.5106383 50.653112 46.6323404 50.653112 38.7234043 46.8222043 38.7234043 46.8222043 37.8723404 51.5044248 37.8723404 51.5044248 46.9846809 49.1271338 49.3617021"></polyline>
                        <polyline id="Fill-666" fill="#0A0A08" points="19.7930227 47.4468085 18.9417099 47.4468085 18.9417099 47.2340426 18.7288817 47.2340426 18.7288817 46.3829787 19.7930227 46.3829787 19.7930227 47.4468085"></polyline>
                        <path d="M9.79009727,47.2340426 L11.2266876,47.2340426 L11.2266876,46.3829787 L9.79009727,46.3829787 L9.79009727,47.2340426 Z M14.0998684,47.2340426 L15.5364587,47.2340426 L15.5364587,46.3829787 L14.0998684,46.3829787 L14.0998684,47.2340426 Z" id="Fill-667" fill="#0A0A08"></path>
                        <polyline id="Fill-668" fill="#0A0A08" points="6.81050245 47.4468085 5.95918964 47.4468085 5.95918964 46.3829787 7.02333065 46.3829787 7.02333065 47.2340426 6.81050245 47.2340426 6.81050245 47.4468085"></polyline>
                        <path d="M5.95918964,51.6489362 L6.81050245,51.6489362 L6.81050245,50.212766 L5.95918964,50.212766 L5.95918964,51.6489362 Z M5.95918964,55.9574468 L6.81050245,55.9574468 L6.81050245,54.5212766 L5.95918964,54.5212766 L5.95918964,55.9574468 Z" id="Fill-669" fill="#0A0A08"></path>
                        <polyline id="Fill-670" fill="#0A0A08" points="7.02333065 59.787234 5.95918964 59.787234 5.95918964 58.7234043 6.81050245 58.7234043 6.81050245 58.9361702 7.02333065 58.9361702 7.02333065 59.787234"></polyline>
                        <path d="M9.79009727,60 L11.2266876,60 L11.2266876,59.1489362 L9.79009727,59.1489362 L9.79009727,60 Z M14.0998684,60 L15.5364587,60 L15.5364587,59.1489362 L14.0998684,59.1489362 L14.0998684,60 Z" id="Fill-671" fill="#0A0A08"></path>
                        <polyline id="Fill-672" fill="#0A0A08" points="19.7930227 59.787234 18.7288817 59.787234 18.7288817 58.9361702 18.9417099 58.9361702 18.9417099 58.7234043 19.7930227 58.7234043 19.7930227 59.787234"></polyline>
                        <path d="M18.7288817,51.6489362 L19.5801945,51.6489362 L19.5801945,50.212766 L18.7288817,50.212766 L18.7288817,51.6489362 Z M18.7288817,55.9574468 L19.5801945,55.9574468 L19.5801945,54.5212766 L18.7288817,54.5212766 L18.7288817,55.9574468 Z" id="Fill-673" fill="#0A0A08"></path>
                        <polygon id="Fill-674" fill="#0A0A08" points="2.12828202 6.80851064 21.7084766 6.80851064 21.7084766 5.95744681 2.12828202 5.95744681"></polygon>
                        <polygon id="Fill-675" fill="#0A0A08" points="2.12828202 8.93617021 21.7084766 8.93617021 21.7084766 8.08510638 2.12828202 8.08510638"></polygon>
                        <polygon id="Fill-676" fill="#0A0A08" points="2.12828202 11.0638298 21.7084766 11.0638298 21.7084766 10.212766 2.12828202 10.212766"></polygon>
                        <path d="M45.9445008,53.1914894 C44.3163651,53.1914894 42.9912967,54.5157447 42.9912967,56.1438298 C42.9912967,57.7714894 44.3163651,59.0957447 45.9445008,59.0957447 C47.5726366,59.0957447 48.8972793,57.7714894 48.8972793,56.1438298 C48.8972793,54.5157447 47.5726366,53.1914894 45.9445008,53.1914894 Z M45.9445008,59.9468085 C43.8468661,59.9468085 42.1399839,58.2404255 42.1399839,56.1438298 C42.1399839,54.0468085 43.8468661,52.3404255 45.9445008,52.3404255 C48.0421356,52.3404255 49.7485921,54.0468085 49.7485921,56.1438298 C49.7485921,58.2404255 48.0421356,59.9468085 45.9445008,59.9468085 L45.9445008,59.9468085 Z" id="Fill-677" fill="#0A0A08"></path>
                        <path d="M31.9242302,56.1438298 C31.9242302,54.2782979 33.4370131,52.7659574 35.3030908,52.7659574 C37.1691684,52.7659574 38.6815256,54.2782979 38.6815256,56.1438298 C38.6815256,58.0089362 37.1691684,59.5212766 35.3030908,59.5212766 C33.4370131,59.5212766 31.9242302,58.0089362 31.9242302,56.1438298" id="Fill-678" fill="#BEBEB9"></path>
                    </g>
                </g>
            </g>
        </g>
    </g>
</svg>