<?xml version="1.0" encoding="UTF-8"?>
<svg width="188px" height="78px" viewBox="0 0 188 78" version="1.1" xmlns="http://www.w3.org/2000/svg" xmlns:xlink="http://www.w3.org/1999/xlink">
    <!-- Generator: Sketch 43.2 (39069) - http://www.bohemiancoding.com/sketch -->
    <title>ASI logo</title>
    <desc>Created with Sketch.</desc>
    <defs>
        <polygon id="path-1" points="0.120790899 13.4644809 10.2780258 13.4644809 10.2780258 0.163689617 0.120790899 0.163689617 0.120790899 13.4644809"></polygon>
        <linearGradient x1="3.061617e-15%" y1="50%" x2="100%" y2="50%" id="linearGradient-3">
            <stop stop-color="#B3E2F0" offset="0%"></stop>
            <stop stop-color="#0089BF" offset="100%"></stop>
        </linearGradient>
        <linearGradient x1="3.061617e-15%" y1="50%" x2="100%" y2="50%" id="linearGradient-4">
            <stop stop-color="#F9B7B5" offset="0%"></stop>
            <stop stop-color="#ED1C24" offset="100%"></stop>
        </linearGradient>
        <linearGradient x1="3.061617e-15%" y1="50%" x2="100%" y2="50%" id="linearGradient-5">
            <stop stop-color="#E4E5E4" offset="0%"></stop>
            <stop stop-color="#D8D9D8" offset="100%"></stop>
        </linearGradient>
    </defs>
    <g id="Home" stroke="none" stroke-width="1" fill="none" fill-rule="evenodd">
        <g id="VER_Home-02" transform="translate(-291.000000, -2618.000000)">
            <g id="STAT-+-PARTNERS" transform="translate(0.000000, 2258.000000)">
                <g id="Group-19" transform="translate(291.000000, 360.000000)">
                    <g id="ASI-logo">
                        <g id="Group-66" transform="translate(52.489951, 33.002084)">
                            <path d="M8.41593144,11.1846878 C8.23029625,11.1846878 8.12211574,11.1846878 8.04402093,10.9519446 L7.27075434,8.6719592 L2.90384649,8.6719592 L2.12929966,10.9519446 C2.0825708,11.1071067 1.99039333,11.1846878 1.80411801,11.1846878 L0.751118392,11.1846878 C0.550120288,11.1846878 0.50339143,11.0442725 0.550120288,10.8897515 L4.04966371,0.917059381 C4.21993599,0.420797086 4.35884232,0.311798907 4.83957345,0.296410929 L5.30366143,0.296410929 C5.86056701,0.296410929 5.98475055,0.451573042 6.13965992,0.917059381 L9.62448055,10.8897515 C9.6859322,11.0295257 9.63920334,11.1846878 9.43820523,11.1846878 L8.41593144,11.1846878 Z M5.8304813,4.17418142 L5.10202321,1.89419599 L5.02456852,1.89419599 L4.3281165,4.09660036 L3.27511688,7.41527432 L6.86811801,7.41527432 L5.8304813,4.17418142 Z" id="Fill-1" fill="#00447B"></path>
                            <path d="M12.1332441,10.8898157 C12.1332441,11.138588 12.0557895,11.1847519 11.8240655,11.1847519 L11.0495187,11.1847519 C10.8331577,11.1847519 10.724337,11.138588 10.724337,10.8898157 L10.724337,2.97911257 C10.724337,1.55251876 11.3433344,0.311863024 13.3411531,0.311863024 L17.4910598,0.311863024 C17.7387868,0.311863024 17.7855157,0.420220036 17.7855157,0.637575228 L17.7855157,1.27361166 C17.7855157,1.52174281 17.7387868,1.59932386 17.4910598,1.59932386 L13.3571562,1.59932386 C12.5051546,1.59932386 12.1332441,1.95581202 12.1332441,2.76239854 L12.1332441,10.8898157 Z" id="Fill-3" fill="#00447B"></path>
                            <path d="M26.0389843,11.1846878 L21.7341682,11.1846878 C19.7209866,11.1846878 19.116712,9.95942004 19.116712,8.53218506 L19.116712,2.97968962 C19.116712,1.55245464 19.8451701,0.311798907 21.7341682,0.311798907 L25.9615296,0.311798907 C26.1938937,0.311798907 26.2406225,0.420797086 26.2406225,0.637511111 L26.2406225,1.28893552 C26.2406225,1.52167869 26.1938937,1.59925974 25.9615296,1.59925974 L21.7495311,1.59925974 C20.8981697,1.59925974 20.5268994,1.97177705 20.5268994,2.77836357 L20.5268994,4.79418871 L25.4507128,4.79418871 C25.6824367,4.79418871 25.7298057,4.88779891 25.7298057,5.12054208 L25.7298057,5.70913224 C25.7298057,5.91109945 25.6824367,6.01945647 25.4507128,6.01945647 L20.5268994,6.01945647 L20.5268994,8.7187643 C20.5268994,9.41635264 20.8674439,9.88183898 21.7495311,9.88183898 L26.0389843,9.88183898 C26.2867113,9.88183898 26.3328,9.97480801 26.3328,10.2075512 L26.3328,10.8589756 C26.3328,11.0763308 26.2867113,11.1846878 26.0389843,11.1846878" id="Fill-5" fill="#00447B"></path>
                            <path d="M34.9894171,0.59109071 C34.9894171,0.373735519 35.0822347,0.327571585 35.2832328,0.327571585 L36.1205115,0.327571585 C36.3368725,0.327571585 36.4143272,0.373735519 36.4143272,0.59109071 L36.4143272,10.920271 C36.4143272,11.1382674 36.3368725,11.1844313 36.1205115,11.1844313 L35.2832328,11.1844313 C35.0822347,11.1844313 34.9894171,11.1382674 34.9894171,10.920271 L34.9894171,6.08139308 L29.5234209,6.08139308 L29.5234209,10.920271 C29.5234209,11.1382674 29.4459662,11.1844313 29.2296052,11.1844313 L28.3776036,11.1844313 C28.1919684,11.1844313 28.0831478,11.1382674 28.0831478,10.920271 L28.0831478,0.59109071 C28.0831478,0.373735519 28.1919684,0.327571585 28.3776036,0.327571585 L29.2296052,0.327571585 C29.4459662,0.327571585 29.5234209,0.373735519 29.5234209,0.59109071 L29.5234209,4.84073734 L34.9894171,4.84073734 L34.9894171,0.59109071 Z" id="Fill-7" fill="#00447B"></path>
                            <path d="M41.0443249,1.58380765 L38.0248725,1.58380765 C37.8392373,1.58380765 37.8085115,1.52161457 37.8085115,1.3356765 L37.8085115,0.575253916 C37.8085115,0.404703825 37.8392373,0.327122769 38.0248725,0.327122769 L45.612871,0.327122769 C45.7978661,0.327122769 45.829232,0.404703825 45.829232,0.575253916 L45.829232,1.3356765 C45.829232,1.52161457 45.7978661,1.58380765 45.612871,1.58380765 L42.500601,1.58380765 L42.500601,10.9211046 C42.500601,11.1378186 42.4231463,11.1846237 42.2215081,11.1846237 L41.3381406,11.1846237 C41.1377826,11.1846237 41.0443249,11.1378186 41.0443249,10.9211046 L41.0443249,1.58380765 Z" id="Fill-9" fill="#00447B"></path>
                            <path d="M53.4485324,9.46283716 C53.6802564,9.36986812 53.757711,9.49425428 53.8044399,9.58722332 L54.0988957,10.2380066 C54.2230793,10.4861377 54.1603474,10.5483308 54.021441,10.6425821 C53.01389,11.2311723 51.7285264,11.3549173 50.7382586,11.3549173 C47.8429898,11.3549173 46.1236238,9.66416321 46.1236238,5.91077887 C46.1236238,2.42091366 48.0292651,0.172345355 50.8470793,0.172345355 C51.7285264,0.172345355 52.6887084,0.280702368 53.7276253,0.807740619 C53.8511688,0.869933698 53.9126204,0.962902732 53.8044399,1.16486995 L53.4485324,1.87848743 C53.3864407,2.00223242 53.3390717,2.0644255 53.1687994,1.98684444 C52.4729875,1.67652022 51.6984407,1.50597013 50.9085309,1.50597013 C48.5541646,1.50597013 47.5792598,3.6615694 47.5792598,5.91077887 C47.5792598,8.17537632 48.3845324,10.0212925 50.9859856,10.0212925 C51.884716,10.0212925 52.7200743,9.78854936 53.4485324,9.46283716" id="Fill-11" fill="#00447B"></path>
                            <path d="M58.3113423,1.58380765 L55.2912498,1.58380765 C55.1056146,1.58380765 55.0748887,1.52161457 55.0748887,1.3356765 L55.0748887,0.575253916 C55.0748887,0.404703825 55.1056146,0.327122769 55.2912498,0.327122769 L62.8798884,0.327122769 C63.0648834,0.327122769 63.0962494,0.404703825 63.0962494,0.575253916 L63.0962494,1.3356765 C63.0962494,1.52161457 63.0648834,1.58380765 62.8798884,1.58380765 L59.7669782,1.58380765 L59.7669782,10.9211046 C59.7669782,11.1378186 59.6895235,11.1846237 59.4878853,11.1846237 L58.605158,11.1846237 C58.4048,11.1846237 58.3113423,11.1378186 58.3113423,10.9211046 L58.3113423,1.58380765 Z" id="Fill-13" fill="#00447B"></path>
                            <path d="M70.6686929,5.22857851 C71.9540566,5.66264772 72.4488704,6.84175155 72.4488704,7.9586623 C72.4488704,9.88087723 70.9164199,11.1850084 68.9346042,11.1850084 L65.2641484,11.1850084 C64.7072428,11.1850084 64.4748787,10.9522652 64.4748787,10.409839 L64.4748787,1.10267687 C64.4748787,0.559609472 64.6758768,0.311478324 65.2641484,0.311478324 L68.7169629,0.296090346 C70.605961,0.296090346 71.9847824,1.07190091 71.9847824,2.96398106 C71.9847824,3.89495373 71.4733254,4.73231621 70.6686929,5.12022149 L70.6686929,5.22857851 Z M65.8991487,4.68615228 L68.7483289,4.68615228 C69.429418,4.68615228 70.5137835,4.39121603 70.5137835,3.05695009 C70.5137835,2.18881166 69.8787832,1.59893916 68.8718723,1.59893916 L65.8991487,1.59893916 L65.8991487,4.68615228 Z M68.7790547,5.88000291 L65.8991487,5.88000291 L65.8991487,9.88087723 L68.7790547,9.88087723 C70.5598723,9.88087723 70.9938746,8.67163862 70.9938746,7.84966412 C70.9938746,6.68658944 70.2193277,5.88000291 68.7790547,5.88000291 L68.7790547,5.88000291 Z" id="Fill-15" fill="#00447B"></path>
                            <path d="M78.1013339,11.3549814 C75.0665186,11.3549814 73.5327879,9.35454426 73.5327879,5.77106885 C73.5327879,2.17284663 75.4845179,0.157021494 78.1326999,0.157021494 C81.1675152,0.157021494 82.7473347,2.25042769 82.7473347,5.70951694 C82.7473347,9.32312714 81.1521523,11.3549814 78.1013339,11.3549814 M78.1787886,1.42845319 C75.9639688,1.42845319 74.957698,3.39811439 74.957698,5.70951694 C74.957698,8.26840947 75.701519,10.0841909 78.1160567,10.0841909 C80.5325148,10.0841909 81.2904185,8.00489035 81.2904185,5.77106885 C81.2904185,3.50711257 80.7027871,1.42845319 78.1787886,1.42845319" id="Fill-17" fill="#00447B"></path>
                            <path d="M7.99089086,24.2747279 C8.28150595,24.151624 8.37368343,24.2285639 8.4658609,24.4587424 L8.98691968,25.563471 C9.12390565,25.8539191 9.07845703,25.961635 8.89474221,26.0693508 C7.79181312,26.7444984 6.53653515,26.9291541 5.35679151,26.9291541 C2.01727842,26.9291541 0.531556769,24.8581887 0.531556769,21.451675 C0.531556769,18.1073545 2.52361441,15.8677625 5.46369177,15.8677625 C6.50516921,15.8677625 7.51592082,16.0056131 8.4658609,16.5268809 C8.69566447,16.6493435 8.72639029,16.7269246 8.5887642,17.0641778 L8.11315404,18.1221013 C8.00625377,18.3990849 7.94544224,18.4599956 7.65418703,18.3529209 C6.91932772,18.0913253 6.33617717,17.9541158 5.57059204,17.9541158 C3.88579264,17.9541158 2.98322154,19.4570084 2.98322154,21.451675 C2.98322154,23.4457005 3.64126629,24.8107424 5.63204369,24.8107424 C6.59734668,24.8107424 7.33220599,24.5202944 7.99089086,24.2747279" id="Fill-19" fill="#00447B"></path>
                            <path d="M17.8533685,18.0146419 L15.0816431,18.0146419 L15.0816431,26.4376364 C15.0816431,26.6979497 15.0201914,26.7601428 14.7142134,26.7601428 L13.0748626,26.7601428 C12.8303363,26.7601428 12.7221558,26.6832029 12.7221558,26.4376364 L12.7221558,18.0146419 L10.0112419,18.0146419 C9.79744133,18.0146419 9.72062677,17.922314 9.72062677,17.7075235 L9.72062677,16.3431228 C9.72062677,16.0821683 9.78207842,16.0206164 10.0112419,16.0206164 L17.8533685,16.0206164 C18.098535,16.0206164 18.1599867,16.0821683 18.1599867,16.3431228 L18.1599867,17.7075235 C18.1599867,17.922314 18.0684493,18.0146419 17.8533685,18.0146419" id="Fill-21" fill="#00447B"></path>
                            <path d="M21.8038134,26.4374441 C21.8038134,26.7144277 21.7430019,26.7599505 21.4370239,26.7599505 L19.8283989,26.7599505 C19.5832325,26.7599505 19.4763322,26.6830106 19.4763322,26.4374441 L19.4763322,16.9411381 C19.4763322,16.3743475 19.660047,16.0050361 20.3949063,16.0050361 L24.1479378,16.0050361 C26.3678786,16.0050361 27.7313371,17.4175242 27.7313371,19.366027 C27.7313371,20.4079213 27.2870929,22.862945 23.8413197,22.862945 L21.8038134,22.862945 L21.8038134,26.4374441 Z M23.7952309,18.0612546 L21.8038134,18.0612546 L21.8038134,20.9759942 L23.8105939,20.9759942 C24.8520713,20.9759942 25.3270413,20.3316226 25.3270413,19.5186244 C25.3270413,18.9351636 25.0357861,18.0612546 23.7952309,18.0612546 L23.7952309,18.0612546 Z" id="Fill-23" fill="#00447B"></path>
                            <path d="M33.5666834,24.5201661 L30.0588184,24.5201661 L29.4615851,26.4686689 C29.4001335,26.6680714 29.3233189,26.7591169 29.0327038,26.7591169 L27.2410042,26.7591169 C27.0265635,26.7591169 26.9804748,26.6065195 27.0265635,26.4526397 L30.2124475,16.833871 C30.426248,16.1273064 30.7021403,16.0048437 31.3307395,15.9900969 L32.2486735,15.9900969 C32.9387243,15.9900969 33.1992537,16.0824248 33.4437801,16.833871 L36.629664,26.4526397 C36.6757527,26.5751024 36.6450269,26.7591169 36.4305863,26.7591169 L34.6081608,26.7591169 C34.3777171,26.7591169 34.2253682,26.7289821 34.1639166,26.5141916 L33.5666834,24.5201661 Z M30.610603,22.6171862 L33.0155389,22.6171862 L32.4323883,20.6686834 L31.8658809,18.4752554 L31.7737035,18.4752554 L31.1924733,20.6686834 L30.610603,22.6171862 Z" id="Fill-25" fill="#00447B"></path>
                            <path d="M44.3949761,18.0146419 L41.6219704,18.0146419 L41.6219704,26.4376364 C41.6219704,26.6979497 41.5611589,26.7601428 41.2545408,26.7601428 L39.6164702,26.7601428 C39.3706636,26.7601428 39.2631232,26.6832029 39.2631232,26.4376364 L39.2631232,18.0146419 L36.5528495,18.0146419 C36.3390489,18.0146419 36.2615942,17.922314 36.2615942,17.7075235 L36.2615942,16.3431228 C36.2615942,16.0821683 36.3230459,16.0206164 36.5528495,16.0206164 L44.3949761,16.0206164 C44.6395025,16.0206164 44.7009541,16.0821683 44.7009541,16.3431228 L44.7009541,17.7075235 C44.7009541,17.922314 44.6087766,18.0146419 44.3949761,18.0146419" id="Fill-27" fill="#00447B"></path>
                            <path d="M53.3841362,26.7592452 L48.8507968,26.7592452 C46.5841271,26.7592452 46.0169796,25.3326514 46.0169796,23.9374747 L46.0169796,18.8434128 C46.0169796,17.3866842 46.7678419,16.0056131 48.8354339,16.0056131 L53.2305071,16.0056131 C53.4769538,16.0056131 53.5217623,16.082553 53.5217623,16.3736423 L53.5217623,17.6777734 C53.5217623,17.9380867 53.4615909,18.0143854 53.2305071,18.0143854 L49.3417699,18.0143854 C48.5441787,18.0143854 48.3457411,18.4298608 48.3457411,18.9665166 L48.3457411,20.1469027 L52.7414544,20.1469027 C52.9866209,20.1469027 53.0314294,20.2244838 53.0314294,20.515573 L53.0314294,21.7126295 C53.0314294,21.958196 52.9866209,22.0652707 52.7414544,22.0652707 L48.3457411,22.0652707 L48.3457411,23.8137297 C48.3457411,24.5202944 48.6971677,24.7344437 49.3417699,24.7344437 L53.3841362,24.7344437 C53.6446656,24.7344437 53.6907543,24.7953545 53.6907543,25.1024729 L53.6907543,26.4059628 C53.6907543,26.6528117 53.6293027,26.7592452 53.3841362,26.7592452" id="Fill-29" fill="#00447B"></path>
                            <path d="M57.7331207,26.4374441 C57.7331207,26.7144277 57.6876721,26.7599505 57.3797737,26.7599505 L55.7577062,26.7599505 C55.5118996,26.7599505 55.4043592,26.6830106 55.4043592,26.4374441 L55.4043592,18.8434769 C55.4043592,17.3861071 56.1097729,16.0050361 58.2228135,16.0050361 L62.6332496,16.0050361 C62.8944191,16.0050361 62.941148,16.0826171 62.941148,16.3743475 L62.941148,17.6778375 C62.941148,17.938792 62.8796963,18.0150907 62.6332496,18.0150907 L58.7291495,18.0150907 C57.9328385,18.0150907 57.7331207,18.4138958 57.7331207,18.9665807 L57.7331207,26.4374441 Z" id="Fill-31" fill="#00447B"></path>
                            <path d="M70.9349834,19.579984 L69.572165,21.881769 L66.9828742,26.0852517 C66.6308074,26.6526834 66.4630956,26.7591169 65.8344965,26.7591169 L65.2212602,26.7591169 C64.4262295,26.7591169 64.2271518,26.345565 64.2271518,25.7011934 L64.2271518,16.2965741 C64.2271518,16.0824248 64.3186891,16.0054849 64.5478526,16.0054849 L66.1878435,16.0054849 C66.4630956,16.0054849 66.5091844,16.0670368 66.5091844,16.2965741 L66.5091844,23.2000058 L66.6007217,23.2000058 L67.9027286,21.0527417 L70.5515507,16.6960204 C70.9048977,16.1125596 71.0726095,16.0054849 71.6852056,16.0054849 L72.3131647,16.0054849 C73.064027,16.0054849 73.3091935,16.2811862 73.3091935,17.0794375 L73.3091935,26.4686689 C73.3091935,26.6828182 73.217016,26.7591169 72.9865723,26.7591169 L71.3485018,26.7591169 C71.0726095,26.7591169 71.0111578,26.6982062 71.0111578,26.4686689 L71.0111578,19.579984 L70.9349834,19.579984 Z" id="Fill-33" fill="#00447B"></path>
                            <path d="M83.2179519,26.7592452 L81.5485154,26.7592452 C81.303349,26.7592452 81.2271745,26.6829464 81.2271745,26.4681559 L81.2271745,22.9859847 C80.6293012,23.0776714 79.9859792,23.1238353 79.4041089,23.1238353 C76.218225,23.1238353 75.0839299,21.6510776 75.0839299,19.2883818 L75.0839299,16.2967024 C75.0839299,16.082553 75.1761074,16.0056131 75.4065511,16.0056131 L77.0913505,16.0056131 C77.3518799,16.0056131 77.4126914,16.067165 77.4126914,16.2967024 L77.4126914,19.0588444 C77.4126914,20.5001851 78.1475507,21.0676168 79.710727,21.0676168 C80.1997797,21.0676168 80.7362014,21.0227352 81.2271745,20.9297661 L81.2271745,16.2967024 C81.2271745,16.082553 81.303349,16.0056131 81.5485154,16.0056131 L83.2179519,16.0056131 C83.4938442,16.0056131 83.5546557,16.067165 83.5546557,16.2967024 L83.5546557,26.4681559 C83.5546557,26.6976933 83.4938442,26.7592452 83.2179519,26.7592452" id="Fill-35" fill="#00447B"></path>
                            <path d="M93.2179917,26.7592452 L88.6846523,26.7592452 C86.4179826,26.7592452 85.8514752,25.3326514 85.8514752,23.9374747 L85.8514752,18.8434128 C85.8514752,17.3866842 86.6016974,16.0056131 88.6699295,16.0056131 L93.0656428,16.0056131 C93.3108093,16.0056131 93.3562579,16.082553 93.3562579,16.3736423 L93.3562579,17.6777734 C93.3562579,17.9380867 93.2948062,18.0143854 93.0656428,18.0143854 L89.1749852,18.0143854 C88.3780341,18.0143854 88.1789564,18.4298608 88.1789564,18.9665166 L88.1789564,20.1469027 L92.5753098,20.1469027 C92.8198362,20.1469027 92.866565,20.2244838 92.866565,20.515573 L92.866565,21.7126295 C92.866565,21.958196 92.8198362,22.0652707 92.5753098,22.0652707 L88.1789564,22.0652707 L88.1789564,23.8137297 C88.1789564,24.5202944 88.5310231,24.7344437 89.1749852,24.7344437 L93.2179917,24.7344437 C93.478521,24.7344437 93.5246098,24.7953545 93.5246098,25.1024729 L93.5246098,26.4059628 C93.5246098,26.6528117 93.4631581,26.7592452 93.2179917,26.7592452" id="Fill-37" fill="#00447B"></path>
                            <path d="M102.085273,24.2747279 C102.376528,24.151624 102.468705,24.2285639 102.560243,24.4587424 L103.081301,25.563471 C103.218928,25.8539191 103.172839,25.961635 102.989124,26.0693508 C101.885555,26.7444984 100.630917,26.9291541 99.4518134,26.9291541 C96.1116602,26.9291541 94.6259386,24.8581887 94.6259386,21.451675 C94.6259386,18.1073545 96.6179962,15.8677625 99.5580736,15.8677625 C100.599551,15.8677625 101.610943,16.0056131 102.560243,16.5268809 C102.790046,16.6493435 102.820772,16.7269246 102.683786,17.0641778 L102.206896,18.1221013 C102.100636,18.3990849 102.039824,18.4599956 101.748569,18.3529209 C101.01371,18.0913253 100.431199,17.9541158 99.665614,17.9541158 C97.9808146,17.9541158 97.0776033,19.4570084 97.0776033,21.451675 C97.0776033,23.4457005 97.7356481,24.8107424 99.7264255,24.8107424 C100.691728,24.8107424 101.427228,24.5202944 102.085273,24.2747279" id="Fill-39" fill="#00447B"></path>
                            <path d="M110.998834,21.0376102 C112.055675,21.3902514 112.316844,21.9878179 112.545368,22.8937851 L113.494668,26.4535373 C113.526034,26.5599709 113.542037,26.7600146 113.280867,26.7600146 L111.50389,26.7600146 C111.39763,26.7600146 111.258724,26.7439854 111.198552,26.545224 L110.263975,23.2464262 C109.957357,22.1878616 109.420935,21.9583242 108.348732,21.9583242 L107.092814,21.9583242 L107.108177,26.5138069 C107.108177,26.7292386 107.032002,26.7600146 106.832925,26.7600146 L105.056588,26.7600146 C104.872873,26.7600146 104.780056,26.7292386 104.780056,26.5138069 L104.780056,16.2666958 C104.780056,16.0512641 104.872873,16.0204882 105.056588,16.0204882 L106.848288,16.0204882 C107.046725,16.0204882 107.12354,16.0512641 107.092814,16.2666958 L107.092814,20.1784481 L108.318646,20.1784481 C108.931883,20.1784481 109.742276,20.0553443 110.07962,18.7980182 L110.769671,16.2045027 C110.81512,16.0057413 110.967468,15.9903534 111.075009,15.9903534 L112.790534,15.9903534 C113.051704,15.9903534 113.035701,16.1891148 113.005615,16.2961894 L112.301481,19.0429435 C112.101764,19.9021056 111.642797,20.576612 110.998834,20.9606703 L110.998834,21.0376102 Z" id="Fill-41" fill="#00447B"></path>
                            <path d="M121.810868,19.579984 L120.44741,21.881769 L117.859399,26.0852517 C117.506692,26.6526834 117.33898,26.7591169 116.710381,26.7591169 L116.097785,26.7591169 C115.300834,26.7591169 115.103036,26.345565 115.103036,25.7011934 L115.103036,16.2965741 C115.103036,16.0824248 115.194574,16.0054849 115.424377,16.0054849 L117.062448,16.0054849 C117.33898,16.0054849 117.385069,16.0670368 117.385069,16.2965741 L117.385069,23.2000058 L117.476606,23.2000058 L118.777973,21.0527417 L121.428076,16.6960204 C121.780782,16.1125596 121.948494,16.0054849 122.56109,16.0054849 L123.189689,16.0054849 C123.939912,16.0054849 124.185078,16.2811862 124.185078,17.0794375 L124.185078,26.4686689 C124.185078,26.6828182 124.092901,26.7591169 123.863737,26.7591169 L122.224386,26.7591169 C121.948494,26.7591169 121.887683,26.6982062 121.887683,26.4686689 L121.887683,19.579984 L121.810868,19.579984 Z" id="Fill-43" fill="#00447B"></path>
                            <path d="M130.049934,23.0775432 L128.196783,26.4058346 C128.012428,26.6828182 127.905527,26.7597581 127.523375,26.7597581 L125.638858,26.7597581 C125.455143,26.7597581 125.410334,26.5904903 125.486509,26.453922 L128.748567,21.1752044 L125.761761,16.2965741 C125.670224,16.1734703 125.715672,16.006126 125.945476,16.006126 L127.738456,16.006126 C128.136611,16.006126 128.243512,16.0670368 128.397141,16.3427381 L130.08194,19.3344175 L131.750096,16.3427381 C131.903725,16.0670368 132.010626,16.006126 132.410061,16.006126 L134.170395,16.006126 C134.400839,16.006126 134.430925,16.1734703 134.339387,16.3119621 L131.383947,21.1604576 L134.646005,26.453922 C134.72218,26.5904903 134.660728,26.7597581 134.491736,26.7597581 L132.577773,26.7597581 C132.210344,26.7597581 132.08808,26.6828182 131.919088,26.4058346 L130.049934,23.0775432 Z" id="Fill-45" fill="#00447B"></path>
                            <path d="M8.1593708,35.1551825 L6.79591232,37.4569676 L4.20790171,41.6604503 C3.85519484,42.2272408 3.68684293,42.3343155 3.05888388,42.3343155 L2.44628775,42.3343155 C1.64933667,42.3343155 1.45089905,41.9207636 1.45089905,41.2770332 L1.45089905,31.8724138 C1.45089905,31.6576233 1.54243641,31.5806834 1.77288009,31.5806834 L3.41095063,31.5806834 C3.68684293,31.5806834 3.73293166,31.6422353 3.73293166,31.8724138 L3.73293166,38.7752044 L3.82446902,38.7752044 L5.12647584,36.6279403 L7.77657823,32.2712189 C8.1292851,31.6877581 8.29699689,31.5806834 8.90959302,31.5806834 L9.53819219,31.5806834 C10.2884144,31.5806834 10.5329408,31.8563847 10.5329408,32.6546361 L10.5329408,42.0432262 C10.5329408,42.2573756 10.4414034,42.3343155 10.2115998,42.3343155 L8.57288919,42.3343155 C8.29699689,42.3343155 8.23618536,42.2734047 8.23618536,42.0432262 L8.23618536,35.1551825 L8.1593708,35.1551825 Z" id="Fill-47" fill="#00447B"></path>
                            <path d="M21.2843549,42.3350849 L19.6763701,42.3350849 C19.4158407,42.3350849 19.3236633,42.258145 19.3236633,42.0125785 L19.3236633,37.7174091 L15.1731164,37.7174091 L15.1731164,42.0125785 C15.1731164,42.2728918 15.1116648,42.3350849 14.8056868,42.3350849 L13.1816989,42.3350849 C12.9371725,42.3350849 12.8302723,42.258145 12.8302723,42.0125785 L12.8302723,31.9180648 C12.8302723,31.6718572 12.9371725,31.5961996 13.1816989,31.5961996 L14.8056868,31.5961996 C15.1116648,31.5961996 15.1731164,31.6577515 15.1731164,31.9180648 L15.1731164,35.7381304 L19.3236633,35.7381304 L19.3236633,31.9180648 C19.3236633,31.6718572 19.4158407,31.5961996 19.6763701,31.5961996 L21.2843549,31.5961996 C21.590333,31.5961996 21.6517846,31.6577515 21.6517846,31.9180648 L21.6517846,42.0125785 C21.6517846,42.2728918 21.590333,42.3350849 21.2843549,42.3350849" id="Fill-49" fill="#00447B"></path>
                            <path d="M30.6567557,35.1551825 L29.2939374,37.4569676 L26.7052866,41.6604503 C26.3532199,42.2272408 26.184868,42.3343155 25.5569089,42.3343155 L24.9436727,42.3343155 C24.1480018,42.3343155 23.9489241,41.9207636 23.9489241,41.2770332 L23.9489241,31.8724138 C23.9489241,31.6576233 24.0411016,31.5806834 24.270265,31.5806834 L25.9096158,31.5806834 C26.184868,31.5806834 26.2309567,31.6422353 26.2309567,31.8724138 L26.2309567,38.7752044 L26.322494,38.7752044 L27.6245009,36.6279403 L30.2739631,32.2712189 C30.62667,31.6877581 30.7950219,31.5806834 31.4069779,31.5806834 L32.0355771,31.5806834 C32.7857993,31.5806834 33.0309658,31.8563847 33.0309658,32.6546361 L33.0309658,42.0432262 C33.0309658,42.2573756 32.9394284,42.3343155 32.7089848,42.3343155 L31.0709142,42.3343155 C30.7950219,42.3343155 30.7335703,42.2734047 30.7335703,42.0432262 L30.7335703,35.1551825 L30.6567557,35.1551825 Z" id="Fill-51" fill="#00447B"></path>
                            <g id="Group-55" transform="translate(35.206674, 31.417122)">
                                <mask id="mask-2" fill="white">
                                    <use xlink:href="#path-1"></use>
                                </mask>
                                <g id="Clip-54"></g>
                                <path d="M8.92758043,8.86174426 L9.69316557,8.93868415 C10.2455903,8.98420692 10.2910389,9.24580255 10.275676,9.61319053 L10.1073241,13.1575548 C10.0919612,13.3575985 10.0145065,13.4646732 9.81606887,13.4646732 L8.52942495,13.4646732 C8.31562442,13.4646732 8.23880986,13.3717042 8.22280683,13.142808 L8.13126947,10.9173217 L1.10145681,10.9173217 C0.396683201,10.9173217 0.120790899,10.5807097 0.120790899,9.89017413 L0.120790899,0.455420036 C0.120790899,0.240629508 0.212968373,0.163689617 0.442771938,0.163689617 L2.12757133,0.163689617 C2.40346363,0.163689617 2.46427516,0.224600364 2.46427516,0.455420036 L2.46427516,8.9079082 L6.59881896,8.9079082 L6.59881896,0.455420036 C6.59881896,0.240629508 6.69163656,0.163689617 6.90607721,0.163689617 L8.5908766,0.163689617 C8.88213182,0.163689617 8.92758043,0.224600364 8.92758043,0.455420036 L8.92758043,8.86174426 Z" id="Fill-53" fill="#00447B" mask="url(#mask-2)"></path>
                            </g>
                            <path d="M53.430417,35.1551825 L52.0675986,37.4569676 L49.4783078,41.6604503 C49.1256009,42.2272408 48.9585292,42.3343155 48.3299301,42.3343155 L47.7166938,42.3343155 C46.9216631,42.3343155 46.7225854,41.9207636 46.7225854,41.2770332 L46.7225854,31.8724138 C46.7225854,31.6576233 46.8141227,31.5806834 47.0432862,31.5806834 L48.6832771,31.5806834 C48.9585292,31.5806834 49.0033377,31.6422353 49.0033377,31.8724138 L49.0033377,38.7752044 L49.0961553,38.7752044 L50.397522,36.6279403 L53.0469843,32.2712189 C53.3996912,31.6877581 53.5680431,31.5806834 54.1806392,31.5806834 L54.8085983,31.5806834 C55.5588205,31.5806834 55.8046271,31.8563847 55.8046271,32.6546361 L55.8046271,42.0432262 C55.8046271,42.2573756 55.7124496,42.3343155 55.4820059,42.3343155 L53.8439354,42.3343155 C53.5680431,42.3343155 53.5065914,42.2734047 53.5065914,42.0432262 L53.5065914,35.1551825 L53.430417,35.1551825 Z" id="Fill-56" fill="#00447B"></path>
                            <path d="M63.400435,40.0947876 L59.8932102,40.0947876 L59.2953368,42.0432903 C59.2338852,42.2433341 59.1583509,42.3343796 58.8670956,42.3343796 L57.0747559,42.3343796 C56.8596751,42.3343796 56.8148666,42.181141 56.8596751,42.0285435 L60.0461992,32.4097749 C60.2599997,31.702569 60.5352519,31.5807475 61.1644912,31.5653596 L62.0830653,31.5653596 C62.772476,31.5653596 63.0330054,31.6570463 63.278812,32.4097749 L66.4640558,42.0285435 C66.5088643,42.150365 66.4794187,42.3343796 66.2656182,42.3343796 L64.4419125,42.3343796 C64.212749,42.3343796 64.0584798,42.3042448 63.9989485,42.0894543 L63.400435,40.0947876 Z M60.4443546,38.1924488 L62.8492906,38.1924488 L62.2667801,36.2439461 L61.7002727,34.050518 L61.6080953,34.050518 L61.0268651,36.2439461 L60.4443546,38.1924488 Z" id="Fill-58" fill="#00447B"></path>
                            <path d="M74.2280877,33.5904175 L71.4563622,33.5904175 L71.4563622,42.0127709 C71.4563622,42.2730842 71.3942705,42.3352772 71.0876523,42.3352772 L69.4495818,42.3352772 C69.2037752,42.3352772 69.0968749,42.2583373 69.0968749,42.0127709 L69.0968749,33.5904175 L66.3866011,33.5904175 C66.1728006,33.5904175 66.0953459,33.4974485 66.0953459,33.2832991 L66.0953459,31.9182572 C66.0953459,31.6566616 66.1567976,31.5957508 66.3866011,31.5957508 L74.2280877,31.5957508 C74.4732542,31.5957508 74.5347058,31.6566616 74.5347058,31.9182572 L74.5347058,33.2832991 C74.5347058,33.4974485 74.4431684,33.5904175 74.2280877,33.5904175" id="Fill-60" fill="#00447B"></path>
                            <path d="M82.5597151,35.1551825 L81.1956165,37.4569676 L78.6076059,41.6604503 C78.2548991,42.2272408 78.0871873,42.3343155 77.4585881,42.3343155 L76.845992,42.3343155 C76.049681,42.3343155 75.8512434,41.9207636 75.8512434,41.2770332 L75.8512434,31.8724138 C75.8512434,31.6576233 75.9421406,31.5806834 76.1725843,31.5806834 L77.811295,31.5806834 C78.0871873,31.5806834 78.1326359,31.6422353 78.1326359,31.8724138 L78.1326359,38.7752044 L78.2248133,38.7752044 L79.5268202,36.6279403 L82.1762824,32.2712189 C82.5296294,31.6877581 82.6973412,31.5806834 83.3099374,31.5806834 L83.9385365,31.5806834 C84.6887587,31.5806834 84.932645,31.8563847 84.932645,32.6546361 L84.932645,42.0432262 C84.932645,42.2573756 84.8411076,42.3343155 84.6113041,42.3343155 L82.9732335,42.3343155 C82.6973412,42.3343155 82.6358896,42.2734047 82.6358896,42.0432262 L82.6358896,35.1551825 L82.5597151,35.1551825 Z" id="Fill-62" fill="#00447B"></path>
                            <path d="M94.0156469,36.4588007 C95.1793875,36.9191577 95.6537174,38.0238863 95.6537174,39.067063 C95.6537174,41.0155658 94.0457326,42.3344437 91.9935035,42.3344437 L88.1495748,42.3344437 C87.4140754,42.3344437 87.2303606,42.0587424 87.2303606,41.3989829 L87.2303606,32.5316605 C87.2303606,31.8872889 87.4140754,31.5808117 88.1495748,31.5808117 L91.9019662,31.5808117 C93.7557576,31.5808117 95.1947504,32.3623927 95.1947504,34.2955075 C95.1947504,35.1392816 94.7044174,35.9683089 94.0156469,36.351726 L94.0156469,36.4588007 Z M89.5584819,35.6611905 L91.6414368,35.6611905 C92.1471327,35.6611905 92.7904546,35.461788 92.7904546,34.6026259 C92.7904546,33.9890302 92.3762961,33.6210011 91.7176112,33.6210011 L89.5584819,33.6210011 L89.5584819,35.6611905 Z M91.7637,37.5340357 L89.5584819,37.5340357 L89.5584819,40.2788663 L91.7637,40.2788663 C92.9280807,40.2788663 93.2507019,39.4966441 93.2507019,38.9138244 C93.2507019,38.1014674 92.729003,37.5340357 91.7637,37.5340357 L91.7637,37.5340357 Z" id="Fill-64" fill="#00447B"></path>
                        </g>
                        <polygon id="Fill-67" fill="url(#linearGradient-3)" points="28.7472097 5.50569035 47.9175639 16.5651585 57.4982601 11.0107395"></polygon>
                        <polygon id="Fill-69" fill="url(#linearGradient-4)" points="0 -1.42108547e-14 19.1716344 11.058827 28.7497702 5.50504918"></polygon>
                        <polygon id="Fill-71" fill="url(#linearGradient-5)" points="19.1831566 22.1535592 38.3541509 33.2130273 47.9329268 27.6586084"></polygon>
                        <g id="Group-79" transform="translate(18.563519, 5.431956)">
                            <polygon id="Fill-73" fill="#0078C1" points="38.9336528 5.57859089 29.365759 22.2283832 29.3548769 11.1330098"></polygon>
                            <polygon id="Fill-75" fill="#95A0A9" points="29.3692796 22.2266521 19.8026661 38.8764444 19.7911439 27.781071"></polygon>
                            <polygon id="Fill-77" fill="#A30046" points="10.1863151 0.0732211293 0.6203416 16.7230135 0.608179295 5.62764007"></polygon>
                        </g>
                    </g>
                </g>
            </g>
        </g>
    </g>
</svg>