<?xml version="1.0" encoding="UTF-8"?>
<svg width="300px" height="295px" viewBox="0 0 300 295" version="1.1" xmlns="http://www.w3.org/2000/svg" xmlns:xlink="http://www.w3.org/1999/xlink">
    <!-- Generator: Sketch 43.2 (39069) - http://www.bohemiancoding.com/sketch -->
    <title>Diagram</title>
    <desc>Created with Sketch.</desc>
    <defs></defs>
    <g id="Home" stroke="none" stroke-width="1" fill="none" fill-rule="evenodd">
        <g id="VER_HowWeWork-Cards" transform="translate(-594.000000, -1211.000000)">
            <g id="Diagram" transform="translate(594.000000, 1211.000000)">
                <g id="Grey-lines" opacity="0.21" transform="translate(20.380435, 15.483425)" stroke="#E6E6E6" stroke-width="2" stroke-linejoin="bevel">
                    <path d="M202.640543,234.816659 C181.754674,249.415899 156.341087,257.987198 128.92125,257.987198 C101.502228,257.987198 76.0886413,249.415899 55.2027717,234.816659" id="Stroke-1"></path>
                    <path d="M250.669891,87.1161077 C233.468804,37.4200166 186.684293,1.53432597 131.366902,0.504270718" id="Stroke-3"></path>
                    <path d="M252.180082,91.7660249 C255.781712,103.621439 257.726005,116.198055 257.726005,129.23021 C257.726005,171.176439 237.656168,208.43282 206.595571,231.94155" id="Stroke-5"></path>
                    <path d="M7.1730163,87.1161077 C24.3741033,37.4200166 71.1586141,1.53432597 126.476005,0.504270718" id="Stroke-7"></path>
                    <path d="M5.66282609,91.7660249 C2.06119565,103.621439 0.116902174,116.198055 0.116902174,129.23021 C0.116902174,171.176439 20.1867391,208.43282 51.247337,231.94155" id="Stroke-9"></path>
                    <path d="M126.475842,13.5427818 C76.9546467,14.5695773 35.0834511,46.678942 19.584538,91.1465249" id="Stroke-11"></path>
                    <path d="M238.258533,91.1469323 C222.75962,46.6793494 180.888424,14.5691699 131.367228,13.5431892" id="Stroke-13"></path>
                    <path d="M239.768723,95.7968494 C242.959484,106.382623 244.682038,117.604847 244.682038,129.22964 C244.682038,166.839695 226.728505,200.253742 198.926332,221.388617" id="Stroke-15"></path>
                    <path d="M18.0741848,95.7968494 C14.8834239,106.382623 13.1608696,117.604847 13.1608696,129.22964 C13.1608696,166.839695 31.1144022,200.253742 58.9165761,221.388617" id="Stroke-17"></path>
                    <path d="M194.971549,224.265682 C176.238668,237.299467 153.475353,244.948279 128.921821,244.948279 C104.367473,244.948279 81.6041576,237.299467 62.8712772,224.265682" id="Stroke-19"></path>
                    <path d="M225.847174,95.1777569 C212.05125,55.9378674 175.090924,27.602384 131.367554,26.5812928" id="Stroke-21"></path>
                    <path d="M187.303451,213.713972 C170.72356,225.183931 150.609701,231.909442 128.921658,231.909442 C107.232799,231.909442 87.1189402,225.183931 70.5398641,213.713972" id="Stroke-23"></path>
                    <path d="M227.357364,99.828489 C230.138071,109.143807 231.638886,119.010823 231.638886,129.229884 C231.638886,162.50295 215.802473,192.073848 191.257908,210.837315" id="Stroke-25"></path>
                    <path d="M126.475842,26.5814558 C82.7516576,27.602547 45.7913315,55.9372155 31.9954076,95.1779199" id="Stroke-27"></path>
                    <path d="M30.4855435,99.828489 C27.704837,109.143807 26.2040217,119.010823 26.2040217,129.229884 C26.2040217,162.50295 42.0404348,192.073848 66.585,210.837315" id="Stroke-29"></path>
                    <path d="M179.633723,203.162996 C165.210082,213.069128 147.744864,218.870523 128.921495,218.870523 C110.098125,218.870523 92.6329076,213.069128 78.2092663,203.162996" id="Stroke-31"></path>
                    <path d="M42.896087,103.859314 C40.52625,111.904175 39.2471739,120.4168 39.2471739,129.230128 C39.2471739,158.167021 52.9672826,183.895584 74.2542391,200.285198" id="Stroke-33"></path>
                    <path d="M126.475842,39.623308 C88.5478533,40.6386948 56.4983967,65.1970373 44.4062772,99.2092334" id="Stroke-35"></path>
                    <path d="M214.946821,103.859314 C217.316658,111.904175 218.595734,120.4168 218.595734,129.230128 C218.595734,158.167021 204.875625,183.895584 183.588668,200.285198" id="Stroke-37"></path>
                    <path d="M213.436549,99.2093149 C201.344429,65.1971188 169.295788,40.6387762 131.366984,39.6233895" id="Stroke-39"></path>
                    <path d="M126.475842,52.6707017 C94.3448641,53.6779392 67.2030163,74.4550663 56.817962,103.240384" id="Stroke-41"></path>
                    <path d="M55.3075272,107.890953 C53.3461141,114.665359 52.2912228,121.824406 52.2912228,129.230373 C52.2912228,153.829461 63.8933967,175.718135 81.9235598,189.733895" id="Stroke-43"></path>
                    <path d="M171.965543,192.612019 C159.695707,200.954326 144.878315,205.83242 128.92125,205.83242 C112.964185,205.83242 98.1467935,200.954326 85.8769565,192.612019" id="Stroke-45"></path>
                    <path d="M201.02519,103.24014 C190.640136,74.4556367 163.498288,53.6785097 131.36731,52.6704572" id="Stroke-47"></path>
                    <path d="M175.919103,189.733569 C193.949266,175.718624 205.552255,153.829135 205.552255,129.230047 C205.552255,121.82408 204.497364,114.665033 202.535136,107.890627" id="Stroke-49"></path>
                    <path d="M89.6039674,179.165887 C74.8305978,167.52724 65.3341304,149.492309 65.3341304,129.23021 C65.3341304,123.22916 66.1844022,117.431025 67.7390217,111.92789" id="Stroke-51"></path>
                    <path d="M168.239022,179.165887 C183.012391,167.52724 192.508043,149.492309 192.508043,129.23021 C192.508043,123.22916 191.658587,117.431025 190.103967,111.92789" id="Stroke-53"></path>
                    <path d="M126.475842,65.7285262 C100.14269,66.7259848 77.9084511,83.7153771 69.2329076,107.272186" id="Stroke-55"></path>
                    <path d="M188.609837,107.272594 C179.934293,83.7157845 157.700054,66.7255773 131.366902,65.7289337" id="Stroke-57"></path>
                    <path d="M164.291902,182.053953 C154.17913,188.834064 142.013641,192.793746 128.92125,192.793746 C115.829674,192.793746 103.664185,188.834064 93.551413,182.053953" id="Stroke-59"></path>
                    <path d="M160.568478,168.612547 C172.086685,159.352644 179.465217,145.155972 179.465217,129.230047 C179.465217,124.636359 178.840761,120.190171 177.691304,115.960751" id="Stroke-61"></path>
                    <path d="M176.181766,111.30896 C169.220625,92.9773992 151.903777,79.7455898 131.366821,78.7668743" id="Stroke-63"></path>
                    <path d="M80.1516848,115.960507 C79.0022283,120.189927 78.3777717,124.636115 78.3777717,129.229802 C78.3777717,145.155728 85.7563043,159.352399 97.2745109,168.612302" id="Stroke-65"></path>
                    <path d="M156.61337,171.489449 C148.658478,176.708993 139.148152,179.755153 128.92125,179.755153 C118.694348,179.755153 109.184022,176.708993 101.22913,171.489449" id="Stroke-67"></path>
                    <path d="M126.475842,78.7672003 C105.939701,79.7451008 88.622038,92.9769102 81.6608967,111.309286" id="Stroke-69"></path>
                    <path d="M152.89394,158.052851 C161.158614,151.17658 166.421658,140.818983 166.421658,129.230047 C166.421658,126.042906 166.020571,122.948666 165.272201,119.993776" id="Stroke-71"></path>
                    <path d="M126.475842,91.8321146 C111.736712,92.7814931 99.3225815,102.239421 94.0888859,115.345733" id="Stroke-73"></path>
                    <path d="M92.5710326,119.993695 C91.822663,122.948584 91.4215761,126.042825 91.4215761,129.229965 C91.4215761,140.818902 96.6846196,151.177314 104.949293,158.052769" id="Stroke-75"></path>
                    <path d="M131.367147,91.8321146 C146.106277,92.7814931 158.520408,102.239421 163.754103,115.345733" id="Stroke-77"></path>
                    <path d="M148.934918,160.925026 C143.142799,164.588079 136.281929,166.715827 128.921332,166.715827 C121.560734,166.715827 114.700679,164.588079 108.907745,160.925026" id="Stroke-79"></path>
                    <path d="M131.367147,104.9042 C140.310897,105.79246 147.832092,111.49851 151.308995,119.387722" id="Stroke-81"></path>
                    <path d="M141.244484,150.344631 C137.625734,152.460156 133.415951,153.677642 128.921658,153.677642 C124.426549,153.677642 120.217582,152.460156 116.598832,150.344631" id="Stroke-83"></path>
                    <path d="M145.201141,147.468544 C150.217174,142.992204 153.377772,136.481831 153.377772,129.229884 C153.377772,127.448475 153.18212,125.712702 152.820163,124.038047" id="Stroke-85"></path>
                    <path d="M126.475842,104.9042 C117.532092,105.79246 110.010897,111.49851 106.533995,119.387722" id="Stroke-87"></path>
                    <path d="M112.641766,147.468544 C107.625734,142.992204 104.465136,136.481831 104.465136,129.229884 C104.465136,127.448475 104.660788,125.712702 105.022745,124.038047" id="Stroke-89"></path>
                    <path d="M117.564946,128.111818 C117.529076,128.48016 117.508696,128.852577 117.508696,129.229884 C117.508696,132.137508 118.605163,134.783544 120.397826,136.798019" id="Stroke-91"></path>
                    <path d="M137.445408,136.798182 C139.237255,134.782892 140.334538,132.137671 140.334538,129.230047 C140.334538,128.85274 140.314158,128.480323 140.278288,128.111981" id="Stroke-93"></path>
                    <path d="M126.475842,118.09013 C123.326658,118.778735 120.670679,120.767133 119.085082,123.464508" id="Stroke-95"></path>
                    <path d="M133.49356,139.679811 C132.093016,140.293443 130.548995,140.638968 128.921821,140.638968 C127.294647,140.638968 125.74981,140.293443 124.349266,139.679811" id="Stroke-97"></path>
                    <path d="M131.367147,118.09013 C134.516332,118.778735 137.17231,120.767133 138.757908,123.464508" id="Stroke-99"></path>
                </g>
                <path d="M215.351984,239.749108 C196.619103,252.782892 173.855788,260.431704 149.302255,260.431704 C124.747908,260.431704 101.984592,252.782892 83.251712,239.749108" id="Stroke-101" stroke="#009245" stroke-width="8" stroke-linejoin="bevel"></path>
                <path d="M207.683886,229.197398 C191.103995,240.667356 170.990136,247.392867 149.302092,247.392867 C127.613234,247.392867 107.499375,240.667356 90.9202989,229.197398" id="Stroke-103" stroke="#009245" stroke-width="8" stroke-linejoin="bevel"></path>
                <path d="M200.014158,218.646421 C185.590516,228.552554 168.125299,234.353949 149.301929,234.353949 C130.47856,234.353949 113.013342,228.552554 98.5897011,218.646421" id="Stroke-105" stroke="#009245" stroke-width="8" stroke-linejoin="bevel"></path>
                <path d="M192.345978,208.095445 C180.076141,216.437751 165.25875,221.315845 149.301685,221.315845 C133.34462,221.315845 118.527228,216.437751 106.257391,208.095445" id="Stroke-107" stroke="#009245" stroke-width="8" stroke-linejoin="bevel"></path>
                <path d="M184.672337,197.537378 C174.559565,204.317489 162.394076,208.277171 149.301685,208.277171 C136.210109,208.277171 124.04462,204.317489 113.931848,197.537378" id="Stroke-109" stroke="#009245" stroke-width="8" stroke-linejoin="bevel"></path>
                <path d="M176.993804,186.972874 C169.038913,192.192419 159.528587,195.238579 149.301685,195.238579 C139.074783,195.238579 129.564457,192.192419 121.609565,186.972874" id="Stroke-111" stroke="#009245" stroke-width="8" stroke-linejoin="bevel"></path>
                <path d="M169.315353,176.408452 C163.523234,180.071504 156.662364,182.199253 149.301766,182.199253 C141.941168,182.199253 135.081114,180.071504 129.288179,176.408452" id="Stroke-113" stroke="#009245" stroke-width="8" stroke-linejoin="bevel"></path>
                <path d="M161.624918,165.828057 C158.006168,167.943581 153.796386,169.161068 149.302092,169.161068 C144.806984,169.161068 140.598016,167.943581 136.979266,165.828057" id="Stroke-115" stroke="#009245" stroke-width="8" stroke-linejoin="bevel"></path>
                <path d="M153.873995,155.163236 C152.473451,155.776869 150.929429,156.122394 149.302255,156.122394 C147.675082,156.122394 146.130245,155.776869 144.729701,155.163236" id="Stroke-117" stroke="#009245" stroke-width="8" stroke-linejoin="bevel"></path>
                <path d="M50.8659783,115.311914 C48.0852717,124.627232 46.5844565,134.494249 46.5844565,144.713309 C46.5844565,177.986376 62.4208696,207.557273 86.9654348,226.32074" id="Stroke-119" stroke="#39B54A" stroke-width="8" stroke-linejoin="bevel"></path>
                <path d="M63.2765217,119.342739 C60.9066848,127.387601 59.6276087,135.900225 59.6276087,144.713554 C59.6276087,173.650446 73.3477174,199.37901 94.6346739,215.768623" id="Stroke-121" stroke="#39B54A" stroke-width="8" stroke-linejoin="bevel"></path>
                <path d="M75.687962,123.374378 C73.7265489,130.148785 72.6716576,137.307831 72.6716576,144.713798 C72.6716576,169.312887 84.2738315,191.201561 102.303995,205.21732" id="Stroke-123" stroke="#39B54A" stroke-width="8" stroke-linejoin="bevel"></path>
                <path d="M109.984402,194.649312 C95.2110326,183.010666 85.7145652,164.975735 85.7145652,144.713635 C85.7145652,138.712586 86.564837,132.91445 88.1194565,127.411315" id="Stroke-125" stroke="#39B54A" stroke-width="8" stroke-linejoin="bevel"></path>
                <path d="M100.53212,131.443932 C99.382663,135.673352 98.7582065,140.11954 98.7582065,144.713228 C98.7582065,160.639153 106.136739,174.835825 117.654946,184.095728" id="Stroke-127" stroke="#39B54A" stroke-width="8" stroke-linejoin="bevel"></path>
                <path d="M112.951467,135.47712 C112.203098,138.43201 111.802011,141.52625 111.802011,144.713391 C111.802011,156.302327 117.065054,166.660739 125.329728,173.536195" id="Stroke-129" stroke="#39B54A" stroke-width="8" stroke-linejoin="bevel"></path>
                <path d="M133.022201,162.95197 C128.006168,158.47563 124.845571,151.965257 124.845571,144.713309 C124.845571,142.931901 125.041223,141.196127 125.403179,139.521472" id="Stroke-131" stroke="#39B54A" stroke-width="8" stroke-linejoin="bevel"></path>
                <path d="M137.94538,143.595243 C137.909511,143.963586 137.88913,144.336003 137.88913,144.713309 C137.88913,147.620934 138.985598,150.26697 140.778261,152.281445" id="Stroke-133" stroke="#39B54A" stroke-width="8" stroke-linejoin="bevel"></path>
                <path d="M180.948913,184.095972 C192.46712,174.836069 199.845652,160.639398 199.845652,144.713472 C199.845652,140.119785 199.221196,135.673597 198.071739,131.444177" id="Stroke-135" stroke="#FF931E" stroke-width="8" stroke-linejoin="bevel"></path>
                <path d="M173.274375,173.536276 C181.539049,166.660006 186.802092,156.302409 186.802092,144.713472 C186.802092,141.526331 186.401005,138.432091 185.652636,135.477202" id="Stroke-137" stroke="#FF931E" stroke-width="8" stroke-linejoin="bevel"></path>
                <path d="M165.581576,162.95197 C170.597609,158.47563 173.758207,151.965257 173.758207,144.713309 C173.758207,142.931901 173.562554,141.196127 173.200598,139.521472" id="Stroke-139" stroke="#FF931E" stroke-width="8" stroke-linejoin="bevel"></path>
                <path d="M157.825842,152.281608 C159.61769,150.266318 160.714973,147.621097 160.714973,144.713472 C160.714973,144.336166 160.694592,143.963749 160.658723,143.595406" id="Stroke-141" stroke="#FF931E" stroke-width="8" stroke-linejoin="bevel"></path>
                <path d="M146.856277,68.1541271 C114.725299,69.1613646 87.5834511,89.9384917 77.1983967,118.723809" id="Stroke-143" stroke="#FF931E" stroke-width="8" stroke-linejoin="bevel"></path>
                <path d="M146.856277,81.2119517 C120.523125,82.2094102 98.2888859,99.1988025 89.6133424,122.755612" id="Stroke-145" stroke="#FF931E" stroke-width="8" stroke-linejoin="bevel"></path>
                <path d="M146.856277,94.2506257 C126.320136,95.2285262 109.002473,108.460336 102.041332,126.792711" id="Stroke-147" stroke="#FF931E" stroke-width="8" stroke-linejoin="bevel"></path>
                <path d="M146.856277,107.31554 C132.117147,108.264919 119.703016,117.722847 114.469321,130.829159" id="Stroke-149" stroke="#FF931E" stroke-width="8" stroke-linejoin="bevel"></path>
                <path d="M146.856277,120.387626 C137.912527,121.275885 130.391332,126.981935 126.914429,134.871148" id="Stroke-151" stroke="#FF931E" stroke-width="8" stroke-linejoin="bevel"></path>
                <path d="M146.856277,133.573555 C143.707092,134.26216 141.051114,136.250558 139.465516,138.947934" id="Stroke-153" stroke="#FF931E" stroke-width="8" stroke-linejoin="bevel"></path>
                <path d="M246.227609,110.661182 C232.431685,71.4212928 195.471359,43.0858094 151.747989,42.0647182" id="Stroke-155" stroke="#7AC943" stroke-width="8" stroke-linejoin="bevel"></path>
                <path d="M233.816984,114.69274 C221.724864,80.6805442 189.676223,56.1222017 151.747418,55.1068149" id="Stroke-157" stroke="#7AC943" stroke-width="8" stroke-linejoin="bevel"></path>
                <path d="M221.405625,118.723565 C211.020571,89.9390622 183.878723,69.1619351 151.747745,68.1538826" id="Stroke-159" stroke="#7AC943" stroke-width="8" stroke-linejoin="bevel"></path>
                <path d="M208.990272,122.756019 C200.314728,99.1992099 178.080489,82.2090028 151.747337,81.2123591" id="Stroke-161" stroke="#7AC943" stroke-width="8" stroke-linejoin="bevel"></path>
                <path d="M196.562201,126.792385 C189.60106,108.460825 172.284212,95.2290152 151.747255,94.2502997" id="Stroke-163" stroke="#7AC943" stroke-width="8" stroke-linejoin="bevel"></path>
                <path d="M151.747582,107.31554 C166.486712,108.264919 178.900842,117.722847 184.134538,130.829159" id="Stroke-165" stroke="#7AC943" stroke-width="8" stroke-linejoin="bevel"></path>
                <path d="M151.747582,120.387626 C160.691332,121.275885 168.212527,126.981935 171.689429,134.871148" id="Stroke-167" stroke="#7AC943" stroke-width="8" stroke-linejoin="bevel"></path>
                <path d="M151.747582,133.573555 C154.896766,134.26216 157.552745,136.250558 159.138342,138.947934" id="Stroke-169" stroke="#7AC943" stroke-width="8" stroke-linejoin="bevel"></path>
                <g id="Letters" fill="#FFFFFF">
                    <path d="M50.9272826,39.0956492 C51.4294565,38.6238122 51.6838043,38.1568646 51.6895109,37.6948066 C51.6944022,37.2335635 51.4995652,36.7926934 51.1041848,36.3721961 C50.9232065,36.1798757 50.7291848,36.0315608 50.5213043,35.9280663 C50.3134239,35.8253867 50.0965761,35.774047 49.8715761,35.774047 C49.6473913,35.774047 49.4158696,35.8294613 49.1770109,35.9394751 C48.9381522,36.049489 48.693587,36.2222514 48.4441304,36.4569475 L47.4283696,37.4120304 L49.9115217,40.050732 L50.9272826,39.0956492 Z M47.29875,35.2386464 C47.8286413,34.7391022 48.3463043,34.3699448 48.8501087,34.131174 C49.353913,33.8924033 49.8357065,33.767721 50.2946739,33.7554972 C50.7536413,33.7440884 51.1865217,33.8353591 51.5941304,34.0293094 C52.0017391,34.2232597 52.3742935,34.5003315 52.7126087,34.8605249 C53.0721196,35.2410912 53.3378804,35.6493646 53.5115217,36.0829006 C53.685163,36.5172514 53.7520109,36.9679006 53.7136957,37.4332182 C53.6753804,37.8985359 53.5229348,38.3760773 53.2563587,38.8642127 C52.9905978,39.3515331 52.6001087,39.8388536 52.0832609,40.3245442 L51.0675,41.2796271 L53.5759239,43.945221 L51.9723913,45.4528177 L44.6794565,37.6996961 L47.29875,35.2386464 Z" id="Fill-171"></path>
                    <polygon id="Fill-173" points="54.6196467 31.038808 56.368288 33.1445539 59.1000815 30.8774544 60.1639402 32.1576892 57.4313315 34.4256036 59.2166576 36.5761699 62.7277989 33.6620262 63.8299728 34.9878964 58.6125815 39.3167362 51.8136685 31.127634 57.0302446 26.7996091 58.1316033 28.1262942"></polygon>
                    <path d="M65.0367391,20.8937417 L71.2902717,29.5057859 L69.4976087,30.8063936 L67.0617391,27.4530097 C66.6753261,27.9036588 66.2880978,28.3078577 65.9000543,28.6680511 C65.5120109,29.0282445 65.1247826,29.3305787 64.74,29.573424 C64.3544022,29.8162693 63.9704348,29.9922914 63.5897283,30.0998605 C63.2082065,30.2082445 62.8332065,30.2302472 62.4655435,30.1683135 C62.0970652,30.1063798 61.7351087,29.9531754 61.3796739,29.7095152 C61.0242391,29.4666699 60.678587,29.1129959 60.3427174,28.6501229 L58.2736957,25.8003577 L60.0663587,24.49975 L62.1394565,27.3544047 C62.3644565,27.6632583 62.6025,27.8889903 62.8544022,28.0324157 C63.1063043,28.1758412 63.3891848,28.2116975 63.7038587,28.1407997 C64.0177174,28.0707169 64.3755978,27.8800262 64.7766848,27.5703577 C65.1777717,27.2615041 65.6375543,26.8067804 66.1568478,26.2070014 L63.2432609,22.1943494 L65.0367391,20.8937417 Z" id="Fill-175"></path>
                    <path d="M75.3177717,24.922203 C75.61125,24.7372169 75.8354348,24.5514157 75.9886957,24.3631699 C76.1419565,24.174924 76.2405978,23.9874931 76.2854348,23.8000622 C76.3294565,23.614261 76.3286413,23.4309047 76.2829891,23.2524378 C76.2365217,23.0723412 76.1615217,22.9012086 76.0579891,22.7349655 C75.941413,22.5491644 75.810163,22.3935152 75.6666848,22.2704627 C75.5232065,22.1474102 75.3593478,22.0667334 75.1767391,22.0284323 C74.9941304,21.9901312 74.7870652,22.0031699 74.5555435,22.0667334 C74.3240217,22.1311119 74.0598913,22.2566091 73.7615217,22.4440401 L72.4074457,23.2939986 L73.9628804,25.7721616 L75.3177717,24.922203 Z M72.8598913,21.008971 C73.4615217,20.6324793 74.0166848,20.3765953 74.5261957,20.2413191 C75.0365217,20.1060428 75.4971196,20.0677417 75.9071739,20.1280456 C76.3172283,20.1883494 76.6783696,20.3293301 76.991413,20.5518025 C77.3044565,20.7742749 77.5669565,21.0554213 77.7805435,21.3952417 C78.0511957,21.824703 78.2207609,22.2631285 78.2892391,22.7080732 C78.3577174,23.152203 78.3259239,23.5889986 78.1963043,24.0168301 C78.0666848,24.4446616 77.8367935,24.8578246 77.5066304,25.2555041 C77.1756522,25.6531837 76.7452174,26.0190815 76.2153261,26.3515677 L72.9952174,28.3709323 L67.3367935,19.3579489 L69.2003804,18.1877279 L71.5058152,21.8589296 L72.8598913,21.008971 Z" id="Fill-177"></path>
                    <path d="M200.869158,3.57039641 L197.630299,13.7071506 L195.77894,13.1171506 L197.767255,6.8911837 C197.808832,6.76079696 197.856929,6.62226105 197.911549,6.47476105 C197.966168,6.32889088 198.02731,6.18139088 198.095788,6.03389088 L193.438451,10.6063909 C193.182473,10.8582003 192.88981,10.9315428 192.559647,10.8264185 L192.265353,10.732703 C192.10231,10.6805483 191.970245,10.595797 191.869158,10.4792638 C191.768071,10.3619157 191.703668,10.2168605 191.676766,10.0432831 L190.525679,3.59402901 C190.487364,3.76108702 190.449049,3.92244061 190.409918,4.07645994 C190.370788,4.2312942 190.330027,4.3739047 190.288451,4.50429144 L188.300136,10.7294434 L186.447962,10.1378135 L189.686005,0.000244475138 L191.279755,0.508752762 C191.368614,0.536459945 191.446875,0.564982044 191.515353,0.592689227 C191.583832,0.618766575 191.641712,0.65136326 191.688179,0.689664365 C191.735462,0.72796547 191.773777,0.775230663 191.80394,0.834719613 C191.834103,0.892578729 191.856929,0.968366022 191.874049,1.06045166 L192.984375,7.37442956 C193.020245,7.56512017 193.049592,7.75988536 193.071603,7.95628039 C193.093614,8.15267541 193.109918,8.35314503 193.122147,8.55687431 C193.250951,8.39307597 193.383016,8.23579696 193.515897,8.08259254 C193.650408,7.93020304 193.786549,7.78677762 193.926766,7.6523163 L198.465082,3.16456768 C198.531929,3.09855939 198.596332,3.0512942 198.656658,3.02114227 C198.716984,2.99262017 198.778125,2.97550691 198.838451,2.97224724 C198.898777,2.96817265 198.963179,2.97469199 199.032473,2.99099033 C199.100951,3.00891851 199.182473,3.03173619 199.275408,3.0610732 L200.869158,3.57039641 Z" id="Fill-179"></path>
                    <path d="M206.22538,12.9069019 L206.416957,9.45817265 C206.419402,9.27400138 206.430815,9.05967818 206.449565,8.81601796 C206.469946,8.57317265 206.497663,8.31321409 206.533533,8.03614227 C206.364783,8.26268923 206.200109,8.46967818 206.039511,8.65710912 C205.878913,8.84535497 205.733804,9.00426381 205.605,9.13546547 L203.30038,11.6861561 L206.22538,12.9069019 Z M208.074293,18.0571782 L206.50337,17.4019848 C206.327283,17.3286423 206.201739,17.2267776 206.125924,17.0980207 C206.049293,16.9668191 206.011793,16.8258384 206.012609,16.672634 L206.13163,14.5204378 L202.21125,12.8857141 L200.765054,14.4837666 C200.677011,14.5799268 200.556359,14.6500097 200.402283,14.6940152 C200.249022,14.7388356 200.086793,14.7241671 199.915598,14.6532693 L198.33,13.9923715 L206.26288,5.76985773 L208.3425,6.63774448 L208.074293,18.0571782 Z" id="Fill-181"></path>
                    <polygon id="Fill-183" points="218.51413 13.373279 215.721196 12.0042182 211.815489 19.9659586 209.833696 18.9929475 213.738587 11.0320221 210.945652 9.66296133 211.72663 8.06979834 219.295924 11.780116"></polygon>
                    <polygon id="Fill-185" points="221.970897 15.2577749 220.618451 17.635703 223.704864 19.3902196 222.881495 20.8383273 219.795082 19.0821809 218.413288 21.5114489 222.379321 23.7663246 221.527418 25.2649572 215.635027 21.9148329 220.898071 12.6638936 226.790462 16.0148329 225.937745 17.5134655"></polygon>
                    <path d="M238.498125,23.7435884 L232.520951,32.5495829 L230.911712,31.4584088 L234.582636,26.0506188 C234.659266,25.9373453 234.744864,25.8183674 234.839429,25.6928702 C234.933179,25.5673729 235.033451,25.4443204 235.140245,25.3220829 L229.377473,28.388616 C229.061984,28.5573039 228.760353,28.5450801 228.472582,28.3503149 L228.218234,28.1767376 C228.076386,28.0813923 227.973668,27.9624144 227.910082,27.8222486 C227.845679,27.680453 227.825299,27.523989 227.84894,27.3512265 L228.571223,20.8392238 C228.487255,20.9883536 228.404918,21.1325939 228.324212,21.2695 C228.24269,21.4064061 228.162799,21.5310884 228.086984,21.6443619 L224.41606,27.0521519 L222.806821,25.960163 L228.78481,17.1549834 L230.169049,18.092953 C230.245679,18.1451077 230.313342,18.1940028 230.371223,18.2396381 C230.429918,18.2852735 230.474755,18.3325387 230.508995,18.3822486 C230.543234,18.4311436 230.566875,18.4890028 230.579103,18.5541961 C230.591332,18.6177597 230.592962,18.6976215 230.582364,18.7905221 L229.858451,25.1590994 C229.838886,25.3538646 229.812799,25.5478149 229.777745,25.743395 C229.74269,25.9373453 229.701929,26.1353702 229.655462,26.3342099 C229.825842,26.2127873 229.997038,26.0986989 230.168234,25.9903149 C230.339429,25.8819309 230.51144,25.783326 230.684266,25.6936851 L236.306821,22.6744171 C236.390788,22.6304116 236.465788,22.6027044 236.531821,22.5921105 C236.598668,22.5807017 236.66144,22.5815166 236.720136,22.5953702 C236.779647,22.6075939 236.839158,22.6336713 236.900299,22.6687127 C236.96144,22.705384 237.033179,22.7493895 237.114701,22.8056188 L238.498125,23.7435884 Z" id="Fill-187"></path>
                    <path d="M240.974022,34.1926188 L242.13163,30.9378398 C242.185435,30.7618177 242.256359,30.5597182 242.344402,30.3323564 C242.43163,30.1033646 242.531902,29.8629641 242.644402,29.6062652 C242.417772,29.7765829 242.202554,29.9289724 241.995489,30.0634337 C241.788424,30.197895 241.604185,30.3095387 241.443587,30.3999945 L238.512065,32.1968867 L240.974022,34.1926188 Z M241.294402,39.6550083 L239.97212,38.5833923 C239.82375,38.4627845 239.732446,38.329953 239.695761,38.1840829 C239.659891,38.0390276 239.663967,37.8923425 239.707174,37.7448425 L240.428641,35.714884 L237.129457,33.039511 L235.290326,34.1649116 C235.180272,34.2325497 235.04413,34.2651464 234.883533,34.2651464 C234.72375,34.2643315 234.571304,34.2056575 234.427826,34.0883094 L233.09413,33.0077293 L243.025109,27.3554641 L244.774565,28.7750497 L241.294402,39.6550083 Z" id="Fill-189"></path>
                    <polygon id="Fill-191" points="252.642636 38.1072362 250.348614 36.0071948 244.358397 42.5469047 242.729592 41.0564213 248.71981 34.5167113 246.424973 32.4166699 247.624158 31.1070981 253.841821 36.7976644"></polygon>
                    <path d="M261.473886,44.7324309 L253.74644,52.0528315 L252.221984,50.4458149 L256.828777,46.0811188 C257.020353,45.9002072 257.226603,45.7135912 257.448342,45.5245304 C257.669266,45.3346547 257.913016,45.1455939 258.177147,44.9549033 C257.893451,45.075511 257.618723,45.1773757 257.353777,45.2596823 C257.088832,45.3428039 256.849973,45.4071823 256.638016,45.4536326 L249.770625,46.8772928 C249.675245,46.8992956 249.576603,46.9123343 249.473071,46.9172238 C249.368723,46.9204834 249.26519,46.9164088 249.161658,46.9025552 C249.05894,46.8895166 248.959484,46.8618094 248.865734,46.8202486 C248.771984,46.7778729 248.687201,46.7175691 248.613832,46.639337 L247.473342,45.4357044 L255.200788,38.1153039 L256.724429,39.7231354 L252.117636,44.0870166 C251.92606,44.2687431 251.71981,44.4545442 251.498886,44.6444199 C251.277147,44.8334807 251.034212,45.0225414 250.769266,45.213232 C251.052962,45.0926243 251.32769,44.9907597 251.592636,44.908453 C251.857582,44.8253315 252.09644,44.760953 252.309212,44.7153177 L259.181495,43.286768 C259.272799,43.2672099 259.370625,43.2558011 259.476603,43.2500967 C259.582582,43.2435773 259.686114,43.2484669 259.788016,43.2631354 C259.889103,43.2786188 259.986929,43.3071409 260.080679,43.3487017 C260.174429,43.3910773 260.259212,43.4513812 260.333397,43.5296133 L261.473886,44.7324309 Z" id="Fill-193"></path>
                    <path d="M260.915054,60.7792901 L259.647391,59.2195387 C259.521033,59.0647044 259.455815,58.9000912 259.450924,58.7265138 C259.446033,58.5553812 259.486793,58.3581713 259.572391,58.1381436 L260.977826,54.3789309 C261.021033,54.2672873 261.047935,54.1654227 261.059348,54.0717072 C261.070761,53.9763619 261.068315,53.886721 261.053641,53.8019696 C261.037337,53.7164033 261.005543,53.6316519 260.957446,53.5493453 C260.907717,53.4662238 260.846576,53.3790276 260.772391,53.2885718 L260.046848,52.3937928 L256.464783,55.303047 L255.076467,53.5957956 L263.339511,46.884953 L264.727011,48.5930193 L261.316141,51.3621077 L261.921848,52.1085718 C262.0425,52.2568867 262.17375,52.3636409 262.317228,52.4304641 C262.459891,52.4972873 262.64087,52.5192901 262.862609,52.4972873 L266.80337,52.0661961 C267.001467,52.0368591 267.187337,52.0466381 267.363424,52.0930884 C267.540326,52.1387238 267.692772,52.2405884 267.822391,52.4003122 L269.011793,53.8639033 L263.986793,54.3919696 C263.760978,54.4164171 263.547391,54.4050083 263.345217,54.3544834 C263.143859,54.3039586 262.951467,54.2240967 262.768043,54.1140829 C262.901739,54.4107127 262.962065,54.7000083 262.951467,54.9868591 C262.94087,55.2712652 262.86587,55.5947873 262.724022,55.9557956 L260.915054,60.7792901 Z" id="Fill-195"></path>
                    <path d="M267.960571,63.8209682 L269.971712,61.0127638 C270.072799,60.8579296 270.196712,60.6827224 270.344266,60.4887721 C270.491005,60.293192 270.654049,60.0886478 270.831766,59.8743246 C270.568451,59.9745594 270.318995,60.0625704 270.083397,60.1342831 C269.846168,60.2059959 269.639103,60.2630401 269.459755,60.3062307 L266.145082,61.2238273 L267.960571,63.8209682 Z M266.759755,69.1603052 L265.784755,67.7643522 C265.675516,67.6078881 265.624158,67.4554986 265.629864,67.304739 C265.634755,67.1547942 265.678777,67.0162583 265.761929,66.8858715 L267.016549,65.1329848 L264.583125,61.6524738 L262.505951,62.2269903 C262.379592,62.2604019 262.24019,62.2546975 262.086929,62.2098771 C261.932853,62.1650566 261.803234,62.0664517 261.69644,61.9148771 L260.713288,60.5083301 L271.818995,57.8166588 L273.108668,59.6624461 L266.759755,69.1603052 Z" id="Fill-197"></path>
                    <path d="M3.80307065,126.975416 C3.78595109,127.096023 3.72644022,127.191369 3.62779891,127.261452 L2.57861413,127.988358 C2.0992663,127.482294 1.76584239,126.893109 1.57834239,126.220802 C1.39084239,125.548496 1.36149457,124.776769 1.4894837,123.905623 C1.60605978,123.117598 1.84491848,122.428993 2.20605978,121.838993 C2.56720109,121.250623 3.02127717,120.770637 3.56421196,120.401479 C4.10877717,120.031507 4.72752717,119.777253 5.42046196,119.637087 C6.11339674,119.496921 6.84872283,119.484698 7.62888587,119.599601 C8.15144022,119.677018 8.64057065,119.80659 9.09546196,119.990761 C9.55035326,120.173302 9.96040761,120.403924 10.3248098,120.679366 C10.689212,120.955623 11.0087772,121.270996 11.2826902,121.625485 C11.5574185,121.979159 11.7775272,122.367059 11.945462,122.786742 C12.1125815,123.207239 12.2226359,123.654628 12.2739946,124.12891 C12.324538,124.604007 12.3123098,125.099477 12.2356793,125.616949 C12.1777989,126.004035 12.0905707,126.365858 11.9723641,126.701604 C11.8533424,127.037349 11.7114946,127.346203 11.5460054,127.628164 C11.3805163,127.910126 11.1930163,128.16601 10.9843207,128.394186 C10.775625,128.622363 10.5538859,128.824463 10.3199185,128.99641 L9.42644022,128.1163 C9.37019022,128.06333 9.32290761,127.999767 9.28540761,127.924794 C9.24627717,127.849822 9.23567935,127.754477 9.25361413,127.637943 C9.26991848,127.522225 9.32779891,127.410581 9.42807065,127.304642 C9.52752717,127.197888 9.64165761,127.066686 9.7680163,126.910222 C9.89519022,126.753758 10.0191033,126.550844 10.1389402,126.305554 C10.2595924,126.058634 10.3484511,125.735927 10.407962,125.339877 C10.4731793,124.899822 10.4519837,124.484214 10.3468207,124.093054 C10.2416576,123.701894 10.0574185,123.352294 9.79410326,123.044256 C9.52997283,122.735402 9.18921196,122.476258 8.77019022,122.266825 C8.35116848,122.056576 7.86203804,121.909891 7.29953804,121.827584 C6.73377717,121.743648 6.21774457,121.747722 5.75225543,121.839808 C5.28513587,121.931894 4.87997283,122.091617 4.53432065,122.319794 C4.19029891,122.547971 3.91149457,122.833192 3.70035326,123.175457 C3.48921196,123.517722 3.35225543,123.896659 3.29192935,124.312267 C3.25524457,124.559186 3.23404891,124.784919 3.22834239,124.988648 C3.22345109,125.193192 3.23730978,125.385512 3.26991848,125.566424 C3.30252717,125.745706 3.35307065,125.919283 3.42236413,126.084711 C3.49247283,126.250954 3.58540761,126.421272 3.70279891,126.597294 C3.7394837,126.656783 3.76638587,126.718717 3.7867663,126.780651 C3.80796196,126.842584 3.81285326,126.907778 3.80307065,126.975416" id="Fill-199"></path>
                    <polygon id="Fill-201" points="0.211059783 138.193239 0.375733696 135.984814 9.33171196 136.653046 9.65453804 132.33154 0.699375 131.661678 0.864048913 129.453253 11.480625 130.246167 10.8268207 138.986968"></polygon>
                    <path d="M5.49644022,148.957479 C6.05486413,148.948515 6.55296196,148.867838 6.99317935,148.713004 C7.43339674,148.5598 7.8067663,148.342217 8.11328804,148.060256 C8.41899457,147.779924 8.6505163,147.440919 8.80785326,147.044054 C8.96519022,146.648004 9.04019022,146.200615 9.03203804,145.7027 C9.02388587,145.203971 8.93502717,144.758211 8.76464674,144.363791 C8.5942663,143.971001 8.35214674,143.63933 8.03665761,143.367963 C7.72116848,143.096595 7.34127717,142.891236 6.8969837,142.751885 C6.45105978,142.61172 5.9505163,142.547341 5.39290761,142.556305 C4.83040761,142.564454 4.3282337,142.646761 3.88883152,142.799965 C3.44779891,142.953985 3.076875,143.171568 2.77279891,143.452714 C2.46872283,143.73386 2.23883152,144.074496 2.08230978,144.472175 C1.92415761,144.87067 1.84915761,145.319689 1.85730978,145.818419 C1.86546196,146.317148 1.95432065,146.762093 2.12470109,147.152438 C2.29508152,147.544413 2.53638587,147.875269 2.84942935,148.145822 C3.16165761,148.417189 3.5407337,148.622548 3.98502717,148.762714 C4.43013587,148.902065 4.93394022,148.967258 5.49644022,148.957479 M5.533125,151.209095 C4.75540761,151.221319 4.03230978,151.102341 3.36220109,150.851347 C2.69372283,150.601167 2.11247283,150.240974 1.62008152,149.772396 C1.12932065,149.303819 0.739646739,148.736637 0.452690217,148.070849 C0.164918478,147.405877 0.0149184783,146.665117 0.00105978261,145.849385 C-0.0119836957,145.032838 0.113559783,144.287189 0.38013587,143.612438 C0.645896739,142.938501 1.01682065,142.357465 1.49290761,141.87096 C1.96899457,141.38364 2.53720109,141.003888 3.19834239,140.731706 C3.85866848,140.459523 4.57850543,140.316913 5.35622283,140.304689 C6.13394022,140.291651 6.85622283,140.411443 7.52225543,140.661623 C8.18991848,140.912617 8.76953804,141.273626 9.26111413,141.744648 C9.75350543,142.216485 10.1431793,142.784482 10.4301359,143.449454 C10.7170924,144.115242 10.8679076,144.856001 10.8801359,145.672548 C10.8939946,146.489095 10.7676359,147.23393 10.5026902,147.908681 C10.2369293,148.582617 9.864375,149.162023 9.38584239,149.646899 C8.90730978,150.13096 8.33747283,150.509081 7.68040761,150.781264 C7.02089674,151.054261 6.30595109,151.196872 5.533125,151.209095" id="Fill-203"></path>
                    <path d="M5.90559783,156.473949 C5.95858696,157.161739 6.1623913,157.651504 6.51945652,157.945689 C6.87570652,158.239059 7.34119565,158.363742 7.91755435,158.319736 C8.18005435,158.299363 8.41728261,158.240689 8.62842391,158.143714 C8.83956522,158.046739 9.01402174,157.910648 9.15586957,157.735441 C9.29690217,157.559419 9.39961957,157.34428 9.46320652,157.090026 C9.52679348,156.834142 9.54554348,156.536698 9.51945652,156.195247 L9.41266304,154.805814 L5.79798913,155.084515 L5.90559783,156.473949 Z M11.1873913,156.06649 C11.2436413,156.793396 11.2061413,157.427402 11.0765217,157.969322 C10.946087,158.511242 10.7422826,158.965151 10.4634783,159.330233 C10.1846739,159.694501 9.84228261,159.974833 9.43548913,160.170413 C9.02869565,160.365993 8.57951087,160.482526 8.08630435,160.520827 C7.56456522,160.561573 7.07951087,160.512678 6.63358696,160.374957 C6.18603261,160.238051 5.79309783,160.008244 5.45396739,159.686352 C5.11483696,159.36446 4.83847826,158.946407 4.62570652,158.43301 C4.41130435,157.920427 4.2776087,157.310054 4.22380435,156.603521 L4.11619565,155.214087 L0.465652174,155.495233 L0.296086957,153.301477 L10.9110326,152.484115 L11.1873913,156.06649 Z" id="Fill-205"></path>
                    <polygon id="Fill-207" points="10.9585598 169.104431 10.5256793 166.024859 1.74089674 167.261088 1.43355978 165.075481 10.2175272 163.838436 9.78383152 160.75968 11.5414402 160.511945 12.7169837 168.856696"></polygon>
                    <path d="M15.6555978,182.083372 L5.30315217,184.566424 L4.78711957,182.411783 L10.9583152,180.931894 C11.2151087,180.870775 11.4865761,180.812916 11.7727174,180.759131 C12.0588587,180.706162 12.3645652,180.662971 12.6890217,180.630374 C12.3833152,180.592888 12.0947283,180.543178 11.8232609,180.482874 C11.5526087,180.42257 11.31375,180.359007 11.1066848,180.292999 L4.44472826,178.096797 C4.3526087,178.068275 4.25967391,178.029974 4.16836957,177.982709 C4.07706522,177.933814 3.98902174,177.878399 3.90586957,177.815651 C3.82271739,177.752087 3.75097826,177.678744 3.69065217,177.594808 C3.6311413,177.511686 3.58793478,177.417156 3.56266304,177.312847 L3.17543478,175.700941 L13.5286957,173.218703 L14.0447283,175.372529 L7.87353261,176.852419 C7.61673913,176.913537 7.34527174,176.972211 7.05913043,177.025181 C6.77298913,177.078151 6.46728261,177.121341 6.14282609,177.153938 C6.44853261,177.191424 6.73793478,177.241134 7.00858696,177.301438 C7.27923913,177.361742 7.51809783,177.425305 7.72434783,177.491314 L14.3936413,179.685885 C14.4816848,179.715222 14.5721739,179.753523 14.6667391,179.801604 C14.7604891,179.848869 14.8485326,179.905098 14.9292391,179.967847 C15.0099457,180.03141 15.0808696,180.105568 15.1411957,180.189504 C15.2007065,180.272626 15.2430978,180.367156 15.2683696,180.471465 L15.6555978,182.083372 Z" id="Fill-209"></path>
                    <path d="M13.365163,192.308055 C13.590163,192.959989 13.9121739,193.382116 14.3311957,193.576881 C14.7502174,193.770831 15.2320109,193.774091 15.7782065,193.58503 C16.0284783,193.499464 16.2420652,193.382116 16.421413,193.235431 C16.6015761,193.087931 16.7369022,192.911909 16.8290217,192.70655 C16.9211413,192.501191 16.9659783,192.267309 16.9627174,192.004906 C16.9602717,191.742503 16.9032065,191.448318 16.7907065,191.12561 L16.3366304,189.808704 L12.9102717,190.991149 L13.365163,192.308055 Z M18.3722283,190.579616 C18.611087,191.268221 18.735,191.890818 18.746413,192.449036 C18.7570109,193.005624 18.6746739,193.496204 18.4977717,193.919961 C18.3208696,194.342903 18.06,194.700652 17.7159783,194.992392 C17.3719565,195.284133 16.9659783,195.511494 16.4996739,195.672033 C16.0040217,195.843166 15.5230435,195.918953 15.0551087,195.89858 C14.5888043,195.879022 14.1502174,195.75597 13.7409783,195.530238 C13.3317391,195.304506 12.9583696,194.97039 12.6225,194.52789 C12.2858152,194.08539 12.0013043,193.528801 11.7705978,192.858939 L11.3148913,191.542033 L7.85429348,192.735887 L7.13527174,190.656218 L17.1991304,187.183041 L18.3722283,190.579616 Z" id="Fill-211"></path>
                    <polygon id="Fill-213" points="19.4411413 198.302178 16.9147826 199.353421 18.2794565 202.631018 16.7411413 203.270728 15.3772826 199.992316 12.7963043 201.067192 14.549837 205.278684 12.9585326 205.940396 10.353913 199.683463 20.1813587 195.595023 22.7867935 201.851142 21.1946739 202.51367"></polygon>
                    <path d="M28.6226902,213.548381 L19.145788,218.397953 L18.260462,216.667884 L24.0794837,213.690177 C24.2009511,213.628243 24.3330163,213.56468 24.4764946,213.499486 C24.6183424,213.434293 24.766712,213.373989 24.9191576,213.318575 L18.3908967,213.239528 C18.0330163,213.236268 17.7745924,213.080619 17.615625,212.77095 L17.4754076,212.497138 C17.3971467,212.343934 17.3637228,212.191544 17.3759511,212.037525 C17.3881793,211.882691 17.4452446,211.735191 17.5487772,211.59421 L21.3142663,206.23124 C21.1675272,206.322511 21.0273098,206.408077 20.8903533,206.489569 C20.7533967,206.570246 20.622962,206.641959 20.5014946,206.705522 L14.6824728,209.683229 L13.7963315,207.95316 L23.2732337,203.103588 L24.035462,204.591627 C24.077038,204.673934 24.1137228,204.749721 24.1422554,204.816544 C24.170788,204.884182 24.189538,204.947746 24.1944293,205.008865 C24.2009511,205.068354 24.1936141,205.129472 24.1740489,205.192221 C24.1536685,205.25497 24.1169837,205.324238 24.0623641,205.401655 L20.3653533,210.639127 C20.2552989,210.799666 20.1379076,210.956945 20.0131793,211.111779 C19.8892663,211.265798 19.7588315,211.419003 19.6226902,211.571392 C19.8305707,211.54776 20.0351902,211.529017 20.2373641,211.515978 C20.439538,211.502939 20.6376359,211.498865 20.8324728,211.503754 L27.2148098,211.558354 C27.309375,211.559983 27.3884511,211.570577 27.452038,211.593395 C27.5164402,211.615398 27.5702446,211.64718 27.6158967,211.68711 C27.6607337,211.727041 27.7014946,211.777566 27.7381793,211.83787 C27.7748641,211.899804 27.815625,211.973146 27.8596467,212.060343 L28.6226902,213.548381 Z" id="Fill-215"></path>
                    <polygon id="Fill-217" points="29.3383696 217.935732 27.007663 219.369171 28.8679891 222.393329 27.4495109 223.26529 25.5883696 220.241133 23.2071196 221.705539 25.5989674 225.591878 24.1299457 226.493992 20.5788587 220.721934 29.6465217 215.146271 33.1976087 220.918329 31.7294022 221.822072"></polygon>
                    <path d="M31.4504348,232.445902 C31.5205435,232.545322 31.5441848,232.654521 31.5205435,232.773499 L31.2604891,234.023581 C30.5642935,233.98691 29.9170109,233.78807 29.3178261,233.430322 C28.7178261,233.071758 28.1659239,232.531468 27.6596739,231.812711 C27.1998913,231.160778 26.8982609,230.495805 26.7547826,229.820239 C26.6104891,229.143858 26.6088587,228.485405 26.7482609,227.84325 C26.8884783,227.20028 27.1615761,226.589093 27.5683696,226.011316 C27.9743478,225.432725 28.4993478,224.916883 29.1433696,224.463789 C29.5754348,224.159825 30.018913,223.917794 30.47625,223.737698 C30.9311413,223.557601 31.3868478,223.441883 31.8417391,223.391358 C32.2966304,223.340018 32.745,223.348982 33.1884783,223.417435 C33.6311413,223.485888 34.0575,223.61383 34.4691848,223.803706 C34.8800543,223.992767 35.2680978,224.242131 35.6316848,224.550985 C35.996087,224.859023 36.3278804,225.228181 36.6303261,225.656012 C36.8545109,225.976275 37.0395652,226.298167 37.1854891,226.623319 C37.3305978,226.949286 37.4406522,227.270363 37.514837,227.588996 C37.5890217,227.907628 37.6289674,228.220557 37.6346739,228.53104 C37.6411957,228.840709 37.6183696,229.138153 37.5694565,229.425004 L36.314837,229.402186 C36.2365761,229.402186 36.1583152,229.388333 36.0792391,229.360626 C35.9993478,229.332919 35.9259783,229.270985 35.8591304,229.174825 C35.7906522,229.078664 35.7572283,228.958057 35.7555978,228.812186 C35.7547826,228.666316 35.7466304,228.492739 35.7303261,228.291454 C35.7140217,228.090985 35.6651087,227.859548 35.5827717,227.59796 C35.50125,227.335557 35.3430978,227.040557 35.1123913,226.71296 C34.8572283,226.349507 34.556413,226.061841 34.2099457,225.850778 C33.8642935,225.638899 33.4892935,225.512587 33.0857609,225.470211 C32.6830435,225.429465 32.2558696,225.475916 31.8083152,225.612007 C31.3599457,225.748098 30.9034239,225.97872 30.4395652,226.305501 C29.9716304,226.634728 29.5998913,226.993291 29.3259783,227.380377 C29.05125,227.767463 28.8670109,228.162698 28.7740761,228.566081 C28.6819565,228.968651 28.6754348,229.36796 28.7577717,229.76075 C28.8409239,230.154355 29.0031522,230.523512 29.2452717,230.867407 C29.38875,231.071137 29.5289674,231.248789 29.6659239,231.401178 C29.8028804,231.551938 29.9447283,231.682325 30.0922826,231.790709 C30.2406522,231.899093 30.3963587,231.988733 30.5618478,232.062076 C30.7257065,232.134604 30.9115761,232.193278 31.1178261,232.240543 C31.1846739,232.259286 31.2466304,232.283733 31.3045109,232.3147 C31.3632065,232.345667 31.4104891,232.389673 31.4504348,232.445902" id="Fill-219"></path>
                    <path d="M36.7079348,243.208512 L35.3033152,241.494742 L42.251413,235.807435 L40.5679891,233.753029 C39.5008696,234.532905 38.553587,235.178319 37.7269565,235.690087 C36.9003261,236.20267 36.1715217,236.602794 35.5372826,236.89046 C34.9038587,237.178941 34.353587,237.367186 33.8864674,237.456012 C33.4185326,237.544838 33.0092935,237.557877 32.6571196,237.495128 C32.3057609,237.43238 31.9992391,237.307698 31.7375543,237.119452 C31.4766848,236.932021 31.2370109,236.706289 31.020163,236.441441 C30.7755978,236.142366 30.6255978,235.905225 30.570163,235.729203 C30.513913,235.553181 30.5383696,235.423609 30.6402717,235.340488 L31.6902717,234.48075 L32.0620109,234.934659 C32.1614674,235.055267 32.2845652,235.16528 32.4313043,235.26307 C32.5780435,235.36086 32.7777717,235.4122 33.0304891,235.416275 C33.2840217,235.420349 33.6068478,235.361675 33.9997826,235.239438 C34.3927174,235.116385 34.8867391,234.892283 35.4818478,234.566316 C36.078587,234.239535 36.7894565,233.795405 37.6169022,233.235557 C38.4443478,232.674894 39.4193478,231.960211 40.541087,231.092325 L44.9440761,236.465888 L36.7079348,243.208512 Z" id="Fill-221"></path>
                    <path d="M47.926712,247.373065 C48.3286141,246.985979 48.6383967,246.587485 48.8560598,246.174322 C49.0729076,245.761974 49.1976359,245.349626 49.2310598,244.934833 C49.2628533,244.52004 49.2008967,244.114211 49.0460054,243.717347 C48.8919293,243.319667 48.6416576,242.94236 48.2960054,242.582167 C47.949538,242.222789 47.5802446,241.957126 47.188125,241.785178 C46.794375,241.613231 46.3900272,241.534999 45.9750815,241.551297 C45.5601359,241.567595 45.1419293,241.675979 44.7212772,241.877264 C44.300625,242.077733 43.8889402,242.371104 43.4878533,242.758189 C43.081875,243.14772 42.770462,243.549474 42.5527989,243.961007 C42.3359511,244.373355 42.2112228,244.785703 42.1810598,245.198866 C42.1500815,245.611214 42.2136685,246.017043 42.3701902,246.416352 C42.5258967,246.814847 42.7777989,247.194598 43.1226359,247.553977 C43.4691033,247.913355 43.8375815,248.178203 44.2288859,248.348521 C44.619375,248.518838 45.0220924,248.596256 45.4354076,248.581587 C45.8487228,248.567733 46.2661141,248.460164 46.6875815,248.25888 C47.1082337,248.05841 47.5215489,247.76341 47.926712,247.373065 M49.4878533,248.995565 C48.9277989,249.534225 48.3172011,249.940054 47.6560598,250.212236 C46.9949185,250.485233 46.3248098,250.61725 45.6449185,250.609101 C44.9650272,250.600952 44.293288,250.451007 43.6297011,250.160081 C42.9669293,249.869156 42.3514402,249.428286 41.7856793,248.840731 C41.218288,248.251546 40.8033424,247.6208 40.5383967,246.946048 C40.2726359,246.271297 40.1487228,245.593286 40.1650272,244.91283 C40.1821467,244.232374 40.3394837,243.566587 40.6378533,242.917098 C40.9354076,242.267609 41.3650272,241.673535 41.9258967,241.134874 C42.4859511,240.596214 43.0957337,240.1912 43.7552446,239.919833 C44.4139402,239.64928 45.0848641,239.518894 45.7663859,239.529488 C46.4479076,239.539267 47.1196467,239.689211 47.7832337,239.981767 C48.4476359,240.272692 49.0623098,240.711932 49.6288859,241.301117 C50.1938315,241.889488 50.6095924,242.521048 50.8753533,243.194985 C51.1402989,243.869736 51.2633967,244.546932 51.2430163,245.228203 C51.2226359,245.908659 51.0652989,246.573631 50.7677446,247.220675 C50.4718207,247.868535 50.045462,248.460164 49.4878533,248.995565" id="Fill-223"></path>
                    <polygon id="Fill-225" points="112.971359 281.017 109.994185 280.117331 107.42788 288.605508 105.313207 287.965798 107.880326 279.478436 104.902337 278.578768 105.415109 276.879666 113.485761 279.317898"></polygon>
                    <path d="M116.272826,281.700634 L115.622283,284.502319 L117.030978,284.828286 C117.330978,284.897554 117.603261,284.93504 117.848641,284.939115 C118.093207,284.943189 118.307609,284.908963 118.490217,284.83562 C118.672011,284.762278 118.826902,284.645744 118.950815,284.486836 C119.075543,284.327927 119.167663,284.122568 119.226359,283.869128 C119.28587,283.61243 119.302174,283.385068 119.276087,283.187858 C119.24837,282.991463 119.17663,282.821145 119.058424,282.678535 C118.941033,282.535109 118.777989,282.413686 118.570924,282.313452 C118.363043,282.212402 118.109511,282.126836 117.809511,282.056753 L116.272826,281.700634 Z M116.461957,289.221504 C116.805163,289.300551 117.097826,289.324184 117.338315,289.292402 C117.57962,289.26062 117.782609,289.191352 117.948098,289.084598 C118.113587,288.977029 118.243207,288.840123 118.336957,288.67388 C118.430707,288.507637 118.499185,288.32917 118.544022,288.137664 C118.592935,287.929046 118.605163,287.733465 118.582337,287.552554 C118.559511,287.371642 118.491848,287.206214 118.380978,287.057084 C118.269293,286.909584 118.110326,286.777568 117.903261,286.664294 C117.696196,286.551021 117.430435,286.457305 117.105978,286.381518 L115.283967,285.959391 L114.625272,288.795302 L116.461957,289.221504 Z M118.187772,280.427733 C118.883152,280.589902 119.461957,280.793631 119.925,281.038921 C120.388043,281.284211 120.746739,281.562913 121.003533,281.876656 C121.259511,282.189584 121.419293,282.533479 121.48288,282.909156 C121.546467,283.285648 121.528533,283.685772 121.429891,284.109529 C121.375272,284.347485 121.287228,284.569142 121.167391,284.772057 C121.046739,284.974971 120.892663,285.155068 120.702717,285.314791 C120.511957,285.4737 120.284511,285.605717 120.019565,285.710026 C119.75462,285.814336 119.451359,285.884419 119.111413,285.92109 C119.778261,286.251131 120.236413,286.643106 120.4875,287.098645 C120.739402,287.553369 120.794837,288.08062 120.655435,288.680399 C120.553533,289.11964 120.374185,289.506725 120.118207,289.843286 C119.861413,290.180662 119.539402,290.449584 119.150543,290.650054 C118.763315,290.851338 118.313315,290.975206 117.803804,291.020026 C117.293478,291.064032 116.730978,291.015952 116.11712,290.873341 L112.100543,289.941076 L114.507065,279.574515 L118.187772,280.427733 Z" id="Fill-227"></path>
                    <path d="M130.838478,288.147525 C130.923261,287.595826 130.925707,287.090577 130.848261,286.631779 C130.77,286.171351 130.617554,285.767152 130.391739,285.418367 C130.165924,285.070398 129.870815,284.785177 129.505598,284.563519 C129.142011,284.341862 128.713207,284.192732 128.22,284.11776 C127.726793,284.042787 127.271902,284.055826 126.855326,284.157691 C126.439565,284.259555 126.070272,284.442912 125.750707,284.70776 C125.430326,284.972608 125.16375,285.313243 124.951793,285.728036 C124.739837,286.143644 124.591467,286.62689 124.506685,287.177773 C124.421902,287.733547 124.418641,288.24124 124.496902,288.700854 C124.574348,289.160467 124.726793,289.563036 124.952609,289.909376 C125.180054,290.255715 125.476793,290.540122 125.842826,290.761779 C126.209674,290.983436 126.640109,291.132566 127.133315,291.208354 C127.626522,291.284141 128.079783,291.270287 128.493913,291.167608 C128.908043,291.065743 129.274891,290.882387 129.595272,290.619983 C129.914022,290.35758 130.180598,290.01939 130.392554,289.603782 C130.604511,289.188174 130.753696,288.703298 130.838478,288.147525 M133.064837,288.48816 C132.947446,289.256627 132.708587,289.950122 132.349891,290.567829 C131.989565,291.185536 131.53712,291.696489 130.992554,292.103133 C130.447989,292.509776 129.823533,292.799072 129.12,292.970204 C128.414837,293.142152 127.659946,293.165785 126.852065,293.042732 C126.044185,292.91805 125.33087,292.6695 124.709674,292.295453 C124.090109,291.920591 123.578967,291.457718 123.178696,290.906834 C122.777609,290.35595 122.498804,289.731724 122.340652,289.03497 C122.183315,288.337401 122.162935,287.60479 122.281141,286.837138 C122.397717,286.067856 122.636576,285.376807 122.996087,284.761544 C123.354783,284.146282 123.808043,283.635329 124.355054,283.2295 C124.90288,282.823671 125.527337,282.534376 126.2325,282.362428 C126.936848,282.191296 127.692554,282.166848 128.49962,282.290715 C129.306685,282.414583 130.020815,282.663948 130.642011,283.037994 C131.262391,283.412041 131.771902,283.876544 132.168913,284.429873 C132.566739,284.982387 132.844728,285.606613 133.00288,286.300923 C133.161848,286.995232 133.182228,287.724583 133.064837,288.48816" id="Fill-229"></path>
                    <path d="M138.372065,288.872557 C139.060109,288.926341 139.576957,288.800029 139.920978,288.49362 C140.26663,288.187211 140.462283,287.746341 140.50712,287.17101 C140.528315,286.908606 140.506304,286.664946 140.443533,286.442474 C140.379946,286.218372 140.272337,286.023606 140.121522,285.857363 C139.969891,285.69112 139.773424,285.556659 139.531304,285.454794 C139.289185,285.352115 138.997337,285.287736 138.655761,285.260029 L137.26663,285.151645 L136.98212,288.763358 L138.372065,288.872557 Z M138.787011,283.592709 C139.512554,283.650568 140.13375,283.785029 140.649783,283.997722 C141.165815,284.208786 141.582391,284.480968 141.899511,284.81264 C142.217446,285.144311 142.440815,285.525692 142.57125,285.957598 C142.7025,286.389504 142.747337,286.852377 142.709022,287.343772 C142.668261,287.866134 142.545163,288.337156 142.340543,288.756838 C142.135924,289.177336 141.848152,289.53101 141.478043,289.814601 C141.106304,290.099822 140.651413,290.308441 140.110924,290.439642 C139.57125,290.571659 138.946793,290.60996 138.24,290.553731 L136.85087,290.445347 L136.563913,294.093731 L134.370163,293.921783 L135.2025,283.312377 L138.787011,283.592709 Z" id="Fill-231"></path>
                    <path d="M151.897989,284.068213 L151.725163,294.709401 L149.509402,294.673544 L149.577065,290.530506 C148.997446,290.657633 148.444728,290.748903 147.918098,290.804318 C147.391467,290.858917 146.900707,290.867881 146.44663,290.83121 C145.991739,290.794539 145.580054,290.704898 145.210761,290.562287 C144.841467,290.418862 144.527609,290.211873 144.270815,289.94132 C144.013207,289.670768 143.815924,289.331762 143.678152,288.923489 C143.54038,288.515215 143.475978,288.024635 143.485761,287.452564 L143.542011,283.932936 L145.757772,283.968793 L145.699891,287.496569 C145.695,287.87795 145.748804,288.201472 145.86538,288.467135 C145.980326,288.733613 146.184946,288.932453 146.479239,289.06447 C146.772717,289.195671 147.172174,289.25842 147.679239,289.251901 C148.185489,289.246196 148.82625,289.158185 149.602337,288.989497 L149.682228,284.032356 L151.897989,284.068213 Z" id="Fill-233"></path>
                    <polygon id="Fill-236" points="156.132554 285.598546 156.271957 288.331778 159.818152 288.150051 159.90375 289.812482 156.356739 289.994209 156.499402 292.784485 161.057283 292.551419 161.144511 294.273338 154.374946 294.618863 153.832011 283.990714 160.601576 283.645189 160.690435 285.366294"></polygon>
                    <path d="M169.894076,290.708483 C170.014728,290.69463 170.122337,290.726412 170.215272,290.804644 L171.187011,291.632599 C170.820978,292.225044 170.336739,292.697696 169.734293,293.05137 C169.131033,293.405044 168.392446,293.630776 167.517717,293.729381 C166.725326,293.819022 165.998967,293.764423 165.336196,293.566398 C164.674239,293.368373 164.09462,293.053 163.597337,292.622724 C163.10087,292.190818 162.696522,291.658677 162.383478,291.024671 C162.070435,290.390666 161.869891,289.682503 161.781848,288.900182 C161.723152,288.376191 161.723967,287.870127 161.784293,287.383622 C161.84462,286.896301 161.962011,286.442392 162.135652,286.018635 C162.309293,285.596508 162.532663,285.206163 162.804946,284.851674 C163.077228,284.495555 163.394348,284.182627 163.75875,283.91289 C164.121522,283.643152 164.52587,283.423124 164.972609,283.251992 C165.418533,283.081674 165.901141,282.965956 166.420435,282.908097 C166.810109,282.863276 167.181848,282.855942 167.536467,282.884464 C167.891902,282.913801 168.226957,282.97166 168.542446,283.058856 C168.857935,283.146867 169.152228,283.261771 169.426957,283.406011 C169.701685,283.549436 169.952772,283.711605 170.180217,283.893331 L169.557391,284.982061 C169.520707,285.050514 169.470163,285.112448 169.408207,285.168677 C169.345435,285.224906 169.256576,285.259133 169.139185,285.272171 C169.023424,285.286025 168.900326,285.258318 168.771522,285.18905 C168.643533,285.119782 168.487011,285.043994 168.303587,284.960873 C168.118533,284.878566 167.892717,284.810928 167.62288,284.757144 C167.353859,284.704174 167.01962,284.700099 166.620978,284.74492 C166.178315,284.79463 165.78212,284.920127 165.430761,285.123041 C165.079402,285.325141 164.78837,285.593249 164.557663,285.92655 C164.327772,286.259851 164.164728,286.655901 164.068533,287.114699 C163.972337,287.572682 163.956848,288.083635 164.020435,288.648373 C164.084022,289.21637 164.220163,289.71347 164.428859,290.140486 C164.636739,290.567503 164.895163,290.918732 165.204946,291.193359 C165.513913,291.468801 165.861196,291.664381 166.245163,291.780099 C166.630761,291.897448 167.031848,291.931674 167.450054,291.884409 C167.69788,291.856702 167.92125,291.819215 168.120163,291.772765 C168.319076,291.724685 168.501685,291.662751 168.667174,291.584519 C168.833478,291.506287 168.98837,291.413387 169.130217,291.303373 C169.27288,291.194174 169.413913,291.060528 169.55413,290.901619 C169.603043,290.851909 169.654402,290.809533 169.709022,290.773677 C169.764457,290.73782 169.825598,290.715818 169.894076,290.708483" id="Fill-238"></path>
                    <polygon id="Fill-240" points="178.864647 282.835488 175.801875 283.383927 177.367092 292.111689 175.192908 292.50122 173.628505 283.772642 170.565734 284.321896 170.253505 282.575529 178.550788 281.08749"></polygon>
                    <path d="M185.694538,288.564599 C186.036929,288.479848 186.307582,288.369019 186.508125,288.231298 C186.707853,288.093577 186.857853,287.939558 186.956495,287.768425 C187.055136,287.598108 187.10894,287.418011 187.117092,287.226506 C187.125245,287.035815 187.105679,286.845939 187.059212,286.655249 C187.007038,286.44663 186.930408,286.267348 186.826875,286.116588 C186.724158,285.965829 186.589647,285.849296 186.423342,285.766174 C186.256223,285.684682 186.054864,285.639862 185.818451,285.632528 C185.582853,285.626008 185.304049,285.661865 184.980408,285.741727 L183.164103,286.191561 L183.864375,289.017693 L185.694538,288.564599 Z M182.113288,281.948287 L182.804592,284.739378 L184.208397,284.392224 C184.506766,284.318066 184.766821,284.22761 184.986929,284.120041 C185.207038,284.012472 185.38231,283.88453 185.511929,283.736215 C185.642364,283.58953 185.726332,283.415953 185.765462,283.217113 C185.803777,283.018273 185.792364,282.793356 185.730408,282.541547 C185.666821,282.285663 185.577962,282.075414 185.464647,281.912431 C185.351332,281.749448 185.209484,281.63047 185.039918,281.556312 C184.870353,281.48297 184.670625,281.447928 184.439918,281.452003 C184.209212,281.456077 183.944266,281.495193 183.645082,281.569351 L182.113288,281.948287 Z M183.243179,279.946036 C183.936114,279.774903 184.545082,279.693412 185.068451,279.702376 C185.592636,279.71134 186.039375,279.796906 186.409484,279.959075 C186.779592,280.122873 187.078777,280.357569 187.306223,280.663978 C187.532853,280.970387 187.698342,281.334655 187.803505,281.756782 C187.862201,281.993923 187.884212,282.231064 187.869538,282.466575 C187.854049,282.701271 187.798614,282.932707 187.701603,283.160884 C187.603777,283.389061 187.461114,283.609903 187.271984,283.822597 C187.082853,284.03529 186.84481,284.23576 186.558668,284.422376 C187.302962,284.414227 187.889103,284.556022 188.319538,284.847762 C188.749158,285.139503 189.03856,285.584448 189.186114,286.181782 C189.294538,286.618577 189.310842,287.045594 189.235027,287.462017 C189.159212,287.878439 188.994538,288.26471 188.739375,288.620014 C188.485027,288.975318 188.14019,289.288246 187.706495,289.559613 C187.271984,289.830981 186.748614,290.041229 186.135571,290.193619 L182.133668,291.183743 L179.575516,280.853854 L183.243179,279.946036 Z" id="Fill-242"></path>
                    <path d="M198.022255,281.088631 C197.846984,280.55975 197.621168,280.107471 197.342364,279.733424 C197.064375,279.359377 196.745625,279.068452 196.385299,278.859833 C196.025788,278.652029 195.632853,278.531421 195.208125,278.498825 C194.782582,278.467043 194.333397,278.528977 193.859755,278.686256 C193.386114,278.841905 192.985842,279.060302 192.661386,279.339819 C192.336114,279.619336 192.092364,279.951007 191.92606,280.331573 C191.761386,280.712954 191.679049,281.137526 191.678234,281.603659 C191.678234,282.068977 191.764647,282.566891 191.939918,283.096587 C192.116005,283.630358 192.343451,284.084267 192.62144,284.458314 C192.900245,284.833175 193.218179,285.122471 193.57769,285.328645 C193.936386,285.534819 194.330136,285.653797 194.75731,285.684764 C195.185299,285.715731 195.635299,285.653797 196.10894,285.496518 C196.582582,285.340869 196.981223,285.122471 197.304049,284.843769 C197.626875,284.565068 197.86981,284.235841 198.036929,283.85609 C198.202418,283.477968 198.284755,283.055026 198.285571,282.588894 C198.286386,282.122761 198.198342,281.622402 198.022255,281.088631 M200.160571,280.382913 C200.405136,281.120413 200.507038,281.847319 200.467092,282.560372 C200.426332,283.273424 200.255951,283.934322 199.955136,284.54388 C199.654321,285.152623 199.228777,285.693728 198.680136,286.165565 C198.129864,286.639032 197.467092,287.0033 196.691005,287.258369 C195.915734,287.515068 195.166549,287.616932 194.443451,287.563963 C193.721168,287.512623 193.055136,287.330896 192.448614,287.022043 C191.841277,286.712374 191.309755,286.282913 190.852418,285.733659 C190.395897,285.184405 190.045353,284.54062 189.800788,283.802305 C189.557038,283.06399 189.455136,282.339529 189.495897,281.628106 C189.536658,280.917499 189.708668,280.256601 190.011929,279.646228 C190.31519,279.03667 190.741549,278.495565 191.291821,278.022913 C191.841277,277.551076 192.503234,277.186808 193.280136,276.930109 C194.055408,276.67504 194.804592,276.573175 195.526875,276.624515 C196.249973,276.677485 196.91519,276.860026 197.520082,277.17214 C198.125788,277.484253 198.656495,277.913714 199.113016,278.461338 C199.568723,279.008148 199.918451,279.648673 200.160571,280.382913" id="Fill-244"></path>
                    <path d="M277.158098,200.852706 L286.719783,205.532775 L285.863804,207.278327 L279.993424,204.404115 C279.869511,204.343811 279.739891,204.276173 279.60212,204.200385 C279.465163,204.126228 279.328207,204.043921 279.192065,203.955095 L283.038261,209.226794 C283.251033,209.51609 283.28038,209.816794 283.127935,210.128907 L282.991793,210.405164 C282.916793,210.559184 282.814076,210.677347 282.682826,210.760468 C282.552391,210.84359 282.400761,210.885965 282.225489,210.88678 L275.674402,211.08562 C275.834185,211.147554 275.987446,211.209488 276.135,211.269791 C276.282554,211.33091 276.417065,211.392029 276.540163,211.452333 L282.410543,214.326546 L281.556196,216.072098 L271.995326,211.391214 L272.730652,209.889322 C272.771413,209.8062 272.810543,209.732043 272.847228,209.668479 C272.883913,209.604916 272.924674,209.552761 272.968696,209.512015 C273.013533,209.471269 273.066522,209.440302 273.129293,209.419115 C273.19125,209.397112 273.268696,209.385703 273.363261,209.382443 L279.773315,209.204791 C279.967337,209.196642 280.16462,209.195827 280.362717,209.203162 C280.560815,209.210496 280.761359,209.22272 280.964348,209.241463 C280.82087,209.089073 280.683913,208.935869 280.552663,208.781849 C280.421413,208.62783 280.29913,208.471366 280.185815,208.312457 L276.405652,203.171145 C276.351033,203.095358 276.313533,203.02446 276.292337,202.960896 C276.272772,202.896518 276.26462,202.834584 276.269511,202.773465 C276.275217,202.713162 276.291522,202.650413 276.317609,202.584405 C276.344511,202.519211 276.379565,202.441794 276.422772,202.354598 L277.158098,200.852706 Z" id="Fill-246"></path>
                    <path d="M280.986522,191.023583 L287.932174,198.343983 C288.18,198.609646 288.369946,198.863901 288.499565,199.109191 C288.629185,199.354481 288.712337,199.595696 288.748207,199.832837 C288.784076,200.069978 288.78163,200.306304 288.739239,200.541815 C288.696848,200.777326 288.626739,201.020171 288.528913,201.270351 C288.38788,201.630544 288.254185,201.877464 288.128641,202.011925 C288.002283,202.146387 287.877554,202.189577 287.755272,202.141497 L286.49087,201.647657 L286.706902,201.093514 C286.742772,201.003058 286.772935,200.903638 286.796576,200.794439 C286.820217,200.68524 286.826739,200.570337 286.813696,200.44647 C286.802283,200.324232 286.766413,200.19629 286.708533,200.063459 C286.649837,199.930627 286.554457,199.790461 286.423207,199.644591 L285.858261,199.01466 L277.367772,200.279412 L278.120217,198.353762 C278.189511,198.175296 278.287337,198.051428 278.41288,197.978901 C278.537609,197.907188 278.680272,197.863997 278.838424,197.846884 L282.832989,197.423127 C283.087337,197.39053 283.336793,197.371787 283.580543,197.364453 C283.824293,197.357119 284.067228,197.361193 284.307717,197.377492 C283.927826,197.086566 283.570761,196.758155 283.236522,196.391442 L280.507989,193.577533 C280.420761,193.480558 280.350652,193.356691 280.297663,193.208376 C280.246304,193.058431 280.254457,192.897892 280.32212,192.72513 L280.986522,191.023583 Z" id="Fill-248"></path>
                    <path d="M281.879022,191.427048 C281.670326,190.924244 281.558641,190.365211 281.545598,189.749134 C281.531739,189.134686 281.632011,188.493347 281.845598,187.828374 C282.02413,187.268526 282.250761,186.786095 282.525489,186.378637 C282.799402,185.971178 283.105109,185.646026 283.441793,185.404811 C283.778478,185.163595 284.137989,185.010391 284.521141,184.946012 C284.904293,184.880819 285.293152,184.911786 285.689348,185.038098 C286.154837,185.188043 286.548587,185.427628 286.868152,185.758485 C287.189348,186.089341 287.402935,186.511468 287.511359,187.023236 C287.694783,186.83499 287.89125,186.671192 288.100761,186.530211 C288.310272,186.389231 288.526304,186.281662 288.751304,186.207504 C288.975489,186.132532 289.20375,186.091786 289.436902,186.083637 C289.671685,186.077117 289.904837,186.110529 290.137174,186.184686 C290.597772,186.332186 291.00212,186.556289 291.350217,186.858623 C291.698315,187.159327 291.967337,187.521151 292.158098,187.944907 C292.348859,188.367035 292.454022,188.846206 292.471957,189.380791 C292.491522,189.916192 292.401848,190.490709 292.204565,191.105156 C292.09288,191.454756 291.949402,191.792131 291.7725,192.118913 C291.596413,192.444065 291.39913,192.747214 291.181467,193.026731 C290.963804,193.306247 290.728207,193.558057 290.47712,193.782974 C290.224402,194.007891 289.964348,194.194507 289.696141,194.345267 L288.90212,193.406482 C288.844239,193.330695 288.804293,193.244314 288.781467,193.147338 C288.757826,193.050363 288.762717,192.953388 288.793696,192.855598 C288.835272,192.725211 288.927391,192.599714 289.067609,192.480736 C289.208641,192.361758 289.367609,192.219963 289.54288,192.055349 C289.718967,191.890736 289.8975,191.686192 290.079293,191.441717 C290.260272,191.196427 290.411902,190.882684 290.534185,190.501302 C290.719239,189.923526 290.742065,189.436206 290.602663,189.036896 C290.463261,188.637587 290.125761,188.353181 289.590163,188.182048 C289.375761,188.11278 289.168696,188.096482 288.969783,188.133153 C288.77087,188.169825 288.587446,188.251316 288.41788,188.375999 C288.24913,188.501496 288.0975,188.671814 287.962989,188.885322 C287.827663,189.09883 287.717609,189.344935 287.632826,189.626081 L287.167337,191.079079 L285.501848,190.554272 L285.918424,189.254479 C286.105109,188.672628 286.140163,188.193457 286.024402,187.81778 C285.907826,187.441289 285.645326,187.188664 285.235272,187.057463 C284.876576,186.942559 284.546413,186.994714 284.244783,187.213927 C283.943967,187.43314 283.703478,187.821855 283.524946,188.380888 C283.422228,188.701965 283.366793,188.992891 283.361087,189.252849 C283.35538,189.511993 283.366793,189.744244 283.396957,189.946344 C283.42712,190.148443 283.457283,190.323651 283.485815,190.47441 C283.515163,190.62517 283.512717,190.751482 283.480109,190.854162 C283.44587,190.961731 283.392065,191.041593 283.321957,191.096192 C283.250217,191.149977 283.152391,191.193982 283.029293,191.225764 L281.879022,191.427048 Z" id="Fill-250"></path>
                    <path d="M293.230761,181.045656 C293.310652,180.707465 293.339185,180.417355 293.315543,180.17614 C293.291902,179.934924 293.230761,179.73201 293.131304,179.567396 C293.031848,179.402783 292.903043,179.273211 292.744076,179.178681 C292.585924,179.083336 292.411467,179.013253 292.221522,178.968432 C292.00712,178.917907 291.804946,178.899164 291.61663,178.912203 C291.426685,178.925242 291.253859,178.983101 291.097337,179.084151 C290.94,179.1852 290.802228,179.33922 290.682391,179.547023 C290.56337,179.755642 290.462283,180.030269 290.381576,180.373349 L290.014728,181.929026 L292.863913,182.601333 L293.230761,181.045656 Z M296.612283,174.066706 L296.102772,176.222162 L285.741359,173.77741 L286.25087,171.621954 L296.612283,174.066706 Z M288.731576,179.983819 C288.895435,179.294399 289.110652,178.721512 289.378043,178.267604 C289.647065,177.813695 289.94788,177.46328 290.28212,177.218805 C290.616359,176.973515 290.972609,176.819496 291.351685,176.758377 C291.730761,176.697258 292.115543,176.712742 292.505217,176.804827 C293.00087,176.92136 293.428859,177.114496 293.790815,177.383419 C294.151957,177.651526 294.436467,177.983198 294.643533,178.380062 C294.852228,178.775297 294.978587,179.230021 295.022609,179.745863 C295.06663,180.260891 295.016902,180.823999 294.873424,181.432742 L294.000326,185.130836 L283.638913,182.686084 L284.144348,180.544482 L288.364728,181.539496 L288.731576,179.983819 Z" id="Fill-252"></path>
                    <path d="M298.433315,162.151314 L298.138207,164.138896 C298.108859,164.337736 298.032228,164.496645 297.9075,164.616438 C297.783587,164.737046 297.610761,164.839725 297.390652,164.925291 L293.665924,166.426369 C293.556685,166.469559 293.46212,166.51764 293.385489,166.573869 C293.308043,166.628468 293.242826,166.690402 293.189837,166.758855 C293.138478,166.828123 293.097717,166.9088 293.069185,167.000885 C293.040652,167.092971 293.017826,167.19728 293.000707,167.312999 L292.831141,168.452253 L297.396359,169.130264 L297.072717,171.306093 L286.542554,169.742267 L286.866196,167.566438 L291.212935,168.211852 L291.353967,167.261659 C291.3825,167.072598 291.372717,166.90391 291.325435,166.753151 C291.278967,166.603206 291.172989,166.453261 291.006685,166.305761 L288.02788,163.690692 C287.873804,163.563565 287.753967,163.42014 287.669185,163.258786 C287.584402,163.098247 287.556685,162.915706 287.586848,162.712791 L287.864022,160.848261 L291.64663,164.198385 C291.817011,164.3467 291.952337,164.512943 292.050978,164.695485 C292.14962,164.878841 292.220543,165.074421 292.264565,165.283855 C292.392554,164.98641 292.56538,164.745195 292.783043,164.559394 C293.000707,164.375222 293.290924,164.212239 293.65288,164.072888 L298.433315,162.151314 Z" id="Fill-254"></path>
                    <path d="M294.959103,154.693762 L291.623234,155.595061 C291.447147,155.65129 291.240897,155.707519 291.003668,155.765378 C290.765625,155.824052 290.510462,155.878652 290.236549,155.932436 C290.504755,156.021262 290.753397,156.111718 290.981658,156.204619 C291.209103,156.299149 291.407201,156.38553 291.57269,156.467022 L294.719429,157.853196 L294.959103,154.693762 Z M299.269158,151.320006 L299.140353,153.016663 C299.125679,153.207354 299.069429,153.358113 298.969973,153.471387 C298.870516,153.583845 298.747418,153.663707 298.60231,153.711787 L296.52106,154.274895 L296.199864,158.510019 L298.171875,159.379536 C298.290897,159.432506 298.39606,159.525406 298.485734,159.657423 C298.576223,159.789439 298.614538,159.947533 298.600679,160.133334 L298.47106,161.843845 L288.169158,156.900558 L288.339538,154.655461 L299.269158,151.320006 Z" id="Fill-256"></path>
                </g>
            </g>
        </g>
    </g>
</svg>