<?xml version="1.0" encoding="UTF-8"?>
<svg width="32px" height="28px" viewBox="0 0 32 28" version="1.1" xmlns="http://www.w3.org/2000/svg" xmlns:xlink="http://www.w3.org/1999/xlink">
    <!-- Generator: Sketch 43.2 (39069) - http://www.bohemiancoding.com/sketch -->
    <title>how_report</title>
    <desc>Created with Sketch.</desc>
    <defs></defs>
    <g id="Home" stroke="none" stroke-width="1" fill="none" fill-rule="evenodd" stroke-linecap="round" stroke-linejoin="round">
        <g id="VER_Home-02" transform="translate(-734.000000, -1482.000000)" stroke="#000000">
            <g id="HOW" transform="translate(119.000000, 1464.000000)">
                <g id="Group-21" transform="translate(388.000000, 0.000000)">
                    <g id="Group-8" transform="translate(7.000000, 0.000000)">
                        <g id="Group-5">
                            <g id="Group-4" transform="translate(204.000000, 0.000000)">
                                <g id="how_report" transform="translate(16.000000, 18.000000)">
                                    <path d="M16,5.33333333 C16,2.75466667 22.864,0.666666667 31.3333333,0.666666667 L31.3333333,22.6666667 C22.864,22.6666667 16,24.7546667 16,27.3333333 C16,24.7546667 9.13466667,22.6666667 0.666666667,22.6666667 L0.666666667,0.666666667 C9.13466667,0.666666667 16,2.75466667 16,5.33333333 L16,5.33333333 Z" id="Stroke-590"></path>
                                    <path d="M16,5.33333333 L16,27.1253333" id="Stroke-591"></path>
                                    <path d="M12.6666667,8.32026667 C10.52,7.4976 7.484,6.90293333 4,6.66693333" id="Stroke-592"></path>
                                    <path d="M12.6666667,12.3202667 C10.52,11.4976 7.484,10.9029333 4,10.6669333" id="Stroke-593"></path>
                                    <path d="M12.6666667,16.3202667 C10.52,15.4976 7.484,14.9029333 4,14.6669333" id="Stroke-594"></path>
                                    <path d="M12.6666667,20.3202667 C10.52,19.4976 7.484,18.9029333 4,18.6669333" id="Stroke-595"></path>
                                    <path d="M19.3333333,8.32026667 C21.4813333,7.4976 24.516,6.90293333 28,6.66693333" id="Stroke-596"></path>
                                    <path d="M19.3333333,12.3202667 C21.4813333,11.4976 24.516,10.9029333 28,10.6669333" id="Stroke-597"></path>
                                    <path d="M19.3333333,16.3202667 C21.4813333,15.4976 24.516,14.9029333 28,14.6669333" id="Stroke-598"></path>
                                    <path d="M19.3333333,20.3202667 C21.4813333,19.4976 24.516,18.9029333 28,18.6669333" id="Stroke-599"></path>
                                </g>
                            </g>
                        </g>
                    </g>
                </g>
            </g>
        </g>
    </g>
</svg>