<?xml version="1.0" encoding="UTF-8"?>
<svg width="32px" height="30px" viewBox="0 0 32 30" version="1.1" xmlns="http://www.w3.org/2000/svg" xmlns:xlink="http://www.w3.org/1999/xlink">
    <!-- Generator: Sketch 43.2 (39069) - http://www.bohemiancoding.com/sketch -->
    <title>how_process</title>
    <desc>Created with Sketch.</desc>
    <defs></defs>
    <g id="Home" stroke="none" stroke-width="1" fill="none" fill-rule="evenodd" stroke-linejoin="round">
        <g id="VER_Home-02" transform="translate(-631.000000, -1481.000000)" stroke="#000000">
            <g id="HOW" transform="translate(119.000000, 1464.000000)">
                <g id="Group-21" transform="translate(388.000000, 0.000000)">
                    <g id="Group-8" transform="translate(7.000000, 0.000000)">
                        <g id="Group-5">
                            <g id="Group-2" transform="translate(101.000000, 0.000000)">
                                <g id="how_process" transform="translate(16.000000, 17.000000)">
                                    <path d="M31.3333333,12.3913043 C31.3333333,8.74434783 28.2533333,5.74304348 24.4266667,5.88130435 C22.9306667,2.79391304 19.724,0.652173913 16,0.652173913 C11.032,0.652173913 6.984,4.44782609 6.69466667,9.23478261 C3.584,8.59956522 0.666666667,10.9173913 0.666666667,14.0217391 C0.666666667,18.9913043 6,18.9130435 6,18.9130435 L25.3333333,18.9130435 C25.3333333,18.9130435 31.3333333,18.1486957 31.3333333,12.3913043 L31.3333333,12.3913043 Z" id="Stroke-527"></path>
                                    <path d="M3.33333333,26.0869565 C3.33333333,24.2869565 4.82533333,22.826087 6.66666667,22.826087 L25.3333333,22.826087 C27.1746667,22.826087 28.6666667,24.2869565 28.6666667,26.0869565 C28.6666667,27.8882609 27.1746667,29.3478261 25.3333333,29.3478261 L6.66666667,29.3478261 C4.82533333,29.3478261 3.33333333,27.8882609 3.33333333,26.0869565 L3.33333333,26.0869565 Z" id="Stroke-528"></path>
                                    <path d="M4.37506667,28.451087 L10.0830667,22.8671739" id="Stroke-529"></path>
                                    <path d="M7.4584,29.3478261 L14.0837333,22.8665217" id="Stroke-530"></path>
                                    <path d="M11.4584,29.3478261 L18.0837333,22.8665217" id="Stroke-531"></path>
                                    <path d="M15.4584,29.3478261 L22.0837333,22.8665217" id="Stroke-532"></path>
                                </g>
                            </g>
                        </g>
                    </g>
                </g>
            </g>
        </g>
    </g>
</svg>