<?xml version="1.0" encoding="UTF-8"?>
<svg width="92px" height="179px" viewBox="0 0 92 179" version="1.1" xmlns="http://www.w3.org/2000/svg" xmlns:xlink="http://www.w3.org/1999/xlink">
    <!-- Generator: Sketch 43.2 (39069) - http://www.bohemiancoding.com/sketch -->
    <title>Verbatoria Tree</title>
    <desc>Created with Sketch.</desc>
    <defs>
        <polygon id="path-1" points="7.12109737 0.129249625 7.12109737 7.14929875 0.0288596693 7.14929875 0.0288596693 0.129249625 7.12109737 0.129249625"></polygon>
    </defs>
    <g id="Symbols" stroke="none" stroke-width="1" fill="none" fill-rule="evenodd">
        <g id="Footer" transform="translate(-216.000000, 27.000000)">
            <g id="Verbatoria-Tree" transform="translate(216.000000, -27.000000)">
                <path d="M29.5178957,44.4291414 C27.4266477,47.4703529 25.8340875,50.8136734 23.8933082,53.9343246 C20.1781276,57.5869082 18.7045152,62.7406476 16.7478266,67.4254994 C13.9595454,74.2865202 12.8826233,82.0128816 11.0365561,89.1439674 C8.85832754,87.4605327 6.43387742,85.5466784 5.0713323,83.0850931 C2.96610789,68.9944694 16.4296417,42.5635769 29.5178957,44.4291414" id="Fill-1" fill="#72D262"></path>
                <path d="M30.7771348,45.3583317 C33.1618862,49.8843042 33.9936275,55.4985848 31.9260203,60.2870211 C29.2406288,64.2414158 27.2122743,68.6722993 26.277792,73.3732476 C25.7626,76.5099953 26.4203804,79.6704408 26.2143037,82.822838 C19.8315737,75.6947331 23.6518743,52.3850878 30.7771348,45.3583317" id="Fill-3" fill="#91E189"></path>
                <path d="M23.8932934,53.9343842 C22.2602911,59.2432768 21.1542268,62.9277555 21.5641501,71.7296073 C21.5641501,76.2795757 23.8299538,80.5679745 24.012241,85.0382052 C22.3802795,87.0791927 21.3503417,89.4534391 20.5264806,91.9229237 C17.1679943,92.7806631 13.8724014,90.7794699 11.0365412,89.144027 L11.1314019,88.7943734 C12.1317515,79.829171 16.750042,60.2046007 23.8932934,53.9343842" id="Fill-5" fill="#94E38B"></path>
                <path d="M27.8698763,79.6864927 C27.0540442,73.5240339 28.7732835,66.7825451 32.7894017,62.0656492 C32.1792003,68.1085759 31.3398761,74.5566001 27.8698763,79.6864927" id="Fill-7" fill="#98E48E"></path>
                <path d="M81.1898325,65.5777455 C79.1381346,68.8492276 77.616943,72.4545648 75.07414,75.4082883 C70.6140499,80.4108987 64.1736303,83.6667313 57.4642404,84.0241351 C56.5291634,81.9515506 56.2204943,79.6886389 55.5789205,77.5205182 C60.1024989,75.9601926 64.5826615,75.4255773 69.3237654,73.0353833 C72.1661678,71.6279753 80.1526092,65.62529 81.1898325,65.5777455" id="Fill-9" fill="#46C573"></path>
                <path d="M5.45945842,85.1415959 C10.3455298,88.7099706 8.20313424,91.1763253 19.4810053,93.5748657 C19.2512877,95.0198324 18.7838235,96.4098024 18.1896801,97.7435834 C11.6701604,97.3226875 6.529095,91.2481638 5.45945842,85.1415959" id="Fill-11" fill="#9AE593"></path>
                <path d="M45.8787857,69.0645194 C39.4764294,74.8518383 36.1893116,83.025029 33.2749459,90.9224911 C33.5024332,101.628658 23.3774621,133.036973 20.9026079,103.733734 C22.7732081,97.5149374 38.7680962,48.0663737 45.8787857,69.0645194" id="Fill-13" fill="#29B154"></path>
                <path d="M33.1855716,90.3470978 C36.067078,82.4414383 39.3286221,74.2382901 45.6590151,68.4453076 C47.7365841,74.2074383 51.0440717,80.2700386 49.7970545,86.7141877 C48.9989159,89.2666889 47.5542969,91.555236 46.1413477,93.8038396 C42.7086677,98.8930436 39.491729,104.398225 38.382245,110.495552 C40.1223002,109.951398 41.8785619,109.375349 43.7305766,109.343156 C41.6153903,114.281529 36.7233716,112.654582 36.9455063,117.961238 C36.5779581,118.289281 35.8437538,118.945515 35.476503,119.273706 C35.3089355,118.985607 34.9733545,118.401212 34.8139647,118.113262 C35.7289694,113.337941 33.2014809,114.181074 31.8362594,116.625073 C31.2458331,116.361119 30.662841,116.088818 30.0880266,115.840811 C26.9430512,118.377514 27.0228948,122.722251 26.5441306,126.379157 C26.2324878,130.339811 23.7980758,134.19703 25.4582874,138.165733 C17.9644379,147.251213 19.1782984,117.065195 28.1038314,110.58781 C32.3388132,105.932915 31.1606369,96.9271735 33.1855716,90.3470978" id="Fill-15" fill="#46C35B"></path>
                <path d="M45.1408048,110.398406 C49.4864079,109.234385 53.8815229,110.985336 57.7963868,112.6564 C57.7632302,114.975799 56.161303,116.327316 54.1790407,117.300265 C51.3095777,118.871322 48.2573815,120.226565 45.0230467,120.775488 C41.7390512,121.182523 38.6593484,121.786592 35.3505226,121.496108 C35.1511366,121.163446 34.5318655,120.251455 34.3327769,119.910744 C34.7143014,119.569735 35.4772018,118.888163 35.8590237,118.547303 C38.9359016,115.562728 43.7803413,114.862824 45.1408048,110.398406" id="Fill-17" fill="#46C35B"></path>
                <path d="M31.7730685,115.134872 C32.5493505,113.567392 33.8564363,112.689979 35.4092976,113.487207 C34.7118184,116.693409 35.6522481,119.301801 36.1934599,122.504425 C40.0277368,125.56695 45.0500032,126.364029 49.612983,125.486318 C51.1340259,126.999844 53.6925895,128.154923 53.7007671,130.814437 C52.7340202,134.351513 49.8902797,136.572544 47.3712662,138.658691 C44.860133,140.602056 44.3937096,141.548624 41.9616766,143.616589 L40.3891889,143.303599 L40.4067337,143.279305 C43.456551,139.025783 47.9890505,137.924657 49.1612794,132.121987 C46.5868066,131.754746 44.0121851,130.957816 41.4061912,131.181529 C39.7505888,131.772482 38.2530381,132.78448 36.7163834,133.662042 C36.0508714,132.721733 35.4012686,131.781574 34.7518146,130.850207 C30.6244804,132.086216 28.8420501,136.751395 25.4437163,139.240702 C22.9480463,134.738725 25.3950964,130.424393 26.5212331,126.050444 C25.4944177,121.355904 26.5631622,116.953935 30.0382173,114.257161 C30.6087198,114.534678 31.1871027,114.83947 31.7730685,115.134872" id="Fill-19" fill="#46C35B"></path>
                <path d="M31.7730685,115.134872 C32.5493505,113.567392 33.8564363,112.689979 35.4092976,113.487207 C34.7118184,116.693409 35.6522481,119.301801 36.1934599,122.504425 C40.0277368,125.56695 45.0500032,126.364029 49.612983,125.486318 C51.1340259,126.999844 53.6925895,128.154923 53.7007671,130.814437 C52.7340202,134.351513 49.8902797,136.572544 47.3712662,138.658691 C44.860133,140.602056 44.3937096,141.548624 41.9616766,143.616589 L40.3891889,143.303599 L40.4067337,143.279305 C43.456551,139.025783 47.9890505,137.924657 49.1612794,132.121987 C46.5868066,131.754746 44.0121851,130.957816 41.4061912,131.181529 C39.7505888,131.772482 38.2530381,132.78448 36.7163834,133.662042 C36.0508714,132.721733 35.4012686,131.781574 34.7518146,130.850207 C30.6244804,132.086216 28.8420501,136.751395 25.4437163,139.240702 C22.9480463,134.738725 25.3950964,130.424393 26.5212331,126.050444 C25.4944177,121.355904 26.5631622,116.953935 30.0382173,114.257161 C30.6087198,114.534678 31.1871027,114.83947 31.7730685,115.134872 Z" id="Stroke-21" stroke="#46C35B" stroke-width="0.216"></path>
                <path d="M60.5857088,115.23792 C60.8236041,116.182849 61.4082317,117.400675 61.6221887,118.361254 C58.2226654,121.502473 54.4029596,124.409248 49.6129384,125.992377 C41.6983117,127.210352 34.6667224,124.708525 35.9736595,121.318852 C39.3134116,121.249398 42.3403315,122.757112 46.4443222,121.982538 C53.7481529,120.691234 61.3233328,111.831703 60.5857088,115.23792" id="Fill-23" fill="#46C35B"></path>
                <path d="M60.40021,114.43783 C68.8790946,120.316512 60.5633169,137.506324 50.809165,141.516759 C47.5376591,143.120605 43.8538509,144.549922 40.1941297,143.31913 C42.6261627,141.485162 44.8599992,139.396779 47.3712811,137.673252 C49.8902946,135.823337 52.7338864,133.853741 53.7006333,130.71744 C53.6929017,128.358694 51.1340408,127.334623 49.6129979,125.992347 C53.6903741,124.02439 61.6738418,119.505125 60.40021,114.43783" id="Fill-25" fill="#69CF5C"></path>
                <path d="M17.6486914,126.095753 C19.0589642,130.947681 19.3520215,136.013783 20.1993747,140.976599 C21.1582413,148.536331 22.7267145,156.000825 23.9068237,163.528513 C24.4139866,163.798727 24.9208522,164.076691 25.4360442,164.354655 L23.9148526,164.25122 C24.9369102,168.85693 25.3930743,172.868706 26.0663179,177.52211 C26.5021123,177.538057 26.7349523,178.31442 27.1628664,178.330516 C26.8042393,174.054041 24.7394571,169.22432 28.6740961,167.033694 C31.0396671,162.492221 32.6994326,161.840756 35.2923423,157.544458 C36.4885095,165.612425 36.8114523,170.65155 36.7953944,178.774961 C29.7294589,178.735166 22.6712551,179.179909 15.6129026,178.814904 C13.5924284,171.334016 16.5057533,139.637751 16.9912083,129.843873 C17.0387874,128.565088 17.3083525,127.310449 17.6486914,126.095753" id="Fill-27" fill="#8FDE79"></path>
                <path d="M21.7944327,139.169132 C25.1924692,136.961515 30.6245101,131.845036 34.7518443,130.749127 C35.4012984,131.574673 36.0507524,132.408714 36.7164131,133.242309 C38.2532165,132.464307 39.7503212,131.566774 41.4062209,131.042889 C57.4247498,129.82402 42.3136426,138.662089 39.2673938,142.429883 C38.4555762,143.287622 36.0299366,141.650093 33.8646436,141.818361 C35.5044854,143.668724 41.1127176,144.482346 42.6101196,146.475789 C39.1838331,147.345303 36.6691314,147.592117 33.3656583,146.741979 C34.4822792,149.028887 34.9385921,153.254092 35.9841418,155.580943 C34.7484246,155.183595 34.2287721,152.840201 32.9851746,152.506793 C31.2900221,152.625878 29.9427915,153.480338 28.7704139,154.838115 C28.2732128,159.38555 25.4416644,160.280997 24.7737735,162.11556 C22.4673789,156.611869 21.5263544,152.850783 22.4504289,145.766198 C22.2152099,146.435846 20.9073807,140.717832 21.7944327,139.169132" id="Fill-29" fill="#46C35B"></path>
                <path d="M35.0567517,150.175128 C33.7498146,152.827189 30.0145616,157.605044 28.5410978,160.169766 C27.1153617,162.615404 26.3478521,165.83025 26.0546462,168.577848 C25.9278183,167.410696 25.4417685,169.113208 25.2993287,167.961706 C24.2172026,167.131689 24.6179075,162.578889 24.9839688,160.760273 C26.2068992,156.527169 30.3598071,150.505108 35.0567517,150.175128" id="Fill-31" fill="#47C037"></path>
                <path d="M35.0567517,150.175128 C36.3430216,151.553771 35.9724998,156.530895 35.9093088,156.195549 L35.8678258,156.312547 C33.1381264,167.138098 25.8390536,164.961184 27.1627921,178.330442 C27.0756629,174.971323 26.3768456,171.741274 26.0281803,168.398252 C26.3213863,165.650654 27.115213,162.615404 28.5410978,160.169766 C30.0145616,157.605044 33.7495172,152.827338 35.0567517,150.175128" id="Fill-33" fill="#60CA4D"></path>
                <path d="M17.6486914,126.214077 C17.8308299,118.614402 18.7990637,110.977466 20.9456224,103.647111 C24.0256226,106.071883 18.0767542,117.405072 27.9673985,110.665968 C14.8274022,125.861592 25.7234514,158.131521 27.2717035,178.844251 C23.1507628,177.231313 21.0502963,147.737151 20.1993747,141.049466 C19.3520215,136.101853 19.0586669,131.051102 17.6486914,126.214077" id="Fill-35" fill="#35BE5A"></path>
                <path d="M17.6486914,126.214077 C17.8308299,118.614402 18.7990637,110.977466 20.9456224,103.647111 C24.0256226,106.071883 18.0767542,117.405072 27.9673985,110.665968 C14.8274022,125.861592 25.7234514,158.131521 27.2717035,178.844251 C23.1507628,177.231313 21.0502963,147.737151 20.1993747,141.049466 C19.3520215,136.101853 19.0586669,131.051102 17.6486914,126.214077 Z" id="Stroke-37" stroke="#35BE5A" stroke-width="0.216"></path>
                <polygon id="Fill-39" fill="#46C35B" points="40.3578611 143.372457 36.6010488 142.245845 48.675869 130.588489 50.2801752 132.196657 47.6838457 136.097843"></polygon>
                <path d="M53.3957705,15.6918912 C51.3031843,10.9764857 49.9613063,5.87461307 45.9741817,1.72780458 C40.4399944,7.30124754 37.5491209,14.8940669 40.2737651,22.2569137 C44.3512899,28.649643 47.0870855,35.4994857 47.7148316,42.3779445 C47.9310189,46.9329803 45.9493514,51.1468579 45.5843308,55.6252858 C46.9204101,54.8468371 48.2819144,54.004449 48.9199198,52.7639686 C55.1359744,41.4728096 58.4663594,28.4308487 53.3957705,15.6918912" id="Fill-41" fill="#ED5C05"></path>
                <path d="M49.6597146,0.150503081 C52.3115034,5.00034488 54.1496903,10.2019269 56.5580825,15.140747 C61.5781186,21.1872508 62.9153874,29.0247978 65.0722053,36.2628961 C68.1128042,46.8487862 68.3087704,57.8598944 69.8652002,68.6689011 C73.4831411,66.5984032 77.5999186,64.765777 80.1117953,61.4027828 C85.807454,41.1036463 69.9437056,-0.178731724 49.6597146,0.150503081" id="Fill-43" fill="#72D262"></path>
                <path d="M56.5581569,15.1407619 C71.4050516,39.8378435 33.4113937,82.6075163 69.8648285,68.6687669 C73.9433941,53.0254189 68.8820237,26.3001674 56.5581569,15.1407619" id="Fill-45" fill="#94E38B"></path>
                <g id="Group-49" transform="translate(84.155450, 25.893147)">
                    <mask id="mask-2" fill="white">
                        <use xlink:href="#path-1"></use>
                    </mask>
                    <g id="Clip-48"></g>
                    <path d="M3.57498595,0.129249625 C5.53345872,0.129249625 7.12111224,1.70075337 7.12111224,3.63919967 C7.12111224,5.577795 5.53345872,7.14929875 3.57498595,7.14929875 C1.61651319,7.14929875 0.0288596693,5.577795 0.0288596693,3.63919967 C0.0288596693,1.70075337 1.61651319,0.129249625 3.57498595,0.129249625" id="Fill-47" fill="#FFCD34" mask="url(#mask-2)"></path>
                </g>
                <path d="M84.8648386,10.7935808 C87.0537724,10.7935808 88.8283224,12.6953626 88.8283224,15.041291 C88.8283224,17.3873684 87.0537724,19.2891503 84.8648386,19.2891503 C82.6759048,19.2891503 80.9015035,17.3873684 80.9015035,15.041291 C80.9015035,12.6953626 82.6759048,10.7935808 84.8648386,10.7935808" id="Fill-50" fill="#9BD012"></path>
                <path d="M73.5572752,2.01921241 C75.2448447,2.01921241 76.6128912,3.48534313 76.6128912,5.29397344 C76.6128912,7.10260375 75.2448447,8.56888351 73.5572752,8.56888351 C71.8697057,8.56888351 70.5016592,7.10260375 70.5016592,5.29397344 C70.5016592,3.48534313 71.8697057,2.01921241 73.5572752,2.01921241" id="Fill-52" fill="#3E735A"></path>
                <path d="M36.8835197,28.4119501 C38.6601513,38.9504447 37.9161338,49.9485863 43.480504,49.1480792 C46.1516218,40.8350867 42.4994834,32.0840584 36.8835197,28.4119501" id="Fill-54" fill="#46C573"></path>
                <path d="M2.89109654,57.1334018 C4.44306577,57.1334018 5.70123435,58.3786516 5.70123435,59.9149813 C5.70123435,61.451162 4.44306577,62.6964118 2.89109654,62.6964118 C1.33912731,62.6964118 0.0809587321,61.451162 0.0809587321,59.9149813 C0.0809587321,58.3786516 1.33912731,57.1334018 2.89109654,57.1334018" id="Fill-56" fill="#72D262"></path>
                <path d="M2.03245819,66.260509 C3.15502647,66.260509 4.06497586,67.1611726 4.06497586,68.2722842 C4.06497586,69.3832467 3.15502647,70.2840594 2.03245819,70.2840594 C0.910038597,70.2840594 8.92107241e-05,69.3832467 8.92107241e-05,68.2722842 C8.92107241e-05,67.1611726 0.910038597,66.260509 2.03245819,66.260509" id="Fill-58" fill="#72D262"></path>
                <path d="M9.22507282,52.2021978 C10.3474924,52.2021978 11.2575905,53.1028614 11.2575905,54.2139729 C11.2575905,55.3249355 10.3474924,56.2255991 9.22507282,56.2255991 C8.10250455,56.2255991 7.19255516,55.3249355 7.19255516,54.2139729 C7.19255516,53.1028614 8.10250455,52.2021978 9.22507282,52.2021978" id="Fill-60" fill="#72D262"></path>
            </g>
        </g>
    </g>
</svg>