<?xml version="1.0" encoding="UTF-8"?>
<svg width="212px" height="27px" viewBox="0 0 212 27" version="1.1" xmlns="http://www.w3.org/2000/svg" xmlns:xlink="http://www.w3.org/1999/xlink">
    <!-- Generator: Sketch 43.2 (39069) - http://www.bohemiancoding.com/sketch -->
    <title>Verbatoria Logo</title>
    <desc>Created with Sketch.</desc>
    <defs></defs>
    <g id="Symbols" stroke="none" stroke-width="1" fill="none" fill-rule="evenodd">
        <g id="Header-Method" transform="translate(-37.000000, -31.000000)">
            <g id="Verbatoria-Logo" transform="translate(38.000000, 31.000000)">
                <g id="Page-1">
                    <path d="M59.8502045,0.0264232558 C62.3110178,-0.0760926004 64.7746634,0.155268922 67.2353679,0.123057505 C68.7850251,0.623873573 70.3171443,1.18323087 71.7797109,1.90364524 C71.6085798,2.04419915 71.2603263,2.32244863 71.0891407,2.46300254 C70.3143666,2.48053742 69.5424791,2.61817801 68.7704827,2.54215687 C67.2209889,2.31079535 65.6596761,2.53325201 64.1013588,2.45420761 C62.0208248,2.59767484 59.9314672,2.15265159 57.8624799,2.5362203 C57.8565976,1.88314207 57.8914556,1.23297717 57.9900385,0.588693869 C58.6168839,0.427581818 59.2291869,0.210951797 59.8502045,0.0264232558" id="Fill-1" fill="#81D768"></path>
                    <path d="M72.1473705,0.386938266 C73.6365164,1.60195729 72.4478576,3.73170359 72.2121302,5.88607569 C69.2927704,5.50959789 66.3735739,5.17258732 63.4542686,4.82551755 C63.4079183,5.67092981 63.2405997,6.51205455 63.2086284,7.36725116 C62.184347,8.00746681 61.2953039,6.8587945 60.2593669,7.14693827 C59.4294735,7.32789387 58.5907567,7.31821945 57.7608088,7.22521311 C57.7219203,5.3903167 57.8235533,3.49462537 57.8624962,1.62416448 C60.9181836,0.6786 70.3858963,2.80109049 72.1473705,0.386938266" id="Fill-3" fill="#6DD05F"></path>
                    <path d="M67.2354605,0.123052008 C67.9929145,0.0615424947 68.7617519,-0.0262968288 69.5191515,0.0762190275 C70.6509481,0.524265539 71.7477777,1.06026131 72.856263,1.56388076 C72.7032145,2.50856575 71.7510456,2.57628668 70.8002385,2.1122444 C69.3377808,1.39188499 68.7850087,0.623868076 67.2354605,0.123052008" id="Fill-5" fill="#31955B"></path>
                    <path d="M69.5192713,0.0762410148 C70.7438229,0.0498562368 71.9683201,-0.0117082452 73.1958129,0.00291331924 C73.0827421,0.521264271 72.9723402,1.04263848 72.8562739,1.56384778 C71.7013838,1.17274841 70.5884324,0.675615222 69.5192713,0.0762410148" id="Fill-7" fill="#47C577"></path>
                    <path d="M1.49798018,0.758941649 C3.25041306,0.234379281 5.09315003,0.384167865 6.88349102,0.459199577 C9.20133201,0.813909937 11.5676474,1.92333488 13.3478034,3.19821438 C9.32300831,3.19821438 5.34085989,3.52269218 1.22091332,3.38565624 C1.27962731,2.50434968 1.40658678,1.63310233 1.49798018,0.758941649" id="Fill-9" fill="#7AD464"></path>
                    <path d="M149.735393,0.837584778 C152.718587,0.448134461 155.742248,0.149436786 158.745648,0.471550951 C161.505478,0.808341649 164.238838,2.31958478 165.486646,4.91436279 C166.378631,6.84314503 165.943831,8.8427814 164.50877,10.9150309 C163.681763,12.2651619 162.584825,13.4337328 161.397963,14.4704896 C159.714974,15.8996101 157.637109,16.7108871 155.568121,17.3874368 C155.571117,18.3568025 155.536204,19.3262233 155.504288,20.2983924 C154.099836,19.3494748 152.944837,18.0990562 151.62448,17.0506461 C150.652377,16.2627856 149.717964,15.4310605 148.786492,14.596367 C149.123144,10.0130562 149.355277,5.4210055 149.735393,0.837584778" id="Fill-11" fill="#46C573"></path>
                    <path d="M196.229129,1.67230571 C198.289347,0.436398732 200.732786,0.348614376 203.059995,0.237303594 C205.102948,0.172770825 207.140018,0.404187315 209.185803,0.471523467 C209.34871,2.81174334 209.530026,5.1493797 209.690754,7.49740507 C209.537107,7.36262283 209.229376,7.09316829 209.07551,6.9555277 C209.217774,6.90863975 209.505026,6.8178871 209.647236,6.77110909 C205.73268,3.90390825 201.107019,1.89184905 196.229129,1.67230571" id="Fill-13" fill="#47C577"></path>
                    <path d="M80.7145969,0.893251163 C81.8695958,0.714604228 83.0390282,0.814261734 84.1881449,0.995712051 C86.6112136,6.34049852 89.0951748,11.6560419 91.5442781,16.9890101 C90.2197275,16.4237712 89.1573202,15.5396613 88.2129399,14.2918262 C86.8549474,13.2638643 85.7841524,11.8405704 84.2025783,11.137581 C83.9008385,10.4465197 83.5844474,9.76117505 83.2682742,9.0788537 C83.2334162,9.28086216 83.1665868,9.68504397 83.1317832,9.88419408 C82.3368023,9.39519619 81.6228664,8.7918093 80.9757598,8.12108626 C81.0251057,7.94546258 81.1208018,7.59119197 81.1702022,7.41529345 C80.6246741,7.00248161 80.0760958,6.58653658 79.5509923,6.15014334 C79.8731023,4.38720042 80.3867136,2.6592723 80.7145969,0.893251163" id="Fill-15" fill="#46C573"></path>
                    <path d="M19.0412685,1.82744271 C23.6638788,1.71332854 28.347545,0.782000846 32.9325194,1.77472812 C32.9412339,3.57296068 32.9354061,5.37113827 32.9382383,7.16942579 C30.8257874,7.34510444 28.7161686,7.52963298 26.6035543,7.68772178 C26.5339472,8.6131129 26.548435,9.54444059 26.5599818,10.4758233 C28.2779379,10.3850706 29.9900662,10.2269268 31.7078589,10.1242461 C30.1852711,17.6513285 31.7999603,16.9942376 26.4033385,11.6238359 C25.0685483,10.4845082 23.692909,9.39520169 22.4335538,8.17100296 C22.4364404,7.98647442 22.443521,7.82778097 22.4462987,7.64044905 C21.2786093,6.91448288 20.1115189,5.64383594 18.9252022,4.7268 C18.9716614,3.76040254 18.9658336,2.79103679 19.0412685,1.82744271" id="Fill-17" fill="#46C573"></path>
                    <path d="M133.418296,1.86555772 C137.407198,0.375367442 142.959374,3.23701649 144.752874,6.72420465 C145.414577,8.3378537 145.501559,10.1272913 145.565338,11.8551095 L145.542245,11.7263738 C145.040289,10.7013252 143.980986,10.1858875 143.098751,9.55611586 C139.892248,7.38899112 136.378123,5.52342241 132.527292,4.90546892 C131.131555,4.63310106 129.7039,4.67998901 128.290571,4.63029767 C129.790882,3.36789598 131.595874,2.53325751 133.418296,1.86555772" id="Fill-19" fill="#46C573"></path>
                    <path d="M167.828578,1.28280592 C170.077411,1.46436617 172.320634,1.72200254 174.569521,1.93879746 C174.624695,2.32242114 174.679705,2.7119814 174.737765,3.10154165 C172.526732,2.2316685 170.187649,1.69281438 167.816813,1.57859027 L167.828578,1.28280592 Z" id="Fill-21" fill="#388943"></path>
                    <path d="M167.816982,1.57858478 C170.187709,1.69269894 172.526683,2.231663 174.737771,3.10153615 C174.769797,3.73691459 174.813315,4.36948964 174.85972,5.00508795 C173.588872,5.03729937 172.314757,5.08710063 171.043691,5.07528245 C169.78145,5.06357421 168.907929,3.99174757 167.900968,3.37390402 C167.869214,2.77343044 167.84013,2.17312178 167.816982,1.57858478" id="Fill-23" fill="#7ED666"></path>
                    <path d="M183.289698,2.58889091 C185.260102,2.32531797 187.221629,1.976874 189.203635,1.81284863 C189.296553,6.0916351 189.580864,10.3615167 189.720078,14.6373349 C189.316814,12.5141298 187.047557,11.7584808 185.793975,10.2355844 C185.805522,10.0452292 185.831611,9.66743214 185.843212,9.47713192 C184.308315,8.10952093 182.587309,6.9643666 180.950724,5.72840465 C181.731381,4.68301776 182.503268,3.62867104 183.289698,2.58889091" id="Fill-25" fill="#46C573"></path>
                    <path d="M195.17561,2.49817125 C195.482415,2.20793869 195.790201,1.91809091 196.229085,1.6723277 C201.107085,1.89187104 205.732582,3.90387526 209.647247,6.77107611 C209.6485,7.12864482 209.724316,7.54349049 209.690765,7.49737209 C208.686799,6.76239112 206.991937,5.59371036 205.883506,5.03440803 C202.610283,3.28020507 198.904602,2.23163002 195.17561,2.49817125" id="Fill-27" fill="#3A661E"></path>
                    <path d="M107.002604,2.509874 C111.912521,2.54796702 116.819551,2.43368795 121.729522,2.44841945 C121.276858,4.61559915 120.864825,6.79443214 120.43825,8.97046173 C118.554936,8.97628837 116.677395,9.13740042 114.794082,9.12569218 C113.28511,7.73158647 111.424944,6.81493531 109.611292,5.89542579 C105.496574,3.86000507 100.612583,3.05460973 96.2076177,4.60977252 C96.1350695,3.94778943 96.0682946,3.28597125 96.0132298,2.62706638 C99.6724512,2.45715941 103.340333,2.65339619 107.002604,2.509874" id="Fill-29" fill="#46C573"></path>
                    <path d="M9.71599445,3.01940803 C10.7347203,2.9842833 11.7449495,2.80277801 12.7664531,2.80277801 C14.5254764,3.66550529 16.1231723,5.67893869 15.9386971,7.50916279 C13.5636671,7.03170825 11.1194658,7.23085835 8.72493715,7.4358351 C8.38174897,6.01539958 6.8593246,5.81333615 5.69670044,5.89540381 C5.61630911,6.67727273 5.52502465,7.45639323 5.43374019,8.23820719 C4.76953136,6.57701057 2.13214029,7.10728964 0.741631776,7.84754757 C0.943753872,6.22504863 1.03514726,4.58034249 1.25388139,2.9638351 C4.07454943,3.04881607 6.89527194,2.9549852 9.71599445,3.01940803" id="Fill-31" fill="#6DD05F"></path>
                    <path d="M193.396914,5.83384482 C193.814829,4.63608584 194.395052,3.49681311 195.175599,2.49814926 C198.904646,2.231663 202.610163,3.28018309 205.883495,5.03438605 C205.851742,5.23062283 205.790631,5.62595476 205.758714,5.82219154 C205.253926,5.93636068 204.748921,6.04470317 204.249797,6.1531556 C204.226541,6.01249175 204.180136,5.72555729 204.159711,5.58494841 C203.063045,5.62595476 201.951455,5.69620423 200.921291,6.10329937 C200.198913,5.91294419 199.455893,5.75776871 198.710149,5.83972643 C196.940069,6.01540507 195.166939,5.75485539 193.396914,5.83384482" id="Fill-33" fill="#7ED666"></path>
                    <path d="M167.901077,3.37390951 C168.912668,3.96229006 169.679163,4.3626241 170.869565,4.87762199 C172.140684,4.88944017 173.588654,5.03730486 174.85972,5.00509345 C174.955525,6.07109345 175.042506,7.1401167 175.080306,8.21491163 C174.845232,8.21491163 174.700135,8.60144863 174.465061,8.60144863 C174.546324,8.69802791 174.383744,8.50481438 174.465061,8.60144863 C173.850035,8.89723298 173.228854,9.14827315 173.00549,9.90095391 C172.636976,10.83514 172.088397,11.6912161 171.569013,12.5550977 C170.271967,10.7745099 169.720502,8.60727526 168.986305,6.56025624 C168.806569,6.00969387 168.4002,5.58495391 168.046064,5.15152896 C167.779183,4.61558816 167.959028,3.95376998 167.901077,3.37390951" id="Fill-35" fill="#6DD05F"></path>
                    <path d="M96.2076341,4.60978351 C100.612654,3.05462072 105.496427,3.86001607 109.611308,5.89543679 C111.425015,6.8149463 113.285018,7.73159746 114.794043,9.12570317 C114.614143,9.12559323 114.254343,9.12570317 114.071502,9.12570317 C111.970543,7.89864609 109.910216,6.55725497 107.600327,5.75191459 C104.031028,4.38419366 99.9916364,4.10594419 96.3729918,5.44728034 C96.341075,5.23356364 96.239551,4.82355518 96.2076341,4.60978351" id="Fill-37" fill="#258149"></path>
                    <path d="M96.3730518,5.44729683 C99.9916963,4.10596068 104.031034,4.38421015 107.600332,5.75193108 C109.910221,6.55721649 111.970549,7.89866258 114.071507,9.12571966 C113.560783,9.14913615 113.052999,9.1608444 112.547994,9.16963932 C112.553876,9.58833277 112.56259,10.0101044 112.574083,10.4347894 C109.826017,10.270819 107.063464,10.5460452 104.332773,10.1390051 C104.341488,9.82271755 104.34737,9.51231163 104.35603,9.19893742 C101.831492,9.19893742 99.3097317,9.20185074 96.7850845,9.1960241 C96.6893339,7.93955899 96.463029,6.70079366 96.3730518,5.44729683" id="Fill-39" fill="#76D25E"></path>
                    <path d="M127.327182,5.69336786 C127.634859,5.32716913 127.956914,4.97575687 128.290571,4.63028118 C129.7039,4.67997252 131.131555,4.63308457 132.527292,4.90545243 C136.378178,5.52340592 139.892194,7.3890296 143.098751,9.55609937 C143.981095,10.185871 145.058807,10.7074101 145.560817,11.7324038 C145.15178,11.5331987 144.729617,11.3367421 144.340841,11.1142854 C142.55916,9.82269556 140.725137,8.58393023 138.728698,7.65260254 C135.229007,5.91879281 131.215704,4.92606554 127.327182,5.69336786" id="Fill-41" fill="#1F7B42"></path>
                    <path d="M18.9251314,4.72686047 C20.0850867,5.64757928 33.6308619,15.7783446 30.152303,15.767186 C30.1125431,15.767186 30.1919541,15.7631734 30.152303,15.767186 C26.6854543,12.5371945 22.8516704,9.74810359 18.9733335,7.04828118 C18.963802,6.47292812 18.9349897,5.30254334 18.9251314,4.72686047" id="Fill-43" fill="#2E8B4E"></path>
                    <path d="M165.486712,4.91436279 C166.438554,6.89701395 165.814595,9.25757209 164.508781,10.9150309 C164.659651,8.88846004 165.031106,6.89113235 165.486712,4.91436279" id="Fill-45" fill="#46C573"></path>
                    <path d="M167.897351,4.48766047 C168.251487,4.92108541 168.806438,6.00967738 168.986283,6.56023975 C169.72059,8.60725877 170.271891,10.7744934 171.568991,12.5551362 C172.463807,11.0666499 172.859773,8.21495011 175.080284,8.21495011 C175.190631,9.78456956 175.350107,11.3514406 175.408113,12.9271066 C175.968238,12.5698127 176.29318,11.9665357 176.687892,11.4480748 C177.982106,9.69095856 179.305404,7.95714884 180.596676,6.19706427 C182.349544,7.51492896 184.16592,8.75369429 185.793953,10.2355844 C187.047698,11.7584808 189.316738,12.5141298 189.720111,14.6373349 C189.778226,15.044485 189.798487,15.4574617 189.781058,15.8762101 C189.592498,15.5129797 189.395114,15.1644808 189.200672,14.8131784 C187.587453,14.7604638 185.985454,15.0268402 184.372072,15.006337 C183.958896,16.5024638 182.963645,15.9824638 182.147694,15.9882905 C181.299882,16.6005822 180.222006,16.7061763 179.505565,16.8719057 C176.899165,19.1199987 173.409168,19.098671 170.742039,17.9673137 C169.894553,17.940874 169.142981,17.4839776 168.376922,17.1735717 C168.258077,13.1671531 167.929214,8.49693742 167.897351,4.48766047" id="Fill-47" fill="#5ECC65"></path>
                    <path d="M205.590197,4.87973827 C206.698846,5.43904059 208.071544,6.22052474 209.07551,6.95556068 C209.229321,7.09320127 209.542499,7.36567907 209.696255,7.50051628 L209.696201,7.50040634 C209.678608,7.71428795 209.795873,8.23208922 209.800993,8.44915899 C208.057057,8.2676537 206.310125,8.49599197 204.568912,8.60142114 C204.467497,7.78431755 204.278719,6.3991167 204.159711,5.58492643 C204.658889,5.47652896 203.677799,5.85036829 204.182696,5.73614419 C204.214776,5.5399074 205.55839,5.07597505 205.590197,4.87973827" id="Fill-49" fill="#6DD05F"></path>
                    <path d="M18.9393633,5.43215856 C20.2412561,6.34320296 21.5965798,7.27744397 22.7492912,8.38082241 C24.0976978,9.69846723 25.5705039,10.8709958 26.9997376,12.0973383 C28.2600731,14.6320359 20.5763289,13.6496977 18.6479719,13.5222262 C18.7381126,10.8206998 18.808918,8.13060677 18.9393633,5.43215856" id="Fill-51" fill="#5ACB67"></path>
                    <path d="M63.2464875,6.92091966 C63.0869031,8.7457019 62.9899542,10.5734524 62.8043352,12.3969154 C61.8438331,12.7747125 60.796186,12.8831099 59.7776235,12.7484376 C58.953558,12.3676173 58.2774211,11.7292706 57.5229627,11.2371945 C57.5805329,9.55269133 57.6898455,7.87077167 57.7506292,6.18907188 C58.9647234,6.72748626 60.3063762,7.02700846 61.7175817,7.02700846 C62.2353868,7.02700846 62.7335298,6.99661099 63.2464875,6.92091966" id="Fill-53" fill="#61CD63"></path>
                    <path d="M127.292395,5.69911205 L127.327198,5.69339535 C131.215775,4.92609302 135.229023,5.91876533 138.728715,7.65257505 C138.969616,7.99227907 139.198808,8.34369133 139.427945,8.69521353 C138.217936,8.76254968 136.981674,8.67174207 135.815183,9.06119239 C135.353913,8.94707822 134.883656,8.9235518 134.416504,8.94707822 C132.829211,8.61611416 131.221439,8.94119662 129.625486,8.77134461 C128.24135,8.63661734 126.851332,8.72154334 125.464255,8.76254968 C125.972093,7.68187315 126.60177,6.66858774 127.292395,5.69911205" id="Fill-55" fill="#7DD669"></path>
                    <path d="M193.411696,5.79197548 C196.859536,5.60107061 204.96528,5.23498182 207.198863,5.98145116 C205.900347,6.46236871 205.361681,7.32647019 205.467399,8.22970909 C204.122043,4.9777852 202.932404,5.12213192 199.96958,8.12994165 C198.079785,8.6585167 195.15122,8.62965835 193.261262,8.33365412 C193.245684,7.4467408 193.231905,6.66910444 193.411696,5.79197548" id="Fill-57" fill="#72D15F"></path>
                    <path d="M180.59679,6.19704778 C180.683826,6.07991036 180.860731,5.84552558 180.950708,5.72844313 C182.697858,6.83676871 188.196439,11.0006715 189.638962,12.4749759 C189.627416,12.665386 189.730792,14.4207433 189.719299,14.6110985 C188.091429,13.1291535 182.349441,7.51496744 180.59679,6.19704778" id="Fill-59" fill="#328D4D"></path>
                    <path d="M155.460138,5.71258478 C157.152005,5.1414093 158.739298,6.63792093 159.818644,7.84458478 C159.82164,8.93103298 159.575019,10.0761873 158.785703,10.8698744 C157.947149,11.8450668 156.687576,12.2638152 155.471684,12.5098533 C154.694133,10.3251387 155.1322,7.94413235 155.460138,5.71258478" id="Fill-61" fill="#FEFEFE"></path>
                    <path d="M79.3913861,6.81495729 C79.4325077,6.65098689 79.5127901,6.31716448 79.551025,6.15011586 C80.1249842,6.52978182 82.7819285,8.61373953 83.2897664,9.08690655 C83.2397669,9.26275011 83.1817609,9.70859789 83.1317615,9.88422156 C82.4991972,9.57244144 79.8443226,7.35535053 79.3913861,6.81495729" id="Fill-63" fill="#328C4D"></path>
                    <path d="M0.758516133,7.70980254 C2.15093095,6.89308372 4.76533751,6.34301607 5.43047225,8.17604355 C5.34169321,9.17795053 5.21696683,10.1732613 5.10612919,11.1717603 C6.07077065,11.1588427 7.17119502,11.1266313 7.889107,10.2540647 C8.61535222,9.52040296 8.82880318,8.36359535 8.72618986,7.29061438 C11.123932,7.06447484 13.5715647,6.84471163 15.9498081,7.3715277 C16.4554129,10.8252402 14.3888765,10.9127497 12.0941289,12.548496 C11.2653249,12.9201366 10.3838525,12.5968681 9.53838191,12.5129865 C8.14967075,12.3060309 6.7776261,12.7262085 5.40264029,12.8877053 C4.14421102,13.072014 2.84977994,12.6163818 1.62174251,13.1301704 C1.25034112,12.8425214 0.88166301,12.5516841 0.515817114,12.2640901 C0.514836732,10.7231641 0.538801626,9.15579831 0.758516133,7.70980254" id="Fill-65" fill="#61CE66"></path>
                    <path d="M79.3913861,6.81495729 C80.6405018,7.80317717 81.8300864,9.08355349 83.1318159,9.88422156 C82.9432558,11.0907755 82.7575279,12.3003526 82.5398286,13.5039932 C81.9230049,12.0493674 79.9992775,12.8203526 78.0854628,12.4000101 C78.5121469,10.5372448 78.9328941,8.67173108 79.3913861,6.81495729" id="Fill-67" fill="#5ECC65"></path>
                    <path d="M138.011124,7.31090317 C140.411426,8.1551611 142.30547,9.63892008 144.340906,11.114214 C142.11326,11.4185734 140.708536,11.5066326 138.461174,11.4196727 C137.971636,10.0882858 136.019696,9.3059222 134.643893,8.82236617 C137.192069,7.97173192 139.578156,9.52244228 138.011124,7.31090317" id="Fill-69" fill="#6DD05F"></path>
                    <path d="M193.260483,8.22373404 C195.301202,8.02788203 197.706679,8.2574296 199.969564,8.13001311 C200.103059,8.85031755 200.303275,9.60305328 200.848749,10.1272858 C201.884849,11.2548503 203.480748,11.4861569 204.922944,11.6032943 C204.798327,10.6016622 204.685092,9.60013996 204.568917,8.60142114 C206.310239,8.49599197 208.056953,8.2676537 209.800998,8.44915899 C209.949036,10.997049 210.169567,13.5361992 210.387212,16.0783725 C210.178391,15.9347404 209.975125,15.7912732 209.774909,15.6506093 C208.060003,16.1338355 206.292592,15.6039412 204.548656,15.6419243 C203.541858,15.5102203 202.592739,15.893789 201.623632,16.0811209 C200.291783,15.9786051 198.974149,15.6946389 197.633531,15.7238271 C197.38397,15.4134761 197.131521,15.1059285 196.887787,14.7984359 C197.131576,14.5407996 197.375255,14.2860216 197.624817,14.0341569 C195.79379,12.4643725 193.425786,10.8945332 193.260483,8.22373404" id="Fill-71" fill="#61CD63"></path>
                    <path d="M125.515883,8.65360254 C128.63377,8.59121353 136.51419,8.7801945 139.219554,9.16139958 C136.325412,9.15887104 131.199811,9.29266385 131.128788,11.2010529 C129.209744,10.9637548 130.104942,11.0029471 128.1603,11.1875307 C124.72368,11.5235518 124.33169,10.6820973 125.515883,8.65360254" id="Fill-73" fill="#6DD05F"></path>
                    <path d="M104.332882,10.1389831 C107.063573,10.5460233 109.825963,10.270797 112.574083,10.4348224 C112.76395,13.5802178 113.036387,14.6219218 113.198096,19.9060782 C112.838187,20.0583404 112.498757,20.2721121 112.109817,20.3423066 C112.065755,20.3316977 106.322078,18.2391649 106.015926,18.110759 C105.273069,17.8032664 104.605646,17.3405433 103.914913,16.9422431 C104.028093,14.6725476 104.199387,12.4057653 104.332882,10.1389831" id="Fill-75" fill="#61CD63"></path>
                    <path d="M124.943035,9.96779535 C126.882993,10.9385353 128.769193,10.7693979 131.128701,11.2010638 C129.767876,13.4208482 130.841449,17.5339053 133.717127,17.6010765 C136.639319,17.4049497 139.355358,14.4001632 138.447089,11.3719603 C140.414661,11.4480913 142.390785,11.3806452 144.340819,11.1142689 C144.729758,11.3367256 145.151486,11.5332372 145.56085,11.7324423 L145.565534,11.8551315 C145.527626,14.1658884 145.144678,16.4941252 144.120288,18.5794021 L144.082543,18.5823154 C141.508604,18.804882 138.894034,19.1825691 136.32881,18.6554233 C134.706714,18.3186875 133.035217,18.257233 131.395582,18.4797996 C129.904094,18.6759264 128.380526,18.6290934 126.920901,19.021622 C126.395743,18.5266875 126.090354,18.659326 125.478051,18.2844973 C125.347497,18.2815839 125.070974,18.3028017 124.940311,18.2999433 L124.686556,17.6919391 C124.178718,15.3666706 124.290046,12.2726156 124.943035,9.96779535" id="Fill-77" fill="#61CD63"></path>
                    <path d="M84.2026328,11.1375865 C86.4955829,12.1566436 89.1636382,15.5857302 91.5442781,16.9890156 C91.9883911,17.9525548 92.4352275,18.9162038 92.8762905,19.8855696 C91.0432484,19.9832482 88.5241023,19.4460431 87.0087585,20.380504 L86.9739549,20.4010072 C86.9187812,20.2516034 86.8114293,19.955819 86.7562012,19.8064702 C85.0093238,19.8620981 83.2623375,19.9820939 81.5184012,20.0992313 C79.8033862,20.0465167 78.2654392,19.1650452 76.6432337,18.6936372 C77.0931201,16.5878021 77.6211103,14.5026901 78.0854301,12.3999882 C79.999735,12.8204406 81.9223731,12.0492355 82.5397959,13.5040262 C82.415124,14.2215273 82.287402,14.9390283 82.1654534,15.6594427 C83.4017696,15.4661742 84.6436957,15.3315019 85.8799575,15.1381784 C85.337316,13.7968973 84.7481609,12.4760093 84.2026328,11.1375865" id="Fill-79" fill="#4DC669"></path>
                    <path d="M84.2026328,11.1375865 C86.4955829,12.1566436 89.1636382,15.5857302 91.5442781,16.9890156 C91.9883911,17.9525548 92.4352275,18.9162038 92.8762905,19.8855696 C91.0432484,19.9832482 88.5241023,19.4460431 87.0087585,20.380504 L86.9739549,20.4010072 C86.9187812,20.2516034 86.8114293,19.955819 86.7562012,19.8064702 C85.0093238,19.8620981 83.2623375,19.9820939 81.5184012,20.0992313 C79.8033862,20.0465167 78.2654392,19.1650452 76.6432337,18.6936372 C77.0931201,16.5878021 77.6211103,14.5026901 78.0854301,12.3999882 C79.999735,12.8204406 81.9223731,12.0492355 82.5397959,13.5040262 C82.415124,14.2215273 82.287402,14.9390283 82.1654534,15.6594427 C83.4017696,15.4661742 84.6436957,15.3315019 85.8799575,15.1381784 C85.337316,13.7968973 84.7481609,12.4760093 84.2026328,11.1375865 Z" id="Stroke-81" stroke="#4DC669" stroke-width="0.216"></path>
                    <path d="M57.5229137,11.2372165 C58.2774811,11.7292376 58.9535089,12.3677493 59.7775745,12.7484596 C60.7962459,12.883077 61.8438386,12.7747894 62.8043406,12.3969924 C62.7811383,12.7689628 62.7636003,13.1437915 62.7521081,13.5215886 C66.1182498,13.298967 69.4118432,14.5640622 72.1831109,16.4180326 C72.7258068,16.7664765 73.1377307,17.2731192 73.5034132,17.8032334 C70.8047482,17.6071066 68.0943732,17.3112123 65.3898259,17.6362947 C65.0813868,16.6972165 64.2877676,16.0578803 63.2438241,16.1357704 C61.9032606,15.1780579 60.7439589,13.9931615 59.3713695,13.0852503 C60.2274609,14.2917493 61.4868706,15.1059395 62.4387126,16.2305357 C61.6351806,16.3563032 61.6689493,17.5770389 60.4189622,17.6510262 C59.4032864,17.7827302 58.4804746,17.0242228 57.4649077,17.3669501 C57.4184485,16.9481467 57.3691026,16.5322567 57.3371313,16.1192249 C57.3575559,14.4908444 57.5054847,12.8654871 57.5229137,11.2372165" id="Fill-83" fill="#52C86B"></path>
                    <path d="M15.7686226,9.10365539 C16.7948102,8.96782875 13.1405996,13.4316385 12.0805888,14.3966617 C13.8663002,15.0267082 16.3571786,17.5634397 17.2012875,19.3948182 C14.4275144,18.8424419 11.4605516,17.3340021 8.62354386,17.583778 C8.30350359,17.0500359 8.00938898,16.365186 7.3895152,16.1862643 C6.69747442,16.0196004 5.99399584,16.2077569 5.30783735,16.2973002 C5.23866595,16.9081628 5.17232677,17.5160571 5.10604205,18.1269197 C3.3154832,18.1793044 1.66925836,18.9845349 0.083381492,19.7960867 C0.0867583634,17.0962093 0.393672406,14.3936934 0.513006686,11.6909027 C1.89496409,12.6883023 14.5565436,9.60221776 15.7686226,9.10365539" id="Fill-85" fill="#52C86B"></path>
                    <path d="M26.4239755,11.6238195 C31.6153163,16.2025129 32.3477706,15.4155319 27.0853521,16.6704579 C26.7867713,16.8198068 23.769101,16.8535023 23.186046,16.8535573 C21.6930876,16.9075911 19.8182158,16.3257518 18.5627822,17.4300097 C18.5397432,15.9470203 18.5700261,14.4608977 18.6601123,12.9808765 C20.4528498,13.1022465 27.5955865,14.0378068 26.4239755,11.6238195" id="Fill-87" fill="#52C86B"></path>
                    <path d="M59.3713968,13.0852613 C60.7440406,13.9931725 61.9024709,15.1722423 63.2429799,16.1298998 C62.9702703,16.150403 62.7033885,16.1808554 62.4364523,16.2247751 C61.4846647,15.1002338 60.2273792,14.2918152 59.3713968,13.0852613" id="Fill-89" fill="#52C86B"></path>
                    <path d="M59.3713968,13.0852613 C60.7440406,13.9931725 61.9024709,15.1722423 63.2429799,16.1298998 C62.9702703,16.150403 62.7033885,16.1808554 62.4364523,16.2247751 C61.4846647,15.1002338 60.2273792,14.2918152 59.3713968,13.0852613 Z" id="Stroke-91" stroke="#52C86B" stroke-width="0.216"></path>
                    <path d="M148.786552,14.5963505 C149.818785,15.3802533 150.677219,16.2502913 151.624431,17.0506296 C152.944842,18.0990947 154.099732,19.3495133 155.504293,20.2983759 C155.521722,21.762841 155.495579,23.2271412 155.376626,24.6913865 C152.953666,24.7118896 150.533375,24.7939573 148.113193,24.8202871 C148.307799,21.4113188 148.563025,18.0053188 148.786552,14.5963505" id="Fill-93" fill="#51C867"></path>
                    <path d="M184.372154,15.006359 C187.30061,14.3510271 188.516229,14.3340968 189.718776,14.5979446 C189.789636,14.7258008 189.869102,18.1364732 189.888491,18.5296063 C187.83982,19.176748 185.683633,18.4563886 183.591334,18.7872427 C183.376739,19.2060461 183.161872,19.6247945 182.970426,20.0583294 C182.915306,18.743323 182.958824,17.4284266 182.944282,16.1163336 C181.441193,17.4810863 180.088865,19.0040376 178.585721,20.3687353 C176.766241,19.6922406 174.807492,19.6775091 172.898035,19.5663082 C171.406602,19.4755556 169.912009,19.5955514 168.449443,19.885619 C168.42929,18.9805112 168.403092,18.0785915 168.376894,17.1735937 C175.420776,20.1238516 179.966916,16.0033188 184.372154,15.006359" id="Fill-95" fill="#52C86B"></path>
                    <path d="M194.609891,17.1501772 C195.37301,16.3711116 196.170986,15.6243125 196.887755,14.7984689 C197.131597,15.1059615 197.601636,15.320118 197.851198,15.6305239 C199.191979,15.3541983 200.046709,14.6113019 201.378721,14.9060968 C202.342709,14.4732216 203.785723,12.860452 204.831572,14.8401899 C206.896039,14.0334203 208.013784,15.6842279 209.687895,15.29923 C209.888165,15.4398939 210.178195,15.9347734 210.387234,16.0783505 C210.451177,17.9584309 210.706403,19.8269679 210.764463,21.7101264 C208.593952,21.2297586 206.429105,20.6557797 204.203365,20.5414457 C204.136645,21.0306085 204.06987,21.516748 204.029184,22.0116825 C203.736268,20.535674 203.785505,19.0156909 203.451794,17.5455641 C202.575495,18.6262406 201.603283,19.6219911 200.729763,20.7026127 L200.695123,20.6996444 C199.734457,20.5092342 198.620144,20.6030651 197.842483,19.9060672 C196.925499,19.129915 195.99686,18.3684943 195.065333,17.6158135 C194.908745,17.4576698 194.754825,17.3052977 194.609891,17.1501772" id="Fill-97" fill="#61CD63"></path>
                    <path d="M56.9608116,23.0013425 C57.0677822,20.5382685 57.2146761,18.0063742 57.3492063,15.5477526 C57.4659263,17.072463 58.9418369,17.4091987 60.4246103,17.2145011 C61.0444841,17.2021332 61.5266142,16.7524926 62.0236679,16.4313679 C61.1655068,24.2042685 65.0649763,18.8295243 65.389864,17.6362178 C72.0939343,21.9866279 74.6491366,24.6935412 64.6521266,25.711334 C62.4482822,23.9492156 59.8107277,22.9291142 57.3883671,21.534019 C57.2356454,22.0204334 57.0924552,22.5056934 56.9608116,23.0013425" id="Fill-99" fill="#46C469"></path>
                    <path d="M23.150371,16.7254592 C27.5269053,16.8791505 26.3530068,15.4798228 27.5640509,19.7185374 C29.3834766,19.4433112 31.2319869,19.5428588 33.0631227,19.4022499 C33.0515215,21.4376706 33.1141025,23.4748503 33.0415543,25.510326 C28.401515,22.9916241 23.7133281,20.4360385 18.6031957,19.0099412 C18.5799389,18.412326 18.5683377,17.8179539 18.5595687,17.2234169 C19.8142399,16.2356368 21.6469551,16.7782288 23.150371,16.7254592" id="Fill-101" fill="#4AC56B"></path>
                    <path d="M103.938595,16.4819112 C106.132962,17.8399027 110.920494,20.7089725 113.184686,19.6810106 C113.282779,20.8781649 113.339587,22.0420634 113.30255,23.2329514 C112.199838,23.0852516 111.102845,22.8935222 110.008848,22.6798055 C107.896342,22.2617167 105.743097,22.4314588 103.610276,22.469277 C103.642247,20.467167 103.863214,18.4776448 103.938595,16.4819112" id="Fill-103" fill="#56C969"></path>
                    <path d="M191.063719,20.8402423 C192.230265,19.5985087 193.4723,18.4241662 194.609815,17.1501662 C194.754966,17.3052867 194.908668,17.4576588 195.065366,17.6158025 C194.984158,18.3801366 195.695044,18.7872317 196.188448,19.22357 C197.323131,20.1344495 198.347358,21.1712063 199.473273,22.0965975 C198.657976,22.9986271 197.883093,23.941663 197.044485,24.8231345 C195.071139,23.4672317 193.022522,22.2196715 191.063719,20.8402423" id="Fill-105" fill="#4DC669"></path>
                    <path d="M8.67877749,17.5367252 C11.7950307,17.2778245 19.3221861,16.8860655 16.8058178,21.787203 C15.0378622,22.0293932 13.3545462,22.07826 11.5341402,21.0744841 C9.50861642,21.0042896 7.45989029,21.0394144 5.46639236,21.4581628 C3.59609577,21.8151268 1.97955472,22.8415497 0.0310998967,23.1878499 C-0.0608926174,21.8802093 0.0803368611,20.8193214 0.0833869386,19.6365687 C1.67950336,18.8662431 3.33645792,18.1019641 5.13850903,18.0522178 C5.03693056,19.0361501 4.96432783,20.0231607 4.87734615,21.0100613 C6.12798684,20.9251903 7.53543418,20.6938288 8.35666753,19.6277738 C8.89348116,19.0625349 8.79190268,18.2396596 8.67877749,17.5367252" id="Fill-107" fill="#3FB266"></path>
                    <path d="M65.3898531,17.6363002 C68.0944004,17.0229091 70.8046665,17.487611 73.5033859,17.8032389 C75.828253,23.2070613 69.9715052,20.1192727 69.6555498,21.6162791 C69.5107256,22.2746892 65.6580966,19.7492812 65.3898531,17.6363002" id="Fill-109" fill="#40B467"></path>
                    <path d="M124.91096,18.0895192 C125.041568,18.0924326 129.727849,18.3640309 129.858458,18.3669442 C130.470761,18.741718 126.592587,18.5497687 127.117909,19.0447032 C128.493058,20.2916588 130.053118,21.0529146 131.039328,22.3301027 C131.529791,22.7138364 132.01154,23.082014 132.681849,23.0879505 C134.803178,23.1699632 136.838288,22.9995615 138.907384,23.6879294 C136.939975,24.5723691 134.811402,25.0398744 132.65527,24.9988681 C131.599017,23.6310922 130.179696,22.6764579 128.931942,21.5050837 C128.337232,21.0067962 125.122831,18.4762761 124.91096,18.0895192" id="Fill-111" fill="#52C86B"></path>
                    <path d="M124.91096,18.0895192 C125.041568,18.0924326 129.727849,18.3640309 129.858458,18.3669442 C130.470761,18.741718 126.592587,18.5497687 127.117909,19.0447032 C128.493058,20.2916588 130.053118,21.0529146 131.039328,22.3301027 C131.529791,22.7138364 132.01154,23.082014 132.681849,23.0879505 C134.803178,23.1699632 136.838288,22.9995615 138.907384,23.6879294 C136.939975,24.5723691 134.811402,25.0398744 132.65527,24.9988681 C131.599017,23.6310922 130.179696,22.6764579 128.931942,21.5050837 C128.337232,21.0067962 125.122831,18.4762761 124.91096,18.0895192 Z" id="Stroke-113" stroke="#52C86B" stroke-width="0.216"></path>
                    <path d="M194.609891,17.1501222 C197.991284,19.227044 202.422284,19.110841 200.712388,20.7010736 C200.277153,21.2070567 199.877103,21.6457036 199.432173,22.1420672 C198.515788,21.3887818 194.488651,18.2906042 194.609891,17.1501222" id="Fill-115" fill="#3EBB65"></path>
                    <path d="M124.839158,18.0575277 C126.310439,19.0708681 127.56511,20.3600393 128.93198,21.5050837 C130.179734,22.6764579 131.61033,23.6633586 132.666637,25.0311894 C130.249341,24.9022338 127.782809,23.7601027 126.424762,21.6837307 C125.67319,20.5826059 125.117695,19.3607159 124.839158,18.0575277" id="Fill-117" fill="#52C86B"></path>
                    <path d="M126.920923,18.8277268 C131.8822,17.4385133 138.395859,19.0947628 144.120255,18.5793252 C143.005887,20.8818918 141.134392,22.5676592 138.931855,23.7113294 C136.862977,22.9945979 134.683424,23.4448981 132.56215,23.3594224 C131.891841,23.3533209 131.410037,22.7983061 130.919629,22.3987966 C129.616755,21.1668474 128.116553,20.1817607 126.920923,18.8277268" id="Fill-119" fill="#52C86B"></path>
                    <path d="M182.941842,18.1833006 C185.033977,17.8523366 187.839831,19.1767425 189.888502,18.5296008 C189.949504,20.4037996 190.042204,22.2782732 190.187301,24.1496135 C187.804973,23.1275332 185.442797,22.0321801 182.941406,21.3410638 C182.936123,20.5239603 182.842388,18.8531992 182.941842,18.1833006" id="Fill-121" fill="#4DC669"></path>
                    <path d="M75.908214,21.9932901 C76.1431789,20.8921653 76.3646908,19.7859835 76.6432827,18.6936537 C78.2654337,19.1650617 79.8033263,20.0465332 81.5183958,20.0992478 C81.3878416,21.3644529 81.1401862,22.5960723 80.9515716,23.8524275 C79.3497907,22.9825543 77.6491547,22.4882795 75.908214,21.9932901" id="Fill-123" fill="#3AAD64"></path>
                    <path d="M18.627275,19.0098093 C23.7289108,20.4360165 28.4046795,22.9957797 33.0369846,25.5144266 C33.255283,26.3840249 27.240149,25.7238008 26.2377084,25.6637755 C23.9692678,24.1349975 21.3308418,23.2878262 18.7582649,22.4414795 C18.6945946,21.2964351 18.6794531,20.1519404 18.627275,19.0098093" id="Fill-125" fill="#3AA560"></path>
                    <path d="M18.627275,19.0098093 C23.7289108,20.4360165 28.4046795,22.9957797 33.0369846,25.5144266 C33.255283,26.3840249 27.240149,25.7238008 26.2377084,25.6637755 C23.9692678,24.1349975 21.3308418,23.2878262 18.7582649,22.4414795 C18.6945946,21.2964351 18.6794531,20.1519404 18.627275,19.0098093 Z" id="Stroke-127" stroke="#3AA560" stroke-width="0.216"></path>
                    <path d="M168.449562,19.8760436 C169.912129,19.5853712 171.439129,19.2892021 172.930671,19.3801746 C174.840128,19.4918152 176.766198,19.6822803 178.585732,20.3604791 C177.636886,21.3528216 176.6589,22.3188342 175.66354,23.2642888 C173.310188,22.9647116 170.898611,23.0087962 168.600378,23.6224622 C168.580062,22.3717137 168.513287,21.1238786 168.449562,19.8760436" id="Fill-129" fill="#40B369"></path>
                    <path d="M86.7562175,19.8064207 C87.6996718,19.228759 91.4827482,19.8948647 92.8436274,19.8228013 C93.583598,21.4284799 94.3765092,23.1274397 95.1107064,24.739 C92.9837131,25.1200951 90.8159795,25.2306913 88.6599015,25.2800529 C88.1056589,23.6568393 87.2610598,21.4441459 86.7562175,19.8064207" id="Fill-131" fill="#47C56D"></path>
                    <path d="M203.834001,20.6314837 C204.140752,20.1628791 207.961083,21.0375894 210.764431,21.7101264 C210.831369,22.582748 210.912468,23.4555345 210.987903,24.328266 C208.770878,24.366359 206.55674,24.4014288 204.342601,24.489378 C204.170871,23.4746634 203.843914,21.6364689 203.834001,20.6314837" id="Fill-133" fill="#3FB266"></path>
                    <path d="M5.46639236,21.4581518 C7.45989029,21.0394034 9.50861642,21.0042786 11.5341402,21.0745281 C13.3100478,21.1155345 15.0337772,21.5988156 16.7952514,21.7920292 C15.7303387,23.2915641 14.0442994,24.1701222 12.3814626,24.8231455 C8.59457357,26.3109721 4.41874522,26.1030271 0.463557305,25.5758262 C0.124127259,24.8231455 0.0485833764,24.0031835 0.036982189,23.1919615 C1.81866314,22.5271201 3.59462519,21.8125323 5.46639236,21.4581518" id="Fill-135" fill="#46C573"></path>
                    <path d="M5.46639236,21.4581518 C7.45989029,21.0394034 9.50861642,21.0042786 11.5341402,21.0745281 C13.3100478,21.1155345 15.0337772,21.5988156 16.7952514,21.7920292 C15.7303387,23.2915641 14.0442994,24.1701222 12.3814626,24.8231455 C8.59457357,26.3109721 4.41874522,26.1030271 0.463557305,25.5758262 C0.124127259,24.8231455 0.0485833764,24.0031835 0.036982189,23.1919615 C1.81866314,22.5271201 3.59462519,21.8125323 5.46639236,21.4581518 Z" id="Stroke-137" stroke="#46C573" stroke-width="0.216"></path>
                    <path d="M182.941417,21.1394567 C185.442916,21.8736681 187.804929,23.0374017 190.187312,24.1233002 C189.126212,24.5421586 184.32027,24.5694228 182.944304,24.5714017 C182.941417,23.4263023 182.950077,22.2813129 182.941417,21.1394567" id="Fill-139" fill="#3BAB65"></path>
                    <path d="M57.0437084,21.212515 C59.5735298,22.6689548 62.6079756,23.8412634 64.9094768,25.6806672 C62.1734485,26.0288364 59.3751658,25.6780288 56.7702363,24.7806165 C57.0485558,23.1721345 56.9139167,22.6973734 57.0437084,21.212515" id="Fill-141" fill="#369F5F"></path>
                    <path d="M75.908214,21.9932901 C77.6492636,22.4882795 79.343037,22.984918 80.9449267,23.8547362 C80.8520628,24.3760554 80.7987409,24.9168884 80.7145914,25.4440342 C78.8806779,25.2478524 77.0668622,24.790956 75.3780452,24.0442118 C75.5434575,23.3558989 75.7398062,22.6785797 75.908214,21.9932901" id="Fill-143" fill="#47C577"></path>
                    <path d="M75.908214,21.9932901 C77.6492636,22.4882795 79.343037,22.984918 80.9449267,23.8547362 C80.8520628,24.3760554 80.7987409,24.9168884 80.7145914,25.4440342 C78.8806779,25.2478524 77.0668622,24.790956 75.3780452,24.0442118 C75.5434575,23.3558989 75.7398062,22.6785797 75.908214,21.9932901 Z" id="Stroke-145" stroke="#47C577" stroke-width="0.216"></path>
                    <path d="M18.7577203,22.4422161 C21.3271926,23.2885628 23.9604988,24.1350195 26.2263251,25.6637425 C23.7811978,25.6461526 21.3388483,25.5671632 18.8966077,25.4675057 C18.7606069,24.4629603 18.7431235,23.4525332 18.7577203,22.4422161" id="Fill-147" fill="#47C577"></path>
                    <path d="M18.7577203,22.4422161 C21.3271926,23.2885628 23.9604988,24.1350195 26.2263251,25.6637425 C23.7811978,25.6461526 21.3388483,25.5671632 18.8966077,25.4675057 C18.7606069,24.4629603 18.7431235,23.4525332 18.7577203,22.4422161 Z" id="Stroke-149" stroke="#47C577" stroke-width="0.216"></path>
                    <path d="M103.610259,22.3888034 C105.743135,22.3520296 107.896326,22.186685 110.008831,22.5938901 C111.102883,22.8021099 112.199713,22.9888372 113.302534,23.1327442 L113.304876,23.1331839 C113.313536,23.7301395 113.44763,24.3451247 113.465005,24.9481818 C110.110464,25.0829641 106.758811,25.3339493 103.40427,25.4411924 C103.459444,24.4216406 103.549312,23.4083002 103.610259,22.3888034" id="Fill-151" fill="#40B467"></path>
                    <path d="M168.600514,23.6224786 C170.886166,22.8445674 173.293712,22.7514512 175.663567,23.2651848 C173.830362,24.7804406 170.92146,23.958115 168.600514,23.6224786" id="Fill-153" fill="#47C577"></path>
                    <polygon id="Fill-155" fill="#31955B" points="59.8157876 0.0366803383 57.9724515 0.0497078224 57.959053 0.807280761"></polygon>
                    <path d="M67.8088914,22.735252 C65.5937181,16.6714254 63.7149249,17.9261315 69.5853436,21.3883641 C71.0097842,20.7710152 70.569974,21.1079708 70.984022,19.1911717 C71.8852654,19.2629053 73.1138475,19.3599793 74.014982,19.433197 C74.5437347,21.7848503 69.4302798,27.1736114 67.8088914,22.735252" id="Fill-157" fill="#40B467"></path>
                    <path d="M38.8868261,1.10142156 C41.8700197,0.711971247 44.8936813,0.413273573 47.8970817,0.735387738 C50.6569116,1.07217844 53.3903256,2.58342156 54.6380796,5.17819958 C55.5300639,7.10698182 55.0952645,9.10661818 53.660203,11.1788677 C52.8331963,12.5289987 51.7362577,13.6975696 50.5493964,14.7343264 C48.8664072,16.1634469 46.7885419,16.9747239 44.7195546,17.6512736 C44.7224957,18.6206943 44.6876377,19.59006 44.6557208,20.5622292 C43.2512146,19.6133666 42.0962701,18.362893 40.7758589,17.3144829 C39.8038101,16.5266224 38.8693971,15.6948973 37.9379253,14.8602038 C38.2745776,10.276893 38.5067102,5.68484228 38.8868261,1.10142156" id="Fill-159" fill="#46C573"></path>
                    <path d="M44.611571,5.97642156 C46.303438,5.40524609 47.890731,6.90175772 48.9700772,8.10842156 C48.9730728,9.19486977 48.7264522,10.3400241 47.9370813,11.1337112 C47.0985823,12.1089036 45.8390637,12.527707 44.6231177,12.7736901 C43.8455658,10.5889755 44.2836332,8.20796913 44.611571,5.97642156" id="Fill-161" fill="#FEFEFE"></path>
                    <path d="M37.9379852,14.8601873 C38.9702185,15.6440901 39.8286519,16.5141281 40.7758644,17.3144664 C42.0962756,18.3629315 43.2511656,19.6134051 44.6557263,20.5622127 C44.6731553,22.0266778 44.6470118,23.491033 44.5280588,24.9552233 C42.1050446,24.9757264 39.6848081,25.0577941 37.2646261,25.0841789 C37.459232,21.6751556 37.7144036,18.2691556 37.9379852,14.8601873" id="Fill-163" fill="#51C867"></path>
                </g>
            </g>
        </g>
    </g>
</svg>