<?xml version="1.0" encoding="UTF-8"?>
<svg width="48px" height="48px" viewBox="0 0 48 48" version="1.1" xmlns="http://www.w3.org/2000/svg" xmlns:xlink="http://www.w3.org/1999/xlink">
    <!-- Generator: Sketch 43.2 (39069) - http://www.bohemiancoding.com/sketch -->
    <title>diagnostika</title>
    <desc>Created with Sketch.</desc>
    <defs></defs>
    <g id="Bullets" stroke="none" stroke-width="1" fill="none" fill-rule="evenodd">
        <g id="VER_Packages_Bullets-states" transform="translate(-48.000000, -52.000000)">
            <g id="diagnostika" transform="translate(48.000000, 52.000000)">
                <circle id="back" fill="#C1C1C1" cx="24" cy="24" r="24"></circle>
                <g id="lightbulb-4" transform="translate(14.000000, 13.000000)" fill-rule="nonzero" fill="#FFFFFF">
                    <path d="M10.5,4.006 C6.916,4.006 4,6.922 4,10.506 C4,13.338 5.831,15.825 8.5,16.686 L8.5,17.506 C8.5,17.782 8.724,18.006 9,18.006 L12,18.006 C12.275,18.006 12.5,17.782 12.5,17.506 L12.5,16.686 C15.168,15.824 17,13.337 17,10.506 C17,6.922 14.084,4.006 10.5,4.006 Z M11,21.006 L10,21.006 C9.724,21.006 9.5,21.23 9.5,21.506 C9.5,21.782 9.724,22.006 10,22.006 L11,22.006 C11.275,22.006 11.5,21.782 11.5,21.506 C11.5,21.23 11.275,21.006 11,21.006 Z M12,19.006 L9,19.006 C8.724,19.006 8.5,19.23 8.5,19.506 C8.5,19.782 8.724,20.006 9,20.006 L12,20.006 C12.275,20.006 12.5,19.782 12.5,19.506 C12.5,19.23 12.275,19.006 12,19.006 Z M10.5,3.006 C10.775,3.006 11,2.782 11,2.506 L11,0.506 C11,0.23 10.775,0.006 10.5,0.006 C10.224,0.006 10,0.23 10,0.506 L10,2.506 C10,2.783 10.224,3.006 10.5,3.006 Z M20.5,10.006 L18.5,10.006 C18.224,10.006 18,10.23 18,10.506 C18,10.782 18.224,11.006 18.5,11.006 L20.5,11.006 C20.775,11.006 21,10.782 21,10.506 C21,10.23 20.775,10.006 20.5,10.006 Z M2.5,10.006 L0.5,10.006 C0.224,10.006 0,10.23 0,10.506 C0,10.782 0.224,11.006 0.5,11.006 L2.5,11.006 C2.775,11.006 3,10.782 3,10.506 C3,10.23 2.775,10.006 2.5,10.006 Z M4.488,5.205 C4.586,5.302 4.714,5.351 4.842,5.351 C4.97,5.351 5.098,5.302 5.196,5.205 C5.391,5.01 5.391,4.693 5.196,4.497 L3.074,2.375 C2.879,2.179 2.562,2.179 2.367,2.375 C2.172,2.57 2.172,2.886 2.367,3.082 L4.488,5.205 L4.488,5.205 Z M16.155,5.351 C16.283,5.351 16.411,5.302 16.509,5.205 L18.631,3.082 C18.826,2.886 18.826,2.57 18.631,2.375 C18.436,2.179 18.119,2.179 17.924,2.375 L15.802,4.497 C15.607,4.692 15.607,5.009 15.802,5.205 C15.899,5.302 16.027,5.351 16.155,5.351 Z" id="Shape"></path>
                </g>
            </g>
        </g>
    </g>
</svg>