<?xml version="1.0" encoding="UTF-8"?>
<svg width="48px" height="48px" viewBox="0 0 48 48" version="1.1" xmlns="http://www.w3.org/2000/svg" xmlns:xlink="http://www.w3.org/1999/xlink">
    <!-- Generator: Sketch 43.2 (39069) - http://www.bohemiancoding.com/sketch -->
    <title>emotional</title>
    <desc>Created with Sketch.</desc>
    <defs></defs>
    <g id="Bullets" stroke="none" stroke-width="1" fill="none" fill-rule="evenodd">
        <g id="VER_Packages_Bullets-states" transform="translate(-48.000000, -673.000000)">
            <g id="emotional" transform="translate(48.000000, 673.000000)">
                <circle id="back" fill="#C1C1C1" cx="24" cy="24" r="24"></circle>
                <path d="M24,36 C17.372583,36 12,30.627417 12,24 C12,17.372583 17.372583,12 24,12 C30.627417,12 36,17.372583 36,24 C36,30.627417 30.627417,36 24,36 Z M17.945,17.85 L17.945,30 L22.685,30 L22.685,28.785 L19.64,28.785 L19.64,24.33 L22.085,24.33 L22.085,23.13 L19.64,23.13 L19.64,19.11 L22.655,19.11 L22.655,17.85 L17.945,17.85 Z M27.44,30.12 C28.2900043,31.3800063 29.019997,32.1599985 29.63,32.46 L29.9,31.125 C29.5999985,30.924999 29.2000025,30.5000032 28.7,29.85 C29.890006,29.3499975 30.485,28.1350096 30.485,26.205 L30.485,21.585 C30.485,20.3349937 30.2250026,19.3825033 29.705,18.7275 C29.1849974,18.0724967 28.3350059,17.745 27.155,17.745 C25.9749941,17.745 25.1250026,18.0699967 24.605,18.72 C24.0849974,19.3700032 23.825,20.3249937 23.825,21.585 L23.825,26.19 C23.825,27.4700064 24.0824974,28.4474966 24.5975,29.1225 C25.1125026,29.7975034 25.9649941,30.135 27.155,30.135 L27.44,30.12 Z M28.445,28.245 C28.2249989,28.6150018 27.7950032,28.8 27.155,28.8 C26.5149968,28.8 26.0850011,28.6150018 25.865,28.245 C25.6449989,27.8749981 25.535,27.3150037 25.535,26.565 L25.535,21.24 C25.535,20.4999963 25.6449989,19.9525018 25.865,19.5975 C26.0850011,19.2424982 26.5149968,19.065 27.155,19.065 C27.7950032,19.065 28.2249989,19.2424982 28.445,19.5975 C28.6650011,19.9525018 28.775,20.4999963 28.775,21.24 L28.775,26.565 C28.775,27.3150037 28.6650011,27.8749981 28.445,28.245 Z" id="eq" fill="#FFFFFF"></path>
            </g>
        </g>
    </g>
</svg>