<?xml version="1.0" encoding="UTF-8"?>
<svg width="48px" height="48px" viewBox="0 0 48 48" version="1.1" xmlns="http://www.w3.org/2000/svg" xmlns:xlink="http://www.w3.org/1999/xlink">
    <!-- Generator: Sketch 43.2 (39069) - http://www.bohemiancoding.com/sketch -->
    <title>kruzhki</title>
    <desc>Created with Sketch.</desc>
    <defs></defs>
    <g id="Bullets" stroke="none" stroke-width="1" fill="none" fill-rule="evenodd">
        <g id="VER_Packages_Bullets-states" transform="translate(-48.000000, -121.000000)">
            <g id="kruzhki" transform="translate(48.000000, 121.000000)">
                <circle id="back" fill="#C1C1C1" cx="24" cy="24" r="24"></circle>
                <g id="ball-volleyball" transform="translate(12.000000, 12.000000)" fill-rule="nonzero" fill="#FFFFFF">
                    <path d="M18.666,16.266 C17.952,15.417 17.111,14.683 16.172,14.085 C13.928,18.704 8.927,21.467 3.739,20.688 C4.607,21.515 5.598,22.209 6.683,22.749 C14.72,23.83 18.666,16.266 18.666,16.266 L18.666,16.266 Z M5.063,15.408 C6.09,15.238 7.087,14.915 8.029,14.46 C6.704,12.486 6,10.198 6,7.797 C6,6.064 6.362,4.391 7.076,2.824 C7.108,2.748 7.569,1.703 8.479,0.535 C7.517,0.831 6.612,1.256 5.77,1.771 C4.596,3.063 4,4.416 3.99,4.438 C3.332,5.883 3,7.417 3,9.006 C3,11.328 3.716,13.534 5.063,15.408 L5.063,15.408 Z M12.428,4.28 C12.073,5.261 11.865,6.291 11.8,7.336 C16.852,6.916 21.716,9.735 23.74,14.482 C23.908,13.682 24,12.855 24,12.005 C24,11.63 23.978,11.261 23.943,10.894 C22.003,6.516 17.289,3.725 12.428,4.28 L12.428,4.28 Z M11.785,8.342 C11.82,9.432 12.019,10.514 12.384,11.57 C16.422,12.285 19.836,14.88 21.548,19.246 C22.264,18.305 22.841,17.257 23.256,16.127 C21.94,11.336 17.173,7.849 11.785,8.342 L11.785,8.342 Z M7.99,3.229 C7.332,4.674 7,6.208 7,7.797 C7,10.029 7.664,12.154 8.911,13.981 C9.845,13.417 10.691,12.712 11.433,11.878 C11,10.613 10.771,9.313 10.771,8.006 C10.771,5.228 11.696,2.576 13.71,0.143 C13.15,0.062 12.582,0.006 12,0.006 C11.37,0.006 10.757,0.069 10.152,0.163 C8.726,1.561 8.001,3.205 7.99,3.229 L7.99,3.229 Z M19.2,16.947 C17.18,21.138 13.008,23.408 9.596,23.763 C10.373,23.921 11.177,24.005 12,24.005 C15.479,24.005 18.608,22.507 20.803,20.133 C20.383,18.871 19.843,17.846 19.2,16.947 Z M3.933,15.53 C2.669,13.589 2,11.351 2,9.006 C2,7.273 2.362,5.6 3.076,4.033 L3.095,3.992 C1.178,6.119 -4.4408921e-16,8.924 -4.4408921e-16,12.006 C-4.4408921e-16,13.118 0.164,14.192 0.448,15.214 C1.711,15.515 2.839,15.598 3.933,15.53 L3.933,15.53 Z M12.878,3.231 C17.296,2.933 21.213,5.236 23.232,7.824 C21.855,4.138 18.722,1.311 14.851,0.362 C13.977,1.31 13.356,2.245 12.878,3.231 L12.878,3.231 Z M0.814,16.316 C1.248,17.437 1.842,18.476 2.573,19.407 C7.52,20.855 12.988,18.426 15.303,13.588 C14.329,13.09 13.281,12.738 12.176,12.547 C9.467,15.586 5.507,17.154 0.814,16.316 L0.814,16.316 Z M11.999,12.004 L11.999,12.003 L11.998,12.003 L11.999,12.004 Z" id="Shape"></path>
                </g>
            </g>
        </g>
    </g>
</svg>