<?xml version="1.0" encoding="UTF-8"?>
<svg width="48px" height="48px" viewBox="0 0 48 48" version="1.1" xmlns="http://www.w3.org/2000/svg" xmlns:xlink="http://www.w3.org/1999/xlink">
    <!-- Generator: Sketch 43.2 (39069) - http://www.bohemiancoding.com/sketch -->
    <title>liderstvo</title>
    <desc>Created with Sketch.</desc>
    <defs></defs>
    <g id="Bullets" stroke="none" stroke-width="1" fill="none" fill-rule="evenodd">
        <g id="VER_Packages_Bullets-states" transform="translate(-48.000000, -259.000000)">
            <g id="liderstvo" transform="translate(48.000000, 259.000000)">
                <circle id="back" fill="#C1C1C1" cx="24" cy="24" r="24"></circle>
                <g id="king" transform="translate(12.000000, 12.000000)" fill-rule="nonzero" fill="#FFFFFF">
                    <circle id="Oval" cx="12" cy="21" r="1"></circle>
                    <path d="M21.047,18.021 L18.107,17.148 L13.968,20.684 L14,21 C14,22.103 13.103,23 12,23 C10.898,23 10,22.103 10,21 L10.018,20.824 L5.799,17.191 L5.796,17.186 L2.92,18.032 C1.173,18.687 0,21.13 0,23 L0,24 L24,24 L24,23 C24,21.13 22.827,18.687 21.047,18.021 L21.047,18.021 Z M6.502,13.436 C6.625,14.661 7.26,15.701 8.076,16.518 L6.937,16.852 L10.39,19.826 C10.754,19.327 11.338,19 12,19 C12.622,19 13.17,19.291 13.538,19.736 L16.965,16.808 L15.908,16.494 C16.713,15.681 17.336,14.647 17.458,13.435 C18.162,13.239 18.715,12.61 18.925,11.722 C19.117,10.906 18.942,10.158 18.486,9.745 L18.5,9.011 L18.5,1.5 C18.5,1.316 18.398,1.146 18.236,1.06 C18.074,0.973 17.876,0.983 17.723,1.084 L15.064,2.857 L12.354,0.146 C12.159,-0.049 11.842,-0.049 11.647,0.146 L8.937,2.857 L6.277,1.084 C6.124,0.981 5.926,0.973 5.764,1.06 C5.602,1.146 5.5,1.316 5.5,1.5 L5.5,8.99 L5.485,9.736 C5.021,10.146 4.841,10.899 5.035,11.722 C5.245,12.61 5.797,13.239 6.502,13.436 L6.502,13.436 Z M6.203,10.447 L6.473,10.312 L6.494,9.333 C6.713,9.25 7.071,9.127 7.566,9 C8.526,8.755 9.995,8.5 11.98,8.5 C13.964,8.5 15.444,8.755 16.415,9 C16.908,9.125 17.268,9.246 17.494,9.332 L17.474,10.307 L17.757,10.448 C17.979,10.559 18.064,11.018 17.952,11.494 C17.843,11.959 17.522,12.501 16.981,12.501 L16.481,12.501 L16.481,13 C16.481,15.6 13.323,17.5 11.981,17.5 C10.639,17.5 7.481,15.6 7.481,13 L7.481,12.5 L6.981,12.5 C6.44,12.5 6.12,11.958 6.01,11.493 C5.896,11.018 5.982,10.559 6.203,10.447 L6.203,10.447 Z M9,11 C9.273,11 9.496,10.781 9.5,10.509 L9.864,10.5 L10.136,10.5 L10.5,10.509 C10.505,10.781 10.727,11 11,11 C11.276,11 11.5,10.776 11.5,10.5 C11.5,10.202 11.411,9.963 11.234,9.787 C10.938,9.493 10.525,9.498 10.128,9.5 L9.872,9.5 C9.473,9.496 9.062,9.493 8.766,9.787 C8.589,9.963 8.5,10.202 8.5,10.5 C8.5,10.776 8.724,11 9,11 L9,11 Z M13,11 C13.273,11 13.496,10.781 13.5,10.509 L13.864,10.5 L14.136,10.5 L14.5,10.509 C14.505,10.781 14.727,11 15,11 C15.276,11 15.5,10.776 15.5,10.5 C15.5,10.202 15.411,9.963 15.234,9.787 C14.938,9.493 14.527,9.498 14.128,9.5 L13.872,9.5 C13.474,9.496 13.062,9.493 12.766,9.787 C12.589,9.963 12.5,10.202 12.5,10.5 C12.5,10.776 12.724,11 13,11 L13,11 Z" id="Shape"></path>
                </g>
            </g>
        </g>
    </g>
</svg>