<?xml version="1.0" encoding="UTF-8"?>
<svg width="48px" height="48px" viewBox="0 0 48 48" version="1.1" xmlns="http://www.w3.org/2000/svg" xmlns:xlink="http://www.w3.org/1999/xlink">
    <!-- Generator: Sketch 43.2 (39069) - http://www.bohemiancoding.com/sketch -->
    <title>organizator</title>
    <desc>Created with Sketch.</desc>
    <defs></defs>
    <g id="Bullets" stroke="none" stroke-width="1" fill="none" fill-rule="evenodd">
        <g id="VER_Packages_Bullets-states" transform="translate(-48.000000, -535.000000)">
            <g id="organizator" transform="translate(48.000000, 535.000000)">
                <circle id="back" fill="#C1C1C1" cx="24" cy="24" r="24"></circle>
                <g id="account-group-2" transform="translate(12.000000, 12.000000)" fill-rule="nonzero" fill="#FFFFFF">
                    <path d="M22.675,8.245 L20.5,7.623 L20.5,6.862 C21.406,6.18 22,5.05 22,3.771 C21.075,4.005 19.674,3.956 18.934,3.353 C17.865,4.014 16.189,3.956 15.017,3.427 L15,3.771 C15,5.049 15.595,6.179 16.5,6.862 L16.5,7.623 L14.324,8.245 C13.582,8.457 13,9.229 13,10 L13,11 L24,11 L24,10 C24,9.228 23.418,8.457 22.675,8.245 L22.675,8.245 Z M18.646,2.317 C18.758,2.205 18.917,2.152 19.072,2.175 C19.228,2.198 19.365,2.294 19.44,2.433 C19.743,2.996 21.255,2.952 21.87,2.767 C21.461,1.175 20.107,4.4408921e-16 18.5,4.4408921e-16 C17.009,4.4408921e-16 15.737,1.011 15.233,2.429 C16.224,2.991 17.982,2.981 18.646,2.317 L18.646,2.317 Z M8.733,15.429 C9.724,15.992 11.482,15.982 12.146,15.318 C12.258,15.206 12.417,15.153 12.572,15.176 C12.728,15.199 12.865,15.295 12.94,15.434 C13.243,15.996 14.757,15.954 15.37,15.768 C14.961,14.175 13.607,13 12,13 C10.509,13 9.237,14.011 8.733,15.429 Z M16.175,21.245 L14,20.623 L14,19.862 C14.906,19.179 15.5,18.049 15.5,16.771 C14.575,17.005 13.174,16.956 12.434,16.353 C11.365,17.014 9.689,16.956 8.517,16.427 L8.5,16.771 C8.5,18.049 9.095,19.179 10,19.862 L10,20.623 L7.824,21.245 C7.082,21.457 6.5,22.229 6.5,23 L6.5,24 L17.5,24 L17.5,23 C17.5,22.228 16.918,21.457 16.175,21.245 L16.175,21.245 Z M11,10 C11,9.228 10.418,8.457 9.675,8.245 L7.5,7.623 L7.5,6.862 C8.406,6.18 9,5.05 9,3.771 C8.075,4.006 6.674,3.957 5.934,3.354 C4.865,4.015 3.189,3.957 2.016,3.428 L2,3.771 C2,5.05 2.595,6.18 3.5,6.862 L3.5,7.623 L1.324,8.245 C0.582,8.457 -2.22044605e-16,9.229 -2.22044605e-16,10 L-2.22044605e-16,11 L11,11 L11,10 Z M5.646,2.317 C5.758,2.205 5.916,2.152 6.072,2.175 C6.228,2.198 6.366,2.295 6.44,2.434 C6.743,2.997 8.255,2.953 8.87,2.768 C8.461,1.175 7.107,4.4408921e-16 5.5,4.4408921e-16 C4.009,4.4408921e-16 2.737,1.011 2.233,2.429 C3.224,2.991 4.982,2.981 5.646,2.317 L5.646,2.317 Z M6.854,15.354 C7.049,15.159 7.049,14.842 6.854,14.647 L4.354,12.147 C4.159,11.952 3.842,11.952 3.647,12.147 C3.452,12.342 3.452,12.659 3.647,12.854 L6.147,15.354 C6.244,15.451 6.372,15.5 6.5,15.5 C6.628,15.5 6.756,15.451 6.854,15.354 Z M19.646,12.146 L17.146,14.646 C16.951,14.841 16.951,15.158 17.146,15.353 C17.244,15.451 17.372,15.499 17.5,15.499 C17.628,15.499 17.756,15.45 17.854,15.353 L20.354,12.853 C20.549,12.658 20.549,12.341 20.354,12.146 C20.159,11.951 19.842,11.951 19.646,12.146 Z" id="Shape"></path>
                </g>
            </g>
        </g>
    </g>
</svg>