<?xml version="1.0" encoding="UTF-8"?>
<svg width="48px" height="48px" viewBox="0 0 48 48" version="1.1" xmlns="http://www.w3.org/2000/svg" xmlns:xlink="http://www.w3.org/1999/xlink">
    <!-- Generator: Sketch 43.2 (39069) - http://www.bohemiancoding.com/sketch -->
    <title>prizvanie</title>
    <desc>Created with Sketch.</desc>
    <defs></defs>
    <g id="Bullets" stroke="none" stroke-width="1" fill="none" fill-rule="evenodd">
        <g id="VER_Packages_Bullets-states" transform="translate(-48.000000, -772.000000)">
            <g id="prizvanie" transform="translate(48.000000, 772.000000)">
                <circle id="back" fill="#C1C1C1" cx="24" cy="24" r="24"></circle>
                <g id="smiley-love" transform="translate(12.000000, 12.000000)" fill-rule="nonzero" fill="#FFFFFF">
                    <path d="M17.983,6.351 C17.502,6.351 17.117,6.752 16.954,7.425 C16.9,7.649 16.699,7.807 16.468,7.807 C16.237,7.807 16.036,7.649 15.982,7.425 C15.819,6.752 15.435,6.351 14.954,6.351 C14.476,6.351 13.968,6.75 13.968,7.491 C13.968,8.384 15.398,9.796 16.468,10.627 C17.538,9.796 18.968,8.384 18.968,7.491 C18.968,6.75 18.46,6.351 17.983,6.351 L17.983,6.351 Z M12,0 C5.383,0 0,5.383 0,12 C0,18.617 5.383,24 12,24 C18.617,24 24,18.617 24,12 C24,5.383 18.617,0 12,0 Z M5.954,5.351 C6.459,5.351 7.041,5.57 7.468,6.125 C7.895,5.569 8.477,5.351 8.983,5.351 C9.959,5.351 10.968,6.151 10.968,7.491 C10.968,9.295 8.089,11.421 7.76,11.657 C7.673,11.72 7.571,11.751 7.468,11.751 C7.365,11.751 7.263,11.72 7.176,11.657 C6.848,11.42 3.968,9.294 3.968,7.49 C3.968,6.15 4.978,5.351 5.954,5.351 L5.954,5.351 Z M18.936,15.245 C17.533,17.741 14.951,19.23 12.029,19.23 C9.008,19.23 6.403,17.744 5.06,15.252 C4.929,15.009 5.019,14.706 5.263,14.575 C5.507,14.441 5.809,14.534 5.94,14.777 C7.105,16.939 9.381,18.229 12.029,18.229 C14.585,18.229 16.842,16.93 18.064,14.753 C18.199,14.513 18.503,14.426 18.745,14.563 C18.986,14.699 19.071,15.004 18.936,15.245 Z M16.76,11.656 C16.673,11.719 16.571,11.75 16.468,11.75 C16.365,11.75 16.263,11.719 16.176,11.656 C15.847,11.42 12.968,9.294 12.968,7.49 C12.968,6.15 13.978,5.35 14.954,5.35 C15.459,5.35 16.041,5.569 16.468,6.124 C16.895,5.568 17.477,5.35 17.983,5.35 C18.959,5.35 19.968,6.15 19.968,7.49 C19.968,9.294 17.089,11.42 16.76,11.656 Z M7.468,10.626 C8.538,9.795 9.968,8.383 9.968,7.49 C9.968,6.75 9.46,6.35 8.983,6.35 C8.502,6.35 8.117,6.751 7.954,7.424 C7.9,7.648 7.699,7.807 7.468,7.807 C7.237,7.807 7.036,7.649 6.982,7.425 C6.819,6.752 6.435,6.351 5.954,6.351 C5.476,6.351 4.968,6.75 4.968,7.491 C4.968,8.383 6.398,9.795 7.468,10.626 L7.468,10.626 Z" id="Shape"></path>
                </g>
            </g>
        </g>
    </g>
</svg>