<?xml version="1.0" encoding="UTF-8"?>
<svg width="48px" height="48px" viewBox="0 0 48 48" version="1.1" xmlns="http://www.w3.org/2000/svg" xmlns:xlink="http://www.w3.org/1999/xlink">
    <!-- Generator: Sketch 43.2 (39069) - http://www.bohemiancoding.com/sketch -->
    <title>professia</title>
    <desc>Created with Sketch.</desc>
    <defs></defs>
    <g id="Bullets" stroke="none" stroke-width="1" fill="none" fill-rule="evenodd">
        <g id="VER_Packages_Bullets-states" transform="translate(-48.000000, -604.000000)">
            <g id="professia" transform="translate(48.000000, 604.000000)">
                <circle id="back" fill="#C1C1C1" cx="24" cy="24" r="24"></circle>
                <g id="map-target-1" transform="translate(12.000000, 12.000000)" fill-rule="nonzero" fill="#FFFFFF">
                    <path d="M12,8.006 C9.794,8.006 8,9.8 8,12.006 C8,14.212 9.794,16.006 12,16.006 C14.206,16.006 16,14.212 16,12.006 C16,9.8 14.206,8.006 12,8.006 Z M22.983,11.022 L20.941,11.01 C20.481,6.845 17.166,3.528 13,3.066 L13,1.064 C13,0.513 12.552,0.064 12,0.064 C11.448,0.064 11,0.513 11,1.064 L11,3.066 C6.834,3.528 3.519,6.845 3.058,11.011 L1.015,11.023 C0.463,11.025 0.018,11.476 0.021,12.029 C0.024,12.58 0.471,13.023 1.021,13.023 L1.026,13.023 L3.06,13.011 C3.525,17.174 6.837,20.485 11,20.947 L11,22.991 C11,23.544 11.448,23.991 12,23.991 C12.552,23.991 13,23.544 13,22.991 L13,20.947 C17.162,20.485 20.475,17.174 20.94,13.011 L22.972,13.023 L22.978,13.023 C23.528,13.023 23.975,12.58 23.978,12.029 C23.981,11.475 23.536,11.025 22.983,11.022 L22.983,11.022 Z M12,19.006 C8.14,19.006 5,15.866 5,12.006 C5,8.146 8.14,5.006 12,5.006 C15.86,5.006 19,8.146 19,12.006 C19,15.867 15.86,19.006 12,19.006 Z" id="Shape"></path>
                </g>
            </g>
        </g>
    </g>
</svg>