<?xml version="1.0" encoding="UTF-8"?>
<svg width="48px" height="48px" viewBox="0 0 48 48" version="1.1" xmlns="http://www.w3.org/2000/svg" xmlns:xlink="http://www.w3.org/1999/xlink">
    <!-- Generator: Sketch 43.2 (39069) - http://www.bohemiancoding.com/sketch -->
    <title>storony</title>
    <desc>Created with Sketch.</desc>
    <defs></defs>
    <g id="Bullets" stroke="none" stroke-width="1" fill="none" fill-rule="evenodd">
        <g id="VER_Packages_Bullets-states" transform="translate(-48.000000, -466.000000)">
            <g id="storony" transform="translate(48.000000, 466.000000)">
                <circle id="back" fill="#C1C1C1" cx="24" cy="24" r="24"></circle>
                <g id="trophy-star-1" transform="translate(17.000000, 12.000000)" fill-rule="nonzero" fill="#FFFFFF">
                    <path d="M13.9712756,4.876 C13.8982756,4.678 13.7112756,4.546 13.5002756,4.546 L9.28027557,4.546 L7.46827557,0.304 C7.39027557,0.12 7.21027557,0.001 7.01027557,0 L7.00927557,0 C6.81027557,0 6.62927557,0.119 6.55027557,0.302 L4.72127557,4.546 L0.50027557,4.546 C0.28927557,4.546 0.10227557,4.678 0.0292755696,4.876 C-0.0417244304,5.074 0.0192755696,5.296 0.18127557,5.43 L3.80827557,8.448 L1.98327557,13.312 C1.90627557,13.519 1.97127557,13.75 2.14627557,13.884 C2.32127557,14.018 2.56127557,14.023 2.74127557,13.895 L7.00127557,10.856 L11.2612756,13.897 C11.3482756,13.96 11.4492756,13.99 11.5512756,13.99 C11.6582756,13.99 11.7662756,13.955 11.8562756,13.886 C12.0302756,13.752 12.0962756,13.52 12.0192756,13.314 L10.1942756,8.447 L13.8212756,5.429 C13.9812756,5.296 14.0422756,5.074 13.9712756,4.876 L13.9712756,4.876 Z M13.0002756,20.546 L1.00027557,20.546 C0.72427557,20.546 0.50027557,20.77 0.50027557,21.046 L0.50027557,23.046 C0.50027557,23.322 0.72427557,23.546 1.00027557,23.546 L13.0002756,23.546 C13.2762756,23.546 13.5002756,23.322 13.5002756,23.046 L13.5002756,21.046 C13.5002756,20.77 13.2762756,20.546 13.0002756,20.546 Z M11.5002756,19.546 L11.5002756,16.046 C11.5002756,15.77 11.2762756,15.546 11.0002756,15.546 L7.50027557,15.546 L7.50027557,13.046 C7.50027557,12.77 7.27627557,12.546 7.00027557,12.546 C6.72427557,12.546 6.50027557,12.77 6.50027557,13.046 L6.50027557,15.546 L3.00027557,15.546 C2.72427557,15.546 2.50027557,15.77 2.50027557,16.046 L2.50027557,19.546 L11.5002756,19.546 Z" id="Shape"></path>
                </g>
            </g>
        </g>
    </g>
</svg>