<?xml version="1.0" encoding="UTF-8"?>
<svg width="48px" height="48px" viewBox="0 0 48 48" version="1.1" xmlns="http://www.w3.org/2000/svg" xmlns:xlink="http://www.w3.org/1999/xlink">
    <!-- Generator: Sketch 43.2 (39069) - http://www.bohemiancoding.com/sketch -->
    <title>vnimanie</title>
    <desc>Created with Sketch.</desc>
    <defs></defs>
    <g id="Bullets" stroke="none" stroke-width="1" fill="none" fill-rule="evenodd">
        <g id="VER_Packages_Bullets-states" transform="translate(-48.000000, -190.000000)">
            <g id="vnimanie" transform="translate(48.000000, 190.000000)">
                <circle id="back" fill="#C1C1C1" cx="24" cy="24" r="24"></circle>
                <g id="account-flash" transform="translate(13.000000, 12.000000)" fill-rule="nonzero" fill="#FFFFFF">
                    <path d="M20.285,9.856 C19.985,9.332 19.575,8.612 19.564,8.406 C19.563,3.145 14.701,0 10,0 C4.393,0 0,4.42 0,10.063 C0,13.663 1.345,16.339 4,18.021 L4,23.501 C4,23.776 4.224,24 4.5,24 L14.5,24 C14.776,24 15,23.776 15,23.5 L15,20.522 C16.737,20.505 17.788,20.327 18.572,19.541 C19.407,18.706 19.527,16.201 19.534,15.013 C19.837,15.018 20.218,15.019 20.551,15.006 C20.939,14.988 21.299,14.794 21.513,14.486 C21.699,14.222 21.701,13.944 21.703,13.743 L21.707,13.604 C21.788,12.489 20.989,11.091 20.285,9.856 L20.285,9.856 Z M14.505,7.777 L8.723,16.478 C8.628,16.622 8.47,16.702 8.306,16.702 L8.115,16.664 C7.894,16.573 7.769,16.339 7.816,16.103 L8.837,11 L6.722,11 C6.555,11 6.399,10.917 6.306,10.777 C6.213,10.639 6.196,10.463 6.259,10.309 L9.149,3.309 C9.227,3.122 9.409,3 9.611,3 L13.15,3 C13.318,3 13.475,3.084 13.567,3.226 C13.66,3.366 13.675,3.544 13.609,3.698 L12.186,7 L14.089,7 C14.273,7 14.443,7.102 14.529,7.264 C14.617,7.427 14.607,7.623 14.505,7.777 L14.505,7.777 Z" id="Shape"></path>
                </g>
            </g>
        </g>
    </g>
</svg>