<?xml version="1.0" encoding="UTF-8"?>
<svg width="48px" height="48px" viewBox="0 0 48 48" version="1.1" xmlns="http://www.w3.org/2000/svg" xmlns:xlink="http://www.w3.org/1999/xlink">
    <!-- Generator: Sketch 43.2 (39069) - http://www.bohemiancoding.com/sketch -->
    <title>vybor</title>
    <desc>Created with Sketch.</desc>
    <defs></defs>
    <g id="Bullets" stroke="none" stroke-width="1" fill="none" fill-rule="evenodd">
        <g id="VER_Packages_Bullets-states" transform="translate(-48.000000, -328.000000)">
            <g id="vybor" transform="translate(48.000000, 328.000000)">
                <circle id="back" fill="#C1C1C1" cx="24" cy="24" r="24"></circle>
                <g id="file-checklist" transform="translate(15.000000, 12.000000)" fill-rule="nonzero" fill="#FFFFFF">
                    <path d="M17.854,6.146 L11.854,0.146 C11.76,0.053 11.633,-8.32667268e-17 11.5,-8.32667268e-17 L0.5,-8.32667268e-17 C0.224,-8.32667268e-17 0,0.224 0,0.5 L0,23.5 C0,23.776 0.224,24 0.5,24 L17.5,24 C17.776,24 18,23.776 18,23.5 L18,6.5 C18,6.367 17.947,6.24 17.854,6.146 Z M7.854,17.354 L5.354,19.854 C5.256,19.951 5.128,20 5,20 C4.872,20 4.744,19.951 4.646,19.854 L3.146,18.354 C2.951,18.159 2.951,17.842 3.146,17.647 C3.341,17.452 3.658,17.452 3.853,17.647 L5,18.793 L7.146,16.647 C7.341,16.452 7.658,16.452 7.853,16.647 C8.048,16.842 8.049,17.158 7.854,17.354 Z M7.854,12.854 L5.354,15.354 C5.256,15.451 5.128,15.5 5,15.5 C4.872,15.5 4.744,15.451 4.646,15.354 L3.146,13.854 C2.951,13.659 2.951,13.342 3.146,13.147 C3.341,12.952 3.658,12.952 3.853,13.147 L5,14.293 L7.146,12.147 C7.341,11.952 7.658,11.952 7.853,12.147 C8.048,12.342 8.049,12.658 7.854,12.854 Z M7.854,8.354 L5.354,10.854 C5.256,10.951 5.128,11 5,11 C4.872,11 4.744,10.951 4.646,10.854 L3.146,9.354 C2.951,9.159 2.951,8.842 3.146,8.647 C3.341,8.452 3.658,8.452 3.853,8.647 L5,9.793 L7.146,7.647 C7.341,7.452 7.658,7.452 7.853,7.647 C8.048,7.842 8.049,8.158 7.854,8.354 Z M13.5,19 L9.5,19 C9.224,19 9,18.776 9,18.5 C9,18.224 9.224,18 9.5,18 L13.5,18 C13.776,18 14,18.224 14,18.5 C14,18.776 13.776,19 13.5,19 Z M13.5,15 L9.5,15 C9.224,15 9,14.776 9,14.5 C9,14.224 9.224,14 9.5,14 L13.5,14 C13.776,14 14,14.224 14,14.5 C14,14.776 13.776,15 13.5,15 Z M13.5,11 L9.5,11 C9.224,11 9,10.776 9,10.5 C9,10.224 9.224,10 9.5,10 L13.5,10 C13.776,10 14,10.224 14,10.5 C14,10.776 13.776,11 13.5,11 Z M11.5,6.5 L11.5,0.5 L17.5,6.5 L11.5,6.5 Z" id="Shape"></path>
                </g>
            </g>
        </g>
    </g>
</svg>